<svg width="236" height="32" viewBox="0 0 236 32" fill="none" xmlns="http://www.w3.org/2000/svg">
<g id="paymentMethodsAdyen 1" clip-path="url(#clip0_5_48109)">
<g id="Group 204">
<path id="Vector" fill-rule="evenodd" clip-rule="evenodd" d="M0 1.77266V30.1192C0 31.0946 0.742864 31.8919 1.65468 31.8919H41.2544C42.1662 31.8919 42.9091 31.0973 42.9091 30.1192V1.77266C42.9091 0.797297 42.1662 0 41.2544 0H1.65468C0.742864 0 0 0.79464 0 1.77266Z" fill="white"/>
<path id="Vector_2" fill-rule="evenodd" clip-rule="evenodd" d="M18.9042 20.7263H16.3726L17.9562 11.2783H20.4878L18.9055 20.7263H18.9042ZM28.0814 11.5082C27.3556 11.2385 26.5863 11.1021 25.8112 11.1055C23.3118 11.1055 21.5511 12.3932 21.5404 14.2323C21.519 15.589 22.8009 16.3424 23.7583 16.7956C24.7372 17.258 25.0724 17.5597 25.0724 17.9716C25.0616 18.6041 24.2799 18.8965 23.5504 18.8965C22.5407 18.8965 21.999 18.7463 21.177 18.3942L20.8418 18.2427L20.4878 20.3635C21.0818 20.6253 22.176 20.8565 23.3118 20.8671C25.9668 20.8671 27.6965 19.5994 27.7167 17.6394C27.7274 16.5644 27.0502 15.7392 25.5927 15.0668C24.7077 14.6349 24.1646 14.3426 24.1646 13.9001C24.1753 13.4988 24.6232 13.0868 25.6221 13.0868C26.2702 13.068 26.9145 13.1914 27.5088 13.4483L27.7368 13.5492L28.0814 11.5082Z" fill="#0742A6"/>
<path id="Vector_3" d="M31.4471 17.3793L32.4568 14.735C32.446 14.7562 32.6646 14.1822 32.7907 13.8314L32.9677 14.6446C32.9677 14.6446 33.4464 16.9063 33.551 17.3793H31.4457H31.4471ZM34.5714 11.2773H32.6137C32.0103 11.2773 31.5503 11.4488 31.2902 12.0614L27.5303 20.7253H30.1853L30.7176 19.3088H33.968C34.0404 19.641 34.2697 20.7266 34.2697 20.7266H36.6136L34.5714 11.2787V11.2773Z" fill="#0742A6"/>
<path id="Vector_4" fill-rule="evenodd" clip-rule="evenodd" d="M14.2593 11.2773L11.7799 17.7208L11.5091 16.4146C11.0505 14.9064 9.613 13.2679 8.00928 12.4547L10.2808 20.716H12.9572L16.9357 11.2773H14.2593Z" fill="#0742A6"/>
<path id="Vector_5" fill-rule="evenodd" clip-rule="evenodd" d="M9.47719 11.2773H5.40485L5.36328 11.4687C8.54124 12.2527 10.6438 14.1423 11.5087 16.4146L10.6237 12.072C10.4775 11.4687 10.0296 11.2973 9.47719 11.2773Z" fill="#0742A6"/>
</g>
<g id="Group 205">
<path id="Vector_6" fill-rule="evenodd" clip-rule="evenodd" d="M48.2725 1.77266V30.1192C48.2725 31.0946 49.0153 31.8919 49.9271 31.8919H89.5269C90.4387 31.8919 91.1816 31.0973 91.1816 30.1192V1.77266C91.1816 0.797297 90.4387 0 89.5269 0H49.9271C49.0153 0 48.2725 0.79464 48.2725 1.77266Z" fill="white"/>
<path id="Vector_7" d="M72.9698 9.93945H65.458V21.9295H72.9698V9.93945Z" fill="#FF5F00"/>
<path id="Vector_8" fill-rule="evenodd" clip-rule="evenodd" d="M66.2336 15.9363C66.2348 14.7781 66.504 13.6356 67.0205 12.5967C67.5371 11.5577 68.2871 10.65 69.2131 9.94328C66.015 7.48495 61.4224 7.84373 58.6601 10.7645C57.3303 12.1646 56.5898 14.0149 56.5898 15.9376C56.5898 17.8604 57.3303 19.7106 58.6601 21.1108C61.4224 24.0315 66.015 24.389 69.2131 21.932C68.2868 21.225 67.5365 20.3168 67.02 19.2774C66.5034 18.238 66.2344 17.0949 66.2336 15.9363Z" fill="#EB001B"/>
<path id="Vector_9" d="M81.1044 20.9672V20.4689H81.2237V20.3652H80.9395V20.4689H81.0521V20.9672H81.1044ZM81.6542 20.9672V20.3652H81.5697L81.4691 20.7944L81.3685 20.3652H81.2827V20.9672H81.3444V20.5114L81.4383 20.9021H81.5026L81.5965 20.5114V20.9672H81.6555H81.6542Z" fill="#F79E1B"/>
<path id="Vector_10" fill-rule="evenodd" clip-rule="evenodd" d="M81.8372 15.9351C81.8327 17.3724 81.418 18.7791 80.6409 19.9927C79.8638 21.2062 78.7561 22.1771 77.4457 22.7932C76.1275 23.4188 74.6598 23.6694 73.2063 23.5169C71.7528 23.3643 70.3707 22.8148 69.2139 21.9295C70.1395 21.2221 70.8894 20.3141 71.4061 19.275C71.9228 18.236 72.1925 17.0935 72.1947 15.9351C72.1927 14.7765 71.9231 13.6338 71.4064 12.5945C70.8897 11.5552 70.1397 10.647 69.2139 9.93945C70.3707 9.05413 71.7528 8.50458 73.2063 8.35207C74.6598 8.19956 76.1275 8.45008 77.4457 9.07571C78.756 9.69156 79.8636 10.6622 80.6407 11.8756C81.4178 13.0889 81.8326 14.4954 81.8372 15.9325V15.9351Z" fill="#F79E1B"/>
</g>
<g id="Mask group">
<mask id="mask0_5_48109" style="mask-type:alpha" maskUnits="userSpaceOnUse" x="96" y="0" width="44" height="32">
<g id="Group">
<path id="Vector_11" fill-rule="evenodd" clip-rule="evenodd" d="M96.5459 1.77266V30.1192C96.5459 31.0946 97.2888 31.8919 98.2006 31.8919H137.8C138.713 31.8919 139.455 31.0973 139.455 30.1192V1.77266C139.455 0.797297 138.712 0 137.8 0H98.2006C97.2888 0 96.5459 0.79464 96.5459 1.77266Z" fill="white"/>
</g>
</mask>
<g mask="url(#mask0_5_48109)">
<g id="Group_2">
<path id="Vector_12" fill-rule="evenodd" clip-rule="evenodd" d="M96.5459 1.77266V30.1192C96.5459 31.0946 97.2888 31.8919 98.2006 31.8919H137.8C138.713 31.8919 139.455 31.0973 139.455 30.1192V1.77266C139.455 0.797297 138.712 0 137.8 0H98.2006C97.2888 0 96.5459 0.79464 96.5459 1.77266Z" fill="white"/>
<path id="Vector_13" d="M108.201 20.4833V19.9797H105.656V19.2461H108.154V18.2827H105.656V17.5506H108.201V16.5872H104.453V18.7571C104.453 19.9504 104.467 20.9404 104.484 20.9577C104.502 20.9736 105.345 20.9882 106.357 20.9882H108.201V20.4833ZM110.487 20.2999C110.813 19.9225 111.098 19.6129 111.119 19.6129C111.14 19.6129 111.425 19.9212 111.749 20.2986L112.341 20.9842L113.091 20.9869C113.507 20.9869 113.844 20.9776 113.844 20.9643C113.844 20.951 113.407 20.4514 112.873 19.8534C112.337 19.2554 111.906 18.7412 111.913 18.7106C111.92 18.6814 112.31 18.2296 112.78 17.706C113.25 17.1825 113.663 16.716 113.696 16.6695C113.754 16.5911 113.723 16.5872 113.023 16.5872H112.288L111.741 17.2183C111.441 17.5638 111.171 17.8522 111.143 17.8575C111.115 17.8628 110.844 17.5785 110.541 17.2276L109.991 16.5872H109.227C108.503 16.5872 108.468 16.5911 108.535 16.6669L109.49 17.7326C109.977 18.2748 110.375 18.7319 110.375 18.7492C110.375 18.7651 109.938 19.2674 109.404 19.864C109.074 20.2266 108.75 20.5943 108.432 20.967C108.432 20.9803 108.762 20.9882 109.164 20.9882H109.896L110.487 20.2999ZM115.195 20.2667L115.209 19.5438L116.157 19.5212C117.062 19.4999 117.117 19.4933 117.368 19.3764C117.71 19.2169 117.979 18.9379 118.102 18.6123C118.183 18.3997 118.198 18.2801 118.183 17.9625C118.152 17.3672 117.909 16.9792 117.415 16.7386L117.152 16.6097L115.591 16.5965L114.029 16.5818V20.9882H115.183L115.197 20.2667H115.195ZM115.206 18.5007C115.188 18.336 115.185 18.1702 115.195 18.005L115.209 17.5731L115.89 17.5599C116.408 17.5506 116.61 17.5638 116.733 17.6143C117.069 17.7539 117.128 18.2256 116.837 18.4395C116.719 18.5259 116.631 18.5365 115.969 18.5498C115.371 18.5631 115.226 18.5525 115.206 18.5007ZM119.905 20.2082V19.4295H120.351L121.034 20.2082L121.716 20.9882H123.156L123.068 20.8846C122.658 20.4317 122.246 19.9817 121.83 19.5345C121.703 19.3976 121.699 19.3843 121.782 19.3578C122.493 19.1319 122.864 18.6601 122.864 17.9851C122.864 17.407 122.57 16.9526 122.041 16.7094C121.834 16.6151 121.748 16.6097 120.285 16.5965L118.747 16.5818V20.9882H119.903V20.2082H119.905ZM119.905 18.005V17.5439L120.642 17.5572C121.305 17.5705 121.39 17.5838 121.508 17.6688C121.779 17.8695 121.75 18.2562 121.455 18.3944C121.335 18.4502 121.141 18.4661 120.602 18.4661H119.905V18.005ZM127.26 20.4833V19.9797H124.665L124.678 19.6249L124.692 19.2687L125.952 19.2568L127.213 19.2435V18.2854L125.952 18.2721L124.692 18.2601V17.5718L125.975 17.5612L127.26 17.5479V16.5872H123.512V20.9882H127.26V20.4833ZM130.96 20.8726C131.339 20.7424 131.703 20.3677 131.807 19.9996C132.008 19.2847 131.766 18.6761 131.179 18.4156C130.96 18.3199 130.849 18.3067 130.051 18.2841C129.266 18.2628 129.153 18.2508 129.068 18.1738C128.936 18.0542 128.936 17.7791 129.068 17.6608C129.157 17.5811 129.26 17.5718 130.259 17.5585L131.353 17.5439L131.569 17.0655L131.786 16.5872H130.405C129.158 16.5872 128.997 16.5965 128.728 16.6788C128.124 16.8635 127.795 17.318 127.793 17.9625C127.793 18.5166 127.992 18.8688 128.438 19.1C128.658 19.2142 128.714 19.2222 129.551 19.2448C130.279 19.2647 130.454 19.2833 130.554 19.3485C130.761 19.4813 130.738 19.8268 130.515 19.9278C130.439 19.9624 129.987 19.9797 129.153 19.9797H127.906V20.9962L129.306 20.9776C130.526 20.9617 130.738 20.9484 130.96 20.8713V20.8726ZM135.355 20.8607C135.663 20.753 135.92 20.5344 136.073 20.2481C136.198 20.0235 136.21 19.9637 136.21 19.5664C136.21 19.0216 136.097 18.7638 135.76 18.5326C135.463 18.3306 135.199 18.2827 134.356 18.2827C133.469 18.2827 133.315 18.2269 133.32 17.9014C133.322 17.7685 133.414 17.6555 133.569 17.5971C133.642 17.5705 134.117 17.5506 134.703 17.5506H135.711L135.908 17.1253C136.016 16.8928 136.115 16.6762 136.127 16.6443C136.165 16.5526 133.463 16.5646 133.146 16.6576C132.968 16.7039 132.803 16.7866 132.659 16.9003C132.516 17.0141 132.398 17.1564 132.313 17.318C132.181 17.5678 132.162 17.6476 132.163 17.9558C132.163 18.3651 132.284 18.6734 132.539 18.9126C132.83 19.185 132.972 19.2182 133.96 19.2448L134.853 19.2687L134.966 19.3976C135.108 19.5624 135.107 19.7245 134.963 19.8667L134.849 19.9797H132.301V20.9962L133.7 20.9789C135.006 20.9617 135.117 20.9537 135.355 20.8607ZM100.268 14.857L100.455 14.4105H102.526L102.714 14.8557L102.905 15.3022H103.563C103.925 15.3035 104.223 15.2982 104.223 15.2915C104.223 15.2862 103.786 14.3016 103.252 13.103L102.282 10.9263H100.736L99.7964 13.0352C99.2788 14.1939 98.8443 15.1799 98.8309 15.2238C98.8068 15.2969 98.8551 15.3035 99.4437 15.3035H100.082L100.27 14.857H100.268ZM100.892 13.4152C100.892 13.3408 101.46 12.0027 101.491 12.004C101.521 12.004 102.095 13.3541 102.095 13.4232C102.095 13.4524 101.873 13.4697 101.493 13.4697C101.058 13.4697 100.892 13.4551 100.892 13.4166V13.4152ZM105.611 13.7355C105.611 12.8545 105.628 12.1874 105.651 12.2113C105.672 12.2352 105.914 12.8638 106.187 13.6066C106.462 14.3507 106.717 15.0377 106.754 15.1321L106.823 15.3048H107.855L108.432 13.7421L109.01 12.1808L109.023 13.7421L109.034 15.3035H110.19V10.9024H108.362L107.904 12.1754C107.651 12.8744 107.421 13.4963 107.391 13.5561C107.33 13.6797 107.402 13.8498 106.715 11.9695L106.327 10.9038H104.453V15.3035H105.611V13.7355ZM114.863 14.7985V14.2949H112.295V13.6066H114.816V12.5993L113.562 12.5887L112.31 12.5754L112.306 12.2326L112.302 11.8884H114.861V10.9024H111.115V15.3035H114.861V14.7985H114.863ZM116.851 14.5222V13.7395L117.07 13.7541L117.289 13.7674L117.959 14.5354L118.629 15.3035H119.336C119.725 15.3035 120.043 15.2915 120.043 15.2769C120.043 15.2623 119.728 14.9115 119.343 14.4956C118.958 14.081 118.651 13.7355 118.66 13.7275C118.67 13.7195 118.794 13.6611 118.938 13.5973C119.52 13.3368 119.788 12.9276 119.785 12.3017C119.783 11.6997 119.527 11.2984 118.983 11.0459L118.725 10.9263L117.187 10.9117L115.649 10.8984V15.3035H116.851V14.5222ZM116.851 12.3243V11.8658H117.441C118.368 11.8685 118.608 11.9681 118.608 12.3508C118.608 12.5103 118.584 12.5661 118.466 12.6631C118.326 12.7801 118.313 12.7827 117.588 12.7827H116.85V12.3243H116.851ZM121.616 13.103V10.9024H120.46V15.3035H121.616V13.103ZM125.042 14.8211C125.168 14.5554 125.27 14.3281 125.27 14.3162C125.27 14.3042 125.056 14.2949 124.796 14.2949C124.216 14.2949 124.021 14.2444 123.789 14.0371C123.544 13.8179 123.442 13.5362 123.445 13.0804C123.445 12.792 123.467 12.6671 123.552 12.497C123.785 12.0213 124.083 11.9123 125.14 11.9123H125.872V10.9024L125.027 10.9038C124.059 10.9038 123.697 10.9622 123.28 11.1828C122.623 11.5283 122.263 12.2193 122.263 13.1309C122.263 13.8378 122.472 14.3667 122.91 14.768C123.312 15.1361 123.756 15.2862 124.474 15.2995L124.814 15.3035L125.042 14.8198V14.8211ZM126.865 14.8451L127.057 14.4105H129.125L129.311 14.857L129.496 15.3035H130.822L130.758 15.1547C130.148 13.7778 129.536 12.4021 128.921 11.0273L128.862 10.9011L128.096 10.9144L127.329 10.9263L126.371 13.0804C126.042 13.8068 125.721 14.5368 125.409 15.2703C125.409 15.2902 125.693 15.3008 126.042 15.2942L126.675 15.2809L126.867 14.8451H126.865ZM127.49 13.4152C127.49 13.3355 128.053 12.0027 128.087 12.004C128.115 12.004 128.696 13.3727 128.694 13.4352C128.694 13.4551 128.422 13.4697 128.091 13.4697C127.654 13.4697 127.49 13.4551 127.49 13.4152ZM132.232 13.9175C132.232 13.1667 132.242 12.5542 132.254 12.5542C132.268 12.5542 132.693 13.1734 133.198 13.9295L134.12 15.3035H135.54V10.9024H134.384L134.372 12.2445L134.36 13.584L133.457 12.2445L132.556 10.9051H131.805L131.053 10.9024V15.3062L131.643 15.2929L132.233 15.2809V13.9175H132.232Z" fill="#016FD0"/>
</g>
</g>
</g>
<g id="Group 203">
<path id="Vector_14" fill-rule="evenodd" clip-rule="evenodd" d="M144.818 1.77266V30.1192C144.818 31.0946 145.561 31.8919 146.473 31.8919H186.073C186.986 31.8919 187.727 31.0973 187.727 30.1192V1.77266C187.727 0.797297 186.985 0 186.073 0H146.473C145.56 0 144.818 0.79464 144.818 1.77266Z" fill="white"/>
<path id="Vector_15" d="M150.447 13.5039H148.842V19.0571H150.44C151.167 19.0993 151.882 18.8698 152.446 18.414C152.76 18.1532 153.013 17.8273 153.186 17.4593C153.36 17.0912 153.449 16.69 153.449 16.2838C153.456 14.66 152.218 13.5039 150.447 13.5039ZM151.723 17.6751C151.379 17.9728 150.935 18.1163 150.23 18.1163H149.932V14.4447H150.226C150.931 14.4447 151.359 14.571 151.721 14.8965C151.912 15.0728 152.065 15.2865 152.169 15.5241C152.273 15.7618 152.326 16.0182 152.325 16.2772C152.326 16.5385 152.273 16.7973 152.17 17.0377C152.066 17.2781 151.914 17.495 151.723 17.6751ZM155.05 13.5039H153.956V19.0571H155.05V13.5039ZM157.721 15.634C157.052 15.3949 156.872 15.2367 156.872 14.9351C156.872 14.6334 157.216 14.3291 157.688 14.3291C157.859 14.3327 158.027 14.3749 158.18 14.4525C158.332 14.5301 158.465 14.6411 158.567 14.7769L159.139 14.0341C158.687 13.6321 158.1 13.4113 157.493 13.4149C157.273 13.4011 157.053 13.4312 156.845 13.5035C156.637 13.5759 156.445 13.6889 156.282 13.8359C156.119 13.9829 155.988 14.1609 155.895 14.3593C155.803 14.5577 155.752 14.7725 155.745 14.9909C155.745 15.7563 156.1 16.147 157.126 16.5124C157.387 16.5961 157.639 16.7077 157.878 16.8446C157.98 16.9023 158.064 16.9858 158.123 17.0864C158.182 17.187 158.212 17.3011 158.212 17.4173C158.213 17.5249 158.191 17.6315 158.148 17.7303C158.105 17.8291 158.042 17.918 157.962 17.9915C157.883 18.0649 157.789 18.1212 157.687 18.1569C157.584 18.1925 157.476 18.2068 157.367 18.1987C157.117 18.203 156.872 18.1356 156.66 18.0044C156.448 17.8733 156.278 17.6842 156.173 17.4599L155.467 18.1229C155.665 18.455 155.95 18.7283 156.291 18.9141C156.632 19.1 157.017 19.1916 157.406 19.1794C158.543 19.1794 159.34 18.4299 159.34 17.3575C159.333 16.4858 158.958 16.0845 157.721 15.634ZM159.678 16.2838C159.672 16.8629 159.843 17.4302 160.169 17.911C160.495 18.3917 160.96 18.7635 161.503 18.9774C161.862 19.1209 162.248 19.19 162.636 19.182C163.112 19.1804 163.582 19.067 164.006 18.8511V17.5821C163.842 17.7746 163.637 17.9291 163.406 18.0347C163.175 18.1403 162.924 18.1945 162.669 18.1934C162.416 18.2008 162.164 18.1559 161.929 18.0615C161.694 17.9671 161.481 17.8253 161.304 17.6451C161.128 17.4649 160.991 17.2502 160.902 17.0147C160.814 16.7792 160.776 16.528 160.791 16.2772C160.781 16.031 160.822 15.7855 160.911 15.5554C161 15.3253 161.134 15.1152 161.307 14.9377C161.479 14.7598 161.685 14.6178 161.913 14.5201C162.141 14.4224 162.387 14.371 162.636 14.369C162.895 14.3705 163.152 14.4269 163.387 14.5343C163.623 14.6418 163.833 14.7979 164.003 14.9922V13.7192C163.593 13.5 163.133 13.3858 162.667 13.387C162.278 13.3817 161.892 13.4526 161.532 13.5955C161.171 13.7384 160.842 13.9506 160.565 14.2197C160.287 14.4889 160.065 14.8099 159.913 15.1641C159.761 15.5183 159.681 15.8989 159.678 16.2838ZM172.666 17.2313L171.171 13.5039H169.981L172.357 19.1993H172.943L175.364 13.5039H174.18L172.666 17.2313ZM175.857 19.0558H178.957V18.1163H176.951V16.6187H178.884V15.6779H176.951V14.4447H178.957V13.5039H175.857V19.0571V19.0558ZM183.283 15.1437C183.283 14.1032 182.56 13.5039 181.3 13.5039H179.685V19.0571H180.778V16.8273H180.919L182.433 19.0571H183.771L182.005 16.7184C182.38 16.6664 182.722 16.4745 182.959 16.182C183.196 15.8894 183.312 15.5181 183.283 15.1437ZM181.089 16.0606H180.755V14.3783H181.089C181.758 14.3783 182.142 14.664 182.142 15.2035C182.142 15.743 181.788 16.0619 181.089 16.0619V16.0606ZM184.152 13.7949C184.152 13.6993 184.085 13.6461 183.964 13.6461H183.807V14.1338H183.924V13.9438L184.065 14.1338H184.208L184.031 13.9318C184.066 13.9294 184.097 13.9137 184.12 13.888C184.143 13.8624 184.154 13.8289 184.152 13.7949ZM183.944 13.8614H183.924V13.7351H183.948C184.004 13.7351 184.035 13.7551 184.035 13.7989C184.035 13.8415 184.004 13.8614 183.944 13.8614Z" fill="#251F20"/>
<path id="Vector_16" d="M183.991 13.4609C183.905 13.4604 183.822 13.4846 183.75 13.5307C183.679 13.5768 183.622 13.6426 183.588 13.7201C183.552 13.8042 183.544 13.8976 183.565 13.9865C183.587 14.0754 183.637 14.1552 183.707 14.214C183.778 14.2728 183.866 14.3076 183.958 14.3132C184.05 14.3188 184.141 14.2949 184.219 14.2451C184.296 14.1953 184.355 14.1221 184.387 14.0364C184.42 13.9508 184.423 13.8571 184.398 13.7692C184.372 13.6814 184.319 13.604 184.245 13.5485C184.172 13.493 184.083 13.4623 183.991 13.4609ZM183.991 14.2396C183.945 14.2396 183.9 14.2303 183.858 14.2125C183.817 14.1947 183.779 14.1687 183.748 14.136C183.716 14.1035 183.692 14.0645 183.677 14.0217C183.661 13.9793 183.654 13.934 183.657 13.8888C183.656 13.8452 183.665 13.802 183.681 13.7616C183.698 13.7212 183.722 13.6845 183.754 13.6536C183.785 13.6227 183.822 13.5982 183.862 13.5816C183.903 13.5649 183.946 13.5564 183.991 13.5566C184.079 13.5566 184.165 13.5925 184.228 13.6536C184.29 13.7161 184.326 13.7998 184.326 13.8875C184.329 13.9332 184.322 13.9791 184.306 14.0222C184.29 14.0652 184.265 14.1044 184.233 14.1373C184.202 14.1703 184.164 14.1965 184.121 14.2141C184.079 14.2317 184.034 14.2404 183.988 14.2396H183.991Z" fill="#251F20"/>
<path id="Vector_17" d="M170.309 16.2749C170.312 16.7184 170.215 17.1568 170.025 17.5586C169.836 17.9604 169.559 18.3154 169.214 18.5979C168.869 18.8804 168.465 19.0833 168.031 19.192C167.597 19.3007 167.145 19.3124 166.706 19.2263C166.267 19.1409 165.853 18.9603 165.493 18.6975C165.134 18.4347 164.837 18.0961 164.625 17.7062C164.413 17.3163 164.291 16.8847 164.267 16.4424C164.243 16.0001 164.319 15.5581 164.488 15.1481C164.715 14.5998 165.1 14.1306 165.596 13.7997C166.092 13.4687 166.676 13.291 167.274 13.2891H167.286C168.086 13.2894 168.853 13.6038 169.42 14.1634C169.986 14.723 170.306 15.4823 170.309 16.2749Z" fill="url(#paint0_linear_5_48109)"/>
<g id="Mask group_2">
<mask id="mask1_5_48109" style="mask-type:alpha" maskUnits="userSpaceOnUse" x="164" y="13" width="7" height="7">
<g id="Group_3">
<path id="Vector_18" d="M170.309 16.2749C170.312 16.7184 170.215 17.1568 170.025 17.5586C169.836 17.9604 169.559 18.3154 169.214 18.5979C168.869 18.8804 168.465 19.0833 168.031 19.192C167.597 19.3007 167.145 19.3124 166.706 19.2263C166.267 19.1409 165.853 18.9603 165.493 18.6975C165.134 18.4347 164.837 18.0961 164.625 17.7062C164.413 17.3163 164.291 16.8847 164.267 16.4424C164.243 16.0001 164.319 15.5581 164.488 15.1481C164.715 14.5998 165.1 14.1306 165.596 13.7997C166.092 13.4687 166.676 13.291 167.274 13.2891H167.286C168.086 13.2894 168.853 13.6038 169.42 14.1634C169.986 14.723 170.306 15.4823 170.309 16.2749Z" fill="url(#paint1_linear_5_48109)"/>
</g>
</mask>
<g mask="url(#mask1_5_48109)">
<g id="Group_4">
<path id="Vector_19" d="M167.531 19.9014C167.986 19.9103 168.438 19.8293 168.86 19.663C169.283 19.4968 169.668 19.2486 169.993 18.9332C170.317 18.6177 170.575 18.2412 170.752 17.8257C170.928 17.4103 171.018 16.9641 171.018 16.5135C171.018 16.0629 170.928 15.6168 170.752 15.2013C170.575 14.7858 170.317 14.4093 169.993 14.0939C169.668 13.7784 169.283 13.5303 168.86 13.364C168.438 13.1978 167.986 13.1167 167.531 13.1257C166.636 13.1432 165.784 13.5079 165.157 14.1413C164.531 14.7747 164.18 15.6264 164.18 16.5135C164.18 17.4006 164.531 18.2523 165.157 18.8857C165.784 19.5191 166.636 19.8838 167.531 19.9014Z" fill="url(#paint2_radial_5_48109)"/>
</g>
</g>
</g>
</g>
<g id="Group 202">
<path id="Vector_20" fill-rule="evenodd" clip-rule="evenodd" d="M193.091 1.77266V30.1192C193.091 31.0946 193.834 31.8919 194.745 31.8919H234.345C235.258 31.8919 236 31.0973 236 30.1192V1.77266C236 0.797297 235.257 0 234.345 0H194.745C193.832 0 193.091 0.79464 193.091 1.77266Z" fill="white"/>
<path id="Vector_21" d="M216.287 23.9186C220.685 23.9399 224.698 20.364 224.698 16.0147C224.698 11.2575 220.685 7.97133 216.287 7.97266H212.502C208.051 7.97133 204.388 11.2602 204.388 16.0147C204.388 20.3653 208.051 23.9399 212.502 23.9186H216.287Z" fill="#0079BE"/>
<path id="Vector_22" d="M212.52 8.63281C210.567 8.63334 208.694 9.40281 207.313 10.7719C205.932 12.1411 205.157 13.9977 205.157 15.9334C205.158 17.8691 205.934 19.7253 207.316 21.0937C208.697 22.4621 210.571 23.2305 212.524 23.23C214.477 23.2295 216.351 22.46 217.731 21.0909C219.112 19.7218 219.888 17.8651 219.887 15.9294C219.887 13.9937 219.11 12.1375 217.729 10.7691C216.347 9.40073 214.473 8.63228 212.52 8.63281ZM207.852 15.9321C207.854 14.9968 208.141 14.0838 208.676 13.3132C209.211 12.5426 209.969 11.9505 210.849 11.6147V20.2494C209.969 19.9139 209.211 19.322 208.676 18.5516C208.141 17.7813 207.854 16.8685 207.852 15.9334V15.9321ZM214.19 20.2508V11.6134C215.071 11.9486 215.83 12.5407 216.365 13.3117C216.9 14.0826 217.187 14.9963 217.188 15.9321C217.187 16.8678 216.9 17.7814 216.365 18.5523C215.829 19.3232 215.071 19.9154 214.19 20.2508Z" fill="white"/>
</g>
</g>
<defs>
<linearGradient id="paint0_linear_5_48109" x1="169.673" y1="18.8967" x2="166.204" y2="15.0331" gradientUnits="userSpaceOnUse">
<stop offset="0.09" stop-color="#F99B20"/>
<stop offset="0.32" stop-color="#F78D21"/>
<stop offset="1" stop-color="#F26522"/>
</linearGradient>
<linearGradient id="paint1_linear_5_48109" x1="169.673" y1="18.8967" x2="166.204" y2="15.0331" gradientUnits="userSpaceOnUse">
<stop offset="0.09" stop-color="#F99B20"/>
<stop offset="0.32" stop-color="#F78D21"/>
<stop offset="1" stop-color="#F26522"/>
</linearGradient>
<radialGradient id="paint2_radial_5_48109" cx="0" cy="0" r="1" gradientUnits="userSpaceOnUse" gradientTransform="translate(167.531 16.5128) scale(3.41875 3.38794)">
<stop offset="0.8" stop-color="#552800" stop-opacity="0"/>
<stop offset="0.97" stop-color="#3A1C00" stop-opacity="0.5"/>
</radialGradient>
<clipPath id="clip0_5_48109">
<rect width="236" height="31.8919" fill="white"/>
</clipPath>
</defs>
</svg>
