<svg width="50" height="50" viewBox="0 0 50 50" fill="none" xmlns="http://www.w3.org/2000/svg">
<path d="M49 25C49 38.2548 38.2548 49 25 49C11.7452 49 1 38.2548 1 25C1 11.7452 11.7452 1 25 1C38.2548 1 49 11.7452 49 25Z" stroke="url(#paint0_linear_2216_10349)" stroke-width="2"/>
<g clip-path="url(#clip0_2216_10349)">
<path d="M37.9652 33.1095V28.7707C37.9652 28.483 37.8509 28.2071 37.6475 28.0036C37.4441 27.8002 37.1682 27.6859 36.8805 27.6859C36.5928 27.6859 36.3169 27.8002 36.1135 28.0036C35.91 28.2071 35.7958 28.483 35.7958 28.7707V33.1095C35.7958 33.3972 35.6815 33.6731 35.4781 33.8765C35.2746 34.0799 34.9987 34.1942 34.7111 34.1942H15.1863C14.8986 34.1942 14.6227 34.0799 14.4193 33.8765C14.2158 33.6731 14.1016 33.3972 14.1016 33.1095V28.7707C14.1016 28.483 13.9873 28.2071 13.7838 28.0036C13.5804 27.8002 13.3045 27.6859 13.0168 27.6859C12.7292 27.6859 12.4533 27.8002 12.2498 28.0036C12.0464 28.2071 11.9321 28.483 11.9321 28.7707V33.1095C11.9321 33.9725 12.275 34.8002 12.8852 35.4105C13.4955 36.0208 14.3232 36.3636 15.1863 36.3636H34.7111C35.5741 36.3636 36.4018 36.0208 37.0121 35.4105C37.6223 34.8002 37.9652 33.9725 37.9652 33.1095ZM31.0447 26.3109L25.6212 30.6498C25.4297 30.8011 25.1927 30.8834 24.9487 30.8834C24.7046 30.8834 24.4676 30.8011 24.2761 30.6498L18.8526 26.3109C18.655 26.1244 18.5346 25.8705 18.5152 25.5994C18.4958 25.3284 18.5789 25.0599 18.748 24.8472C18.9171 24.6345 19.1599 24.4929 19.4283 24.4507C19.6968 24.4084 19.9713 24.4684 20.1976 24.6188L23.8639 27.5475V13.5847C23.8639 13.297 23.9782 13.0211 24.1817 12.8177C24.3851 12.6143 24.661 12.5 24.9487 12.5C25.2363 12.5 25.5122 12.6143 25.7157 12.8177C25.9191 13.0211 26.0334 13.297 26.0334 13.5847V27.5475L29.6997 24.6188C29.8089 24.5157 29.9384 24.4364 30.0798 24.3859C30.2213 24.3355 30.3717 24.3149 30.5216 24.3256C30.6714 24.3364 30.8173 24.3781 30.9502 24.4481C31.0831 24.5182 31.1999 24.6151 31.2934 24.7326C31.3869 24.8502 31.4549 24.9859 31.4932 25.1312C31.5314 25.2764 31.5391 25.428 31.5158 25.5764C31.4924 25.7248 31.4384 25.8667 31.3574 25.9931C31.2763 26.1196 31.1698 26.2278 31.0447 26.3109Z" fill="url(#paint1_linear_2216_10349)" stroke="url(#paint2_linear_2216_10349)" stroke-width="0.5"/>
</g>
<defs>
<linearGradient id="paint0_linear_2216_10349" x1="50.3412" y1="7.61396e-06" x2="-1.65846" y2="1.7888" gradientUnits="userSpaceOnUse">
<stop stop-color="#5961F8"/>
<stop offset="1" stop-color="#15D8C5"/>
<stop offset="1" stop-color="#15D8C5"/>
</linearGradient>
<linearGradient id="paint1_linear_2216_10349" x1="38.1428" y1="12.5" x2="11.0747" y2="13.5158" gradientUnits="userSpaceOnUse">
<stop stop-color="#5961F8"/>
<stop offset="1" stop-color="#15D8C5"/>
<stop offset="1" stop-color="#15D8C5"/>
</linearGradient>
<linearGradient id="paint2_linear_2216_10349" x1="38.1428" y1="12.5" x2="11.0747" y2="13.5158" gradientUnits="userSpaceOnUse">
<stop stop-color="#5961F8"/>
<stop offset="1" stop-color="#15D8C5"/>
<stop offset="1" stop-color="#15D8C5"/>
</linearGradient>
<clipPath id="clip0_2216_10349">
<rect width="27.2727" height="27.2727" fill="white" transform="translate(11.3638 11.3633)"/>
</clipPath>
</defs>
</svg>
