<svg width="50" height="50" viewBox="0 0 50 50" fill="none" xmlns="http://www.w3.org/2000/svg">
<path d="M49 25C49 38.2548 38.2548 49 25 49C11.7452 49 1 38.2548 1 25C1 11.7452 11.7452 1 25 1C38.2548 1 49 11.7452 49 25Z" stroke="url(#paint0_linear_2216_10335)" stroke-width="2"/>
<path d="M33.0356 24.9993C32.5424 24.9993 32.1427 25.399 32.1427 25.8922V34.8206C32.1427 35.3137 31.7429 35.7134 31.2498 35.7134H15.1786C14.6854 35.7134 14.2857 35.3137 14.2857 34.8206V16.9637C14.2857 16.4706 14.6854 16.0708 15.1786 16.0708H25.8928C26.3859 16.0708 26.7856 15.6711 26.7856 15.178C26.7856 14.6848 26.3859 14.2852 25.8928 14.2852H15.1786C13.6992 14.2852 12.5 15.4844 12.5 16.9637V34.8206C12.5 36.2999 13.6992 37.4991 15.1786 37.4991H31.2499C32.7292 37.4991 33.9284 36.2999 33.9284 34.8206V25.8921C33.9284 25.399 33.5287 24.9993 33.0356 24.9993Z" fill="url(#paint1_linear_2216_10335)" stroke="url(#paint2_linear_2216_10335)" stroke-width="0.5"/>
<path d="M36.4992 13.5012C35.8581 12.86 34.9886 12.4999 34.0819 12.5C33.1747 12.4974 32.3043 12.8582 31.665 13.5018L19.9043 25.2614C19.8067 25.3597 19.7331 25.4792 19.6891 25.6105L17.9034 30.9676C17.7476 31.4354 18.0005 31.941 18.4684 32.0968C18.5591 32.127 18.6542 32.1425 18.7498 32.1426C18.8457 32.1424 18.9409 32.127 19.032 32.0971L24.3891 30.3114C24.5207 30.2674 24.6402 30.1935 24.7382 30.0953L36.4988 18.3348C37.8336 17.0001 37.8338 14.836 36.4992 13.5012ZM35.2363 17.0731L23.6293 28.6801L20.1614 29.8381L21.3159 26.3748L32.9274 14.7678C33.5657 14.1307 34.5998 14.1318 35.2369 14.7701C35.5412 15.0751 35.7127 15.4879 35.714 15.9187C35.7151 16.3518 35.5431 16.7674 35.2363 17.0731Z" fill="url(#paint3_linear_2216_10335)" stroke="url(#paint4_linear_2216_10335)" stroke-width="0.5"/>
<defs>
<linearGradient id="paint0_linear_2216_10335" x1="50.3412" y1="7.61396e-06" x2="-1.65846" y2="1.7888" gradientUnits="userSpaceOnUse">
<stop stop-color="#5961F8"/>
<stop offset="1" stop-color="#15D8C5"/>
<stop offset="1" stop-color="#15D8C5"/>
</linearGradient>
<linearGradient id="paint1_linear_2216_10335" x1="34.0746" y1="14.2852" x2="11.7853" y2="14.9929" gradientUnits="userSpaceOnUse">
<stop stop-color="#5961F8"/>
<stop offset="1" stop-color="#15D8C5"/>
<stop offset="1" stop-color="#15D8C5"/>
</linearGradient>
<linearGradient id="paint2_linear_2216_10335" x1="34.0746" y1="14.2852" x2="11.7853" y2="14.9929" gradientUnits="userSpaceOnUse">
<stop stop-color="#5961F8"/>
<stop offset="1" stop-color="#15D8C5"/>
<stop offset="1" stop-color="#15D8C5"/>
</linearGradient>
<linearGradient id="paint3_linear_2216_10335" x1="37.6341" y1="12.5" x2="17.2059" y2="13.2027" gradientUnits="userSpaceOnUse">
<stop stop-color="#5961F8"/>
<stop offset="1" stop-color="#15D8C5"/>
<stop offset="1" stop-color="#15D8C5"/>
</linearGradient>
<linearGradient id="paint4_linear_2216_10335" x1="37.6341" y1="12.5" x2="17.2059" y2="13.2027" gradientUnits="userSpaceOnUse">
<stop stop-color="#5961F8"/>
<stop offset="1" stop-color="#15D8C5"/>
<stop offset="1" stop-color="#15D8C5"/>
</linearGradient>
</defs>
</svg>
