<svg width="50" height="50" viewBox="0 0 50 50" fill="none" xmlns="http://www.w3.org/2000/svg">
<ellipse cx="25" cy="25" rx="25" ry="25" fill="url(#paint0_linear_2216_10321)"/>
<g clip-path="url(#clip0_2216_10321)">
<path d="M24.1966 12.5C18.3736 12.5 13.6362 17.2374 13.6362 23.0604C13.6362 28.8834 18.3736 33.6207 24.1966 33.6207C30.0196 33.6207 34.757 28.8834 34.757 23.0604C34.757 17.2374 30.0195 12.5 24.1966 12.5ZM24.1966 31.7734C19.3921 31.7734 15.4835 27.8649 15.4835 23.0604C15.4835 18.2559 19.3921 14.3473 24.1966 14.3473C29.0008 14.3473 32.9096 18.2559 32.9096 23.0604C32.9096 27.8649 29.0011 31.7734 24.1966 31.7734Z" fill="white" stroke="white"/>
<path d="M38.3657 35.9239L31.6538 29.212C31.293 28.8512 30.7086 28.8512 30.3478 29.212C29.9869 29.5726 29.9869 30.1575 30.3478 30.5181L37.0596 37.2299C37.2401 37.4103 37.4762 37.5005 37.7127 37.5005C37.9492 37.5005 38.1853 37.4103 38.3657 37.2299C38.7265 36.8694 38.7265 36.2844 38.3657 35.9239Z" fill="white" stroke="white"/>
</g>
<defs>
<linearGradient id="paint0_linear_2216_10321" x1="50.3412" y1="7.61396e-06" x2="-1.65846" y2="1.7888" gradientUnits="userSpaceOnUse">
<stop stop-color="#5961F8"/>
<stop offset="1" stop-color="#15D8C5"/>
<stop offset="1" stop-color="#15D8C5"/>
</linearGradient>
<clipPath id="clip0_2216_10321">
<rect width="27.2727" height="27.2727" fill="white" transform="translate(12.5 11.3633)"/>
</clipPath>
</defs>
</svg>
