<svg width="36" height="36" viewBox="0 0 36 36" fill="none" xmlns="http://www.w3.org/2000/svg">
<g id="Background">
<g id="Icon">
<g id="Group">
<path id="Vector" fill-rule="evenodd" clip-rule="evenodd" d="M34.4988 15.0628C34.4988 12.9686 32.6094 11.2715 30.2779 11.2715H14.929C12.5975 11.2715 10.708 12.9686 10.708 15.0628V28.8492C10.708 30.9434 12.5975 32.6405 14.929 32.6405H30.2779C32.6094 32.6405 34.4988 30.9434 34.4988 28.8492V15.0628ZM32.1965 15.0628V28.8492C32.1965 29.8005 31.3369 30.5725 30.2779 30.5725H14.929C13.8699 30.5725 13.0103 29.8005 13.0103 28.8492V15.0628C13.0103 14.1115 13.8699 13.3395 14.929 13.3395H30.2779C31.3369 13.3395 32.1965 14.1115 32.1965 15.0628Z" fill="#1C3048"/>
<path id="Vector_2" fill-rule="evenodd" clip-rule="evenodd" d="M9.17446 20.3181L4.77085 24.2735C5.0763 24.3369 5.39402 24.37 5.72095 24.37H9.17446V20.3181ZM9.65488 12.9934L1.5 20.3181V20.5787C1.5 21.6044 1.95279 22.535 2.68954 23.2174L9.17446 17.3926V15.0641C9.17446 14.3279 9.34636 13.6262 9.65488 12.9934ZM17.5227 3.00098L1.5 17.3926V13.4249L13.1053 3.00098H17.5227ZM9.84827 3.00098H5.72095C3.38945 3.00098 1.5 4.69809 1.5 6.79225V10.4994L9.84827 3.00098ZM12.6249 10.3257C13.3294 10.0486 14.1107 9.8942 14.9303 9.8942H17.5227L24.0076 4.06943C23.2479 3.40768 22.2118 3.00098 21.0699 3.00098H20.7798L12.6249 10.3257ZM20.7798 9.8942H25.2908V6.79225C25.2908 6.4986 25.254 6.21322 25.1834 5.93887L20.7798 9.8942Z" fill="#1C3048"/>
</g>
</g>
</g>
</svg>
