<svg width="60" height="60" viewBox="0 0 60 60" fill="none" xmlns="http://www.w3.org/2000/svg">
<circle opacity="0.3" cx="30" cy="30" r="30" fill="#1C3048"/>
<g clip-path="url(#clip0_27_9435)">
<path d="M46.8598 29.98C46.8598 34.4887 45.0688 38.8127 41.8807 42.0008C38.6925 45.1889 34.3685 46.98 29.8598 46.98C7.36985 46.06 7.36984 13.89 29.8898 13C34.3985 13 38.7225 14.7911 41.9107 17.9792C45.0988 21.1673 46.8898 25.4913 46.8898 30L46.8598 29.98Z" stroke="white" stroke-width="1.5" stroke-miterlimit="10" stroke-dasharray="1.97 1.97"/>
<path d="M29.8911 43.25C37.2199 43.25 43.1611 37.3088 43.1611 29.98C43.1611 22.6511 37.2199 16.71 29.8911 16.71C22.5623 16.71 16.6211 22.6511 16.6211 29.98C16.6211 37.3088 22.5623 43.25 29.8911 43.25Z" stroke="white" stroke-width="1.5" stroke-miterlimit="10"/>
<path d="M20.1258 32H23.4858V30.976H21.3418V26.608H20.1258V32ZM26.2751 26.512C24.6911 26.512 23.6511 27.72 23.6511 29.336C23.6511 30.88 24.5951 32.088 26.1871 32.088C27.7711 32.088 28.8351 31.024 28.8351 29.248C28.8351 27.752 27.9311 26.512 26.2751 26.512ZM26.2511 27.48C27.0911 27.48 27.5471 28.312 27.5471 29.288C27.5471 30.336 27.0751 31.12 26.2511 31.12C25.4351 31.12 24.9391 30.376 24.9391 29.312C24.9391 28.264 25.4191 27.48 26.2511 27.48ZM34.1375 28.912H32.1295V29.864H32.9615V31C32.8655 31.04 32.6415 31.072 32.3695 31.072C31.3695 31.072 30.6655 30.424 30.6655 29.304C30.6655 28.128 31.4415 27.56 32.4575 27.56C33.0495 27.56 33.4095 27.656 33.7055 27.792L33.9615 26.808C33.6975 26.688 33.1615 26.552 32.4655 26.552C30.6975 26.552 29.3935 27.576 29.3855 29.368C29.3855 30.16 29.6575 30.864 30.1455 31.336C30.6415 31.808 31.3535 32.056 32.3375 32.056C33.0495 32.056 33.7615 31.88 34.1375 31.752V28.912ZM37.4626 26.512C35.8786 26.512 34.8386 27.72 34.8386 29.336C34.8386 30.88 35.7826 32.088 37.3746 32.088C38.9586 32.088 40.0226 31.024 40.0226 29.248C40.0226 27.752 39.1186 26.512 37.4626 26.512ZM37.4386 27.48C38.2786 27.48 38.7346 28.312 38.7346 29.288C38.7346 30.336 38.2626 31.12 37.4386 31.12C36.6226 31.12 36.1266 30.376 36.1266 29.312C36.1266 28.264 36.6066 27.48 37.4386 27.48Z" fill="white"/>
</g>
<defs>
<clipPath id="clip0_27_9435">
<rect width="34.86" height="34.95" fill="white" transform="translate(12.5 12.5)"/>
</clipPath>
</defs>
</svg>
