<svg width="20" height="20" viewBox="0 0 20 20" fill="none" xmlns="http://www.w3.org/2000/svg">
<g clip-path="url(#clip0_27_9365)">
<path fill-rule="evenodd" clip-rule="evenodd" d="M15.2722 0.476388C15.1901 0.503732 15.0612 0.7342 14.5612 1.7342C14.0612 2.7342 13.9323 2.96076 13.8581 2.98029C13.8073 2.99201 13.2136 3.07795 12.5378 3.16779C11.3581 3.33186 11.3034 3.33967 11.2019 3.44123C10.9831 3.65608 10.9948 3.6717 12.0769 4.72639L13.0612 5.68733L12.8386 6.97639C12.7136 7.68342 12.6159 8.31623 12.6159 8.38264C12.6159 8.52326 12.7097 8.62092 12.8737 8.65217C12.9675 8.6717 13.2019 8.56233 14.1901 8.05061L15.3972 7.42561L16.5964 8.0467C17.2565 8.39045 17.8347 8.6717 17.8854 8.6717C17.9323 8.6717 18.0261 8.61701 18.0925 8.55451C18.1823 8.46076 18.2019 8.41389 18.1862 8.32795C18.1745 8.26936 18.0651 7.65217 17.944 6.95686L17.7214 5.68733L18.7136 4.72639L19.7019 3.76545L19.6667 3.6092C19.6394 3.50764 19.5964 3.44123 19.53 3.40998C19.4753 3.38654 18.8464 3.27717 18.1276 3.16389C17.4089 3.05451 16.8151 2.96076 16.8112 2.95686C16.8086 2.95422 16.6921 2.71496 16.5218 2.36515L16.2448 1.7967C15.9401 1.16389 15.655 0.605294 15.612 0.562325C15.5261 0.460763 15.405 0.429513 15.2722 0.476388ZM5.36017 1.48429C4.30158 1.6757 3.46564 2.44132 3.18048 3.48038C3.08673 3.80851 3.08673 4.56241 3.17658 4.9296C3.32111 5.52726 3.65705 6.20304 4.02423 6.64054L4.1883 6.83585L4.17267 7.27726C4.16095 7.69523 4.15314 7.73038 4.05158 7.8632C3.85236 8.12491 3.79376 8.14054 2.8133 8.16398C2.04376 8.18351 1.90705 8.19913 1.70783 8.27335C1.11798 8.4882 0.664858 8.94132 0.430483 9.5507C0.348451 9.75773 0.336733 9.8671 0.321108 10.496C0.309389 11.078 0.317201 11.246 0.371889 11.4335C0.539858 12.0194 1.03205 12.4609 1.64142 12.578C1.77033 12.6015 3.18439 12.6171 5.41876 12.6171C8.23908 12.6171 8.98908 12.6288 9.0008 12.664C9.00497 12.6786 9.01361 12.7222 9.02493 12.7794C9.03478 12.8291 9.04666 12.8891 9.05939 12.9491C9.11798 13.2773 9.34455 13.7109 9.59064 13.9765C9.95392 14.3671 10.4305 14.5976 10.9774 14.6444L11.2703 14.6679L11.2938 14.8241C11.3055 14.9101 11.3445 15.0312 11.3758 15.0976C11.411 15.1601 12.3953 16.1679 13.5633 17.3319C15.0281 18.7968 15.7274 19.4687 15.8289 19.5116C16.0281 19.5937 16.2742 19.5859 16.4617 19.4921C16.6844 19.3866 19.5477 16.5155 19.6297 16.3202C19.7117 16.121 19.7039 15.8398 19.6102 15.6484C19.5008 15.4179 15.3875 11.3163 15.1766 11.2226C15.0438 11.164 14.8719 11.1523 13.9774 11.1405L12.9344 11.1249L12.8328 10.9921C12.5789 10.6601 11.95 10.3398 11.45 10.289L11.4474 10.2887C11.2156 10.2616 11.2117 10.2612 11.2117 10.1405C11.2117 9.92179 11.0945 9.52335 10.9539 9.25382C10.7117 8.79679 10.2742 8.41398 9.78595 8.2382C9.58283 8.16398 9.4383 8.14835 8.6922 8.12882C7.74298 8.10148 7.66486 8.08195 7.49298 7.84366C7.41486 7.73038 7.40314 7.66007 7.39142 7.27726L7.3758 6.83585L7.53595 6.65616C8.27423 5.81632 8.64142 4.52335 8.40314 3.59757C8.35626 3.41788 8.28595 3.18741 8.24689 3.08585C8.08673 2.66398 7.49298 2.00382 7.11408 1.83585L7.06023 1.8101C6.9744 1.7691 6.88175 1.72486 6.83673 1.69913C6.48517 1.51554 5.77423 1.41007 5.36017 1.48429ZM7.15705 4.01163L7.88751 4.27726L7.86798 4.45304C7.77033 5.25773 7.3172 6.12101 6.74689 6.59366C6.39923 6.87882 6.16876 6.97257 5.78205 6.97257C5.48908 6.97257 5.41876 6.95695 5.19611 6.85148C4.86408 6.69523 4.54376 6.39445 4.28205 5.99991C4.09845 5.72257 3.86798 5.27726 3.86798 5.19913C3.86798 5.18351 4.03205 5.16788 4.23126 5.16788C4.66095 5.16788 5.12189 5.02726 5.48126 4.78898C5.76251 4.60148 6.1297 4.20304 6.2508 3.94913C6.30548 3.83976 6.36798 3.75382 6.38751 3.74991C6.41095 3.74991 6.7547 3.8671 7.15705 4.01163ZM5.53986 7.58195C5.86798 7.63663 6.23908 7.58585 6.55939 7.43741C6.67267 7.38663 6.77423 7.34366 6.78205 7.34366C6.78986 7.34366 6.79767 7.44523 6.79767 7.56632C6.79767 7.78898 6.92658 8.16007 7.02814 8.21866C7.10626 8.26945 7.07111 8.31632 6.86798 8.43741C6.27814 8.77726 5.57111 8.80851 4.92658 8.52726C4.80939 8.47648 4.65705 8.40226 4.58673 8.35538L4.45783 8.27726L4.57111 8.10148C4.68439 7.92179 4.76642 7.63663 4.76642 7.42179V7.30851L5.01642 7.42179C5.15705 7.48429 5.39142 7.55851 5.53986 7.58195ZM11.8172 11.0546L12.0516 11.1601L11.8836 11.2069C11.6766 11.2655 11.4539 11.4569 11.3641 11.6601C11.2977 11.8007 11.2899 11.9374 11.2899 12.9257V14.0351L11.0672 14.0116C10.7117 13.9804 10.4188 13.8476 10.157 13.6054C9.90705 13.3749 9.70783 13.0312 9.66486 12.7499L9.64142 12.5898L9.8758 12.5429C10.6258 12.3944 11.2039 11.7343 11.2117 11.0234V10.8944L11.3992 10.9179C11.5008 10.9335 11.6883 10.9921 11.8172 11.0546ZM14.325 11.7929L14.9227 11.8163L17.0125 13.9062C18.161 15.0546 19.1024 16.0194 19.1024 16.0546C19.1024 16.1444 16.243 18.9843 16.1531 18.9843C16.1024 18.9882 15.3836 18.289 13.9969 16.8866C12.036 14.9062 11.9149 14.7773 11.9188 14.6484C11.9188 14.5194 11.9305 14.5038 12.1883 14.3827C12.3328 14.3124 12.5399 14.1796 12.6453 14.0859C12.8211 13.9257 12.8524 13.914 12.9969 13.9335C13.243 13.9648 13.5555 13.8554 13.7508 13.6679C14.3875 13.0507 14.032 12.0351 13.1492 11.9648C12.743 11.9296 12.3992 12.1327 12.2117 12.5077C12.0555 12.8202 12.0789 13.2069 12.2742 13.4843L12.3485 13.5898L12.1414 13.7304L11.9344 13.8671L11.911 13.371C11.8953 13.0937 11.8836 12.664 11.8797 12.4101C11.8758 11.9687 11.8797 11.9452 11.9735 11.8554L12.0672 11.7577L12.8992 11.7616C13.3563 11.7655 14.0008 11.7773 14.325 11.7929ZM13.4383 12.9296C13.4383 13.039 13.411 13.1132 13.3367 13.1913L13.2352 13.3007L13.2586 13.203C13.2727 13.1538 13.2963 13.0474 13.318 12.9497L13.325 12.9179C13.3719 12.703 13.4383 12.7109 13.4383 12.9296ZM13.6451 15.4647C13.6607 15.4139 14.0865 14.9529 14.6021 14.4412C15.3912 13.6561 15.5474 13.5154 15.6451 13.5154C15.7466 13.5115 15.9107 13.6678 16.9029 14.6756C17.9537 15.7459 18.0435 15.8514 18.0474 15.9764C18.0474 16.1014 17.981 16.1795 17.1373 17.0194C16.3209 17.8397 16.2154 17.9295 16.1021 17.9295C15.9849 17.9295 15.8599 17.8201 14.8521 16.8319C14.2349 16.2303 13.7076 15.6951 13.6763 15.6483C13.6451 15.5975 13.6334 15.5154 13.6451 15.4647Z" fill="url(#paint0_linear_27_9365)"/>
</g>
<defs>
<linearGradient id="paint0_linear_27_9365" x1="19.8341" y1="0.455081" x2="-0.325911" y2="1.15847" gradientUnits="userSpaceOnUse">
<stop stop-color="#21C2CE"/>
<stop offset="1" stop-color="#15D8C5"/>
<stop offset="1" stop-color="#15D7C5"/>
</linearGradient>
<clipPath id="clip0_27_9365">
<rect width="20" height="20" fill="white"/>
</clipPath>
</defs>
</svg>
