<svg width="20" height="20" viewBox="0 0 20 20" fill="none" xmlns="http://www.w3.org/2000/svg">
<g clip-path="url(#clip0_27_9365)">
<path d="M15.2761 0.476562C15.194 0.503906 15.0651 0.734375 14.5651 1.73438C14.0651 2.73438 13.9362 2.96094 13.862 2.98047C13.8112 2.99219 13.2175 3.07812 12.5417 3.16797C11.362 3.33203 11.3073 3.33984 11.2058 3.44141C10.987 3.65625 10.9987 3.67188 12.0808 4.72656L13.0651 5.6875L12.8425 6.97656C12.7175 7.68359 12.6198 8.31641 12.6198 8.38281C12.6198 8.52344 12.7136 8.62109 12.8776 8.65234C12.9714 8.67188 13.2058 8.5625 14.194 8.05078L15.4011 7.42578L16.6003 8.04688C17.2604 8.39062 17.8386 8.67188 17.8894 8.67188C17.9362 8.67188 18.03 8.61719 18.0964 8.55469C18.1862 8.46094 18.2058 8.41406 18.1901 8.32812C18.1784 8.26953 18.069 7.65234 17.9479 6.95703L17.7253 5.6875L18.7175 4.72656L19.7058 3.76562L19.6706 3.60938C19.6433 3.50781 19.6003 3.44141 19.5339 3.41016C19.4792 3.38672 18.8503 3.27734 18.1315 3.16406C17.4128 3.05469 16.819 2.96094 16.8151 2.95703C16.8112 2.95312 16.5573 2.42969 16.2487 1.79688C15.944 1.16406 15.6589 0.605469 15.6159 0.5625C15.53 0.460938 15.4089 0.429688 15.2761 0.476562Z" fill="#D5D8E3"/>
<path d="M5.36017 1.48446C4.30158 1.67587 3.46564 2.4415 3.18048 3.48056C3.08673 3.80868 3.08673 4.56259 3.17658 4.92978C3.32111 5.52743 3.65705 6.20321 4.02423 6.64071L4.1883 6.83603L4.17267 7.27743C4.16095 7.6954 4.15314 7.73056 4.05158 7.86337C3.85236 8.12509 3.79376 8.14071 2.8133 8.16415C2.04376 8.18368 1.90705 8.19931 1.70783 8.27353C1.11798 8.48837 0.664858 8.9415 0.430483 9.55087C0.348451 9.7579 0.336733 9.86728 0.321108 10.4962C0.309389 11.0782 0.317201 11.2462 0.371889 11.4337C0.539858 12.0196 1.03205 12.461 1.64142 12.5782C1.77033 12.6017 3.18439 12.6173 5.41876 12.6173C8.23908 12.6173 8.98908 12.629 9.0008 12.6642C9.00861 12.6915 9.03205 12.8204 9.05939 12.9493C9.11798 13.2774 9.34455 13.711 9.59064 13.9767C9.95392 14.3673 10.4305 14.5977 10.9774 14.6446L11.2703 14.6681L11.2938 14.8243C11.3055 14.9102 11.3445 15.0313 11.3758 15.0977C11.411 15.1602 12.3953 16.1681 13.5633 17.3321C15.0281 18.797 15.7274 19.4688 15.8289 19.5118C16.0281 19.5938 16.2742 19.586 16.4617 19.4923C16.6844 19.3868 19.5477 16.5157 19.6297 16.3204C19.7117 16.1212 19.7039 15.8399 19.6102 15.6485C19.5008 15.4181 15.3875 11.3165 15.1766 11.2227C15.0438 11.1642 14.8719 11.1524 13.9774 11.1407L12.9344 11.1251L12.8328 10.9923C12.5789 10.6602 11.95 10.3399 11.45 10.2892C11.2156 10.2618 11.2117 10.2618 11.2117 10.1407C11.2117 9.92196 11.0945 9.52353 10.9539 9.254C10.7117 8.79696 10.2742 8.41415 9.78595 8.23837C9.58283 8.16415 9.4383 8.14853 8.6922 8.129C7.74298 8.10165 7.66486 8.08212 7.49298 7.84384C7.41486 7.73056 7.40314 7.66025 7.39142 7.27743L7.3758 6.83603L7.53595 6.65634C8.27423 5.8165 8.64142 4.52353 8.40314 3.59775C8.35626 3.41806 8.28595 3.18759 8.24689 3.08603C8.08673 2.66415 7.49298 2.004 7.11408 1.83603C7.01642 1.78915 6.89142 1.73056 6.83673 1.69931C6.48517 1.51571 5.77423 1.41025 5.36017 1.48446ZM7.15705 4.01181L7.88751 4.27743L7.86798 4.45321C7.77033 5.2579 7.3172 6.12118 6.74689 6.59384C6.39923 6.879 6.16876 6.97275 5.78205 6.97275C5.48908 6.97275 5.41876 6.95712 5.19611 6.85165C4.86408 6.6954 4.54376 6.39462 4.28205 6.00009C4.09845 5.72275 3.86798 5.27743 3.86798 5.19931C3.86798 5.18368 4.03205 5.16806 4.23126 5.16806C4.66095 5.16806 5.12189 5.02743 5.48126 4.78915C5.76251 4.60165 6.1297 4.20321 6.2508 3.94931C6.30548 3.83993 6.36798 3.754 6.38751 3.75009C6.41095 3.75009 6.7547 3.86728 7.15705 4.01181ZM5.53986 7.58212C5.86798 7.63681 6.23908 7.58603 6.55939 7.43759C6.67267 7.38681 6.77423 7.34384 6.78205 7.34384C6.78986 7.34384 6.79767 7.4454 6.79767 7.5665C6.79767 7.78915 6.92658 8.16025 7.02814 8.21884C7.10626 8.26962 7.07111 8.3165 6.86798 8.43759C6.27814 8.77743 5.57111 8.80868 4.92658 8.52743C4.80939 8.47665 4.65705 8.40243 4.58673 8.35556L4.45783 8.27743L4.57111 8.10165C4.68439 7.92196 4.76642 7.63681 4.76642 7.42196V7.30868L5.01642 7.42196C5.15705 7.48446 5.39142 7.55868 5.53986 7.58212ZM11.8172 11.0548L12.0516 11.1602L11.8836 11.2071C11.6766 11.2657 11.4539 11.4571 11.3641 11.6602C11.2977 11.8009 11.2899 11.9376 11.2899 12.9259V14.0352L11.0672 14.0118C10.7117 13.9806 10.4188 13.8477 10.157 13.6056C9.90705 13.3751 9.70783 13.0313 9.66486 12.7501L9.64142 12.5899L9.8758 12.5431C10.6258 12.3946 11.2039 11.7345 11.2117 11.0235V10.8946L11.3992 10.9181C11.5008 10.9337 11.6883 10.9923 11.8172 11.0548ZM14.325 11.7931L14.9227 11.8165L17.0125 13.9063C18.161 15.0548 19.1024 16.0196 19.1024 16.0548C19.1024 16.1446 16.243 18.9845 16.1531 18.9845C16.1024 18.9884 15.3836 18.2892 13.9969 16.8868C12.036 14.9063 11.9149 14.7774 11.9188 14.6485C11.9188 14.5196 11.9305 14.504 12.1883 14.3829C12.3328 14.3126 12.5399 14.1798 12.6453 14.086C12.8211 13.9259 12.8524 13.9142 12.9969 13.9337C13.243 13.9649 13.5555 13.8556 13.7508 13.6681C14.3875 13.0509 14.032 12.0352 13.1492 11.9649C12.743 11.9298 12.3992 12.1329 12.2117 12.5079C12.0555 12.8204 12.0789 13.2071 12.2742 13.4845L12.3485 13.5899L12.1414 13.7306L11.9344 13.8673L11.911 13.3712C11.8953 13.0938 11.8836 12.6642 11.8797 12.4102C11.8758 11.9688 11.8797 11.9454 11.9735 11.8556L12.0672 11.7579L12.8992 11.7618C13.3563 11.7657 14.0008 11.7774 14.325 11.7931ZM13.4383 12.9298C13.4383 13.0392 13.411 13.1134 13.3367 13.1915L13.2352 13.3009L13.2586 13.2032C13.2742 13.1485 13.3016 13.0235 13.325 12.9181C13.3719 12.7032 13.4383 12.711 13.4383 12.9298Z" fill="#ABB2C7"/>
<path d="M14.6021 14.4414C14.0865 14.9531 13.6607 15.4141 13.6451 15.4648C13.6334 15.5156 13.6451 15.5977 13.6763 15.6484C13.7076 15.6953 14.2349 16.2305 14.8521 16.832C15.8599 17.8203 15.9849 17.9297 16.1021 17.9297C16.2154 17.9297 16.3209 17.8398 17.1373 17.0195C17.981 16.1797 18.0474 16.1016 18.0474 15.9766C18.0435 15.8516 17.9537 15.7461 16.9029 14.6758C15.9107 13.668 15.7466 13.5117 15.6451 13.5156C15.5474 13.5156 15.3912 13.6562 14.6021 14.4414Z" fill="#D5D8E3"/>
</g>
<defs>
<clipPath id="clip0_27_9365">
<rect width="20" height="20" fill="white"/>
</clipPath>
</defs>
</svg>
