<svg width="20" height="20" viewBox="0 0 20 20" fill="none" xmlns="http://www.w3.org/2000/svg">
<g clip-path="url(#clip0_27_9356)">
<path d="M16.3573 14.7307L13.7842 17.8654C13.6908 17.9795 13.5344 18.0168 13.4017 17.9627C13.2667 17.9079 13.1826 17.772 13.1943 17.6267L13.5245 13.5725C13.5332 13.4648 13.6442 13.2541 16.6442 5.81842V3.2281C16.6442 2.38504 15.9581 1.69873 15.1149 1.69873H13.3199V1.81259C13.3199 2.36698 12.8687 2.81806 12.3144 2.81806H6.64268C6.08798 2.81806 5.63674 2.36683 5.63674 1.81259V1.69888H2.85359C2.01053 1.69888 1.32422 2.38503 1.32422 3.22825V19.0502C1.32422 19.8933 2.01037 20.5796 2.85359 20.5796H15.115C15.9581 20.5796 16.6444 19.8934 16.6444 19.0502L16.6442 14.0769C16.4117 14.633 16.4314 14.648 16.3574 14.7309L16.3573 14.7307ZM3.61876 4.28976H13.5268C13.711 4.28976 13.8601 4.43882 13.8601 4.62307C13.8601 4.80732 13.711 4.95637 13.5268 4.95637L3.61876 4.95652C3.4345 4.95652 3.28545 4.80746 3.28545 4.62322C3.28545 4.43897 3.43451 4.28976 3.61876 4.28976ZM3.61876 7.54761H13.5268C13.711 7.54761 13.8601 7.69666 13.8601 7.88091C13.8601 8.06516 13.711 8.21421 13.5268 8.21421L3.61876 8.21436C3.4345 8.21436 3.28545 8.06531 3.28545 7.88106C3.28545 7.69666 3.43451 7.54761 3.61876 7.54761ZM11.6736 17.987H3.61876C3.4345 17.987 3.28545 17.8379 3.28545 17.6537C3.28545 17.4694 3.43451 17.3204 3.61876 17.3204H11.6736C11.8578 17.3204 12.0069 17.4694 12.0069 17.6537C12.007 17.8378 11.8578 17.987 11.6736 17.987ZM11.6736 14.7294H3.61876C3.4345 14.7294 3.28545 14.5804 3.28545 14.3961C3.28545 14.2119 3.43451 14.0628 3.61876 14.0628H11.6736C11.8578 14.0628 12.0069 14.2119 12.0069 14.3961C12.007 14.5804 11.8578 14.7294 11.6736 14.7294ZM12.7654 11.4716H3.61895C3.4347 11.4716 3.28564 11.3225 3.28564 11.1383C3.28564 10.954 3.4347 10.805 3.61895 10.805H12.7654C12.9496 10.805 13.0987 10.954 13.0987 11.1383C13.0987 11.3225 12.9496 11.4716 12.7654 11.4716Z" fill="#ABB2C7"/>
<path d="M6.64386 2.1518H12.3156C12.5024 2.1518 12.6545 1.99974 12.6545 1.81293V0.918462C12.6545 0.731653 12.5024 0.57959 12.3156 0.57959H6.64386C6.45675 0.57959 6.30469 0.731653 6.30469 0.918462V1.81293C6.30469 1.99974 6.4566 2.1518 6.64386 2.1518Z" fill="#ABB2C7"/>
<path d="M19.2488 5.15138C19.1574 4.93584 18.9871 4.76859 18.7699 4.68058C18.5532 4.59274 18.3145 4.595 18.0989 4.68615C17.8834 4.77759 17.7161 4.94786 17.6281 5.16507L17.5078 5.46769L17.907 5.62983L19.1334 6.12589L19.2535 5.82432C19.3422 5.60547 19.34 5.36723 19.2488 5.15138Z" fill="#D5D8E3"/>
<path d="M17.2551 6.08545L14.2891 13.4133L15.9247 14.0757C16.615 12.367 18.1404 8.59068 18.8854 6.74631L17.9847 6.38051L17.2551 6.08545Z" fill="#D5D8E3"/>
<path d="M14.1524 14.0767L13.9453 16.6181L15.5628 14.6478L14.1524 14.0767Z" fill="#D5D8E3"/>
</g>
<defs>
<clipPath id="clip0_27_9356">
<rect width="20" height="20" fill="white"/>
</clipPath>
</defs>
</svg>
