<svg width="20" height="20" viewBox="0 0 20 20" fill="none" xmlns="http://www.w3.org/2000/svg">
<g clip-path="url(#clip0_27_9356)">
<path fill-rule="evenodd" clip-rule="evenodd" d="M6.63995 2.1518H12.3117C12.4985 2.1518 12.6506 1.99974 12.6506 1.81293V0.918462C12.6506 0.731653 12.4985 0.57959 12.3117 0.57959H6.63995C6.45284 0.57959 6.30078 0.731653 6.30078 0.918462V1.81293C6.30078 1.99974 6.45269 2.1518 6.63995 2.1518ZM16.3573 14.7307L13.7842 17.8654C13.6908 17.9795 13.5344 18.0168 13.4017 17.9627C13.2667 17.9079 13.1826 17.772 13.1943 17.6267L13.5245 13.5725C13.5295 13.5102 13.5688 13.4133 14.1829 11.9006L14.183 11.9004L14.183 11.9003L14.1833 11.8998L14.1838 11.8984L14.1841 11.8978C14.631 10.7969 15.3818 8.94732 16.6442 5.81842V3.2281C16.6442 2.38504 15.9581 1.69873 15.1149 1.69873H13.3199V1.81259C13.3199 2.36698 12.8687 2.81806 12.3144 2.81806H6.64268C6.08798 2.81806 5.63674 2.36683 5.63674 1.81259V1.69888H2.85359C2.01053 1.69888 1.32422 2.38503 1.32422 3.22825V19.0502C1.32422 19.8933 2.01037 20.5796 2.85359 20.5796H15.115C15.9581 20.5796 16.6444 19.8934 16.6444 19.0502L16.6442 14.0769C16.5558 14.2884 16.5039 14.4216 16.4694 14.5101C16.4131 14.6542 16.4033 14.6796 16.3574 14.7309L16.3573 14.7307ZM3.61876 4.28976H13.5268C13.711 4.28976 13.8601 4.43882 13.8601 4.62307C13.8601 4.80732 13.711 4.95637 13.5268 4.95637L3.61876 4.95652C3.4345 4.95652 3.28545 4.80747 3.28545 4.62322C3.28545 4.43897 3.43451 4.28976 3.61876 4.28976ZM3.61876 7.54761H13.5268C13.711 7.54761 13.8601 7.69666 13.8601 7.88091C13.8601 8.06516 13.711 8.21421 13.5268 8.21421L3.61876 8.21436C3.4345 8.21436 3.28545 8.06531 3.28545 7.88106C3.28545 7.69666 3.43451 7.54761 3.61876 7.54761ZM11.6736 17.987H3.61876C3.4345 17.987 3.28545 17.8379 3.28545 17.6537C3.28545 17.4694 3.43451 17.3204 3.61876 17.3204H11.6736C11.8578 17.3204 12.0069 17.4694 12.0069 17.6537C12.007 17.8378 11.8578 17.987 11.6736 17.987ZM11.6736 14.7294H3.61876C3.4345 14.7294 3.28545 14.5804 3.28545 14.3961C3.28545 14.2119 3.43451 14.0628 3.61876 14.0628H11.6736C11.8578 14.0628 12.0069 14.2119 12.0069 14.3961C12.007 14.5804 11.8578 14.7294 11.6736 14.7294ZM12.7654 11.4716H3.61895C3.4347 11.4716 3.28564 11.3225 3.28564 11.1383C3.28564 10.954 3.4347 10.805 3.61895 10.805H12.7654C12.9496 10.805 13.0987 10.954 13.0987 11.1383C13.0987 11.3225 12.9496 11.4716 12.7654 11.4716ZM18.7699 4.68058C18.9871 4.76859 19.1574 4.93584 19.2488 5.15138C19.34 5.36723 19.3422 5.60547 19.2535 5.82432L19.1334 6.12589L17.907 5.62983L17.5078 5.46769L17.6281 5.16507C17.7161 4.94786 17.8834 4.77759 18.0989 4.68615C18.3145 4.595 18.5532 4.59274 18.7699 4.68058ZM17.2551 6.08545L14.2891 13.4133L15.9247 14.0757L18.8854 6.7463L17.9847 6.38051L17.2551 6.08545ZM13.9453 16.6186L14.1524 14.0771L15.5628 14.6483L13.9453 16.6186Z" fill="url(#paint0_linear_27_9356)"/>
</g>
<defs>
<linearGradient id="paint0_linear_27_9356" x1="19.4414" y1="0.579593" x2="0.723142" y2="1.15893" gradientUnits="userSpaceOnUse">
<stop stop-color="#21C2CE"/>
<stop offset="1" stop-color="#15D8C5"/>
<stop offset="1" stop-color="#15D7C5"/>
</linearGradient>
<clipPath id="clip0_27_9356">
<rect width="20" height="20" fill="white"/>
</clipPath>
</defs>
</svg>
