<svg width="36" height="36" viewBox="0 0 36 36" fill="none" xmlns="http://www.w3.org/2000/svg">
<g id="couple 1" clip-path="url(#clip0_2233_14121)">
<g id="Group">
<g id="Group_2">
<path id="Vector" d="M19.7589 9.05076C20.9524 9.05076 25.0299 6.06716 25.0299 3.33256C25.0299 1.82207 23.806 0.000976562 22.2948 0.000976562C21.1434 0.000976562 20.1619 0.715195 19.7589 1.72301C19.3563 0.715195 18.3748 0.000976562 17.2229 0.000976562C15.7123 0.000976562 14.4883 1.82207 14.4883 3.33256C14.4883 6.01146 18.5659 9.05076 19.7589 9.05076Z" fill="#1C3048"/>
</g>
<g id="Group_3">
<path id="Vector_2" d="M9.75973 21.9766C5.322 21.9897 1.75879 25.6557 1.75879 30.0935V34.9515C1.75879 35.5314 2.2289 36.0015 2.8088 36.0015H16.7588C17.3387 36.0015 17.8088 35.5314 17.8088 34.9515V30.0015C17.8088 25.5616 14.2027 21.9635 9.75973 21.9766Z" fill="#1C3048"/>
</g>
<g id="Group_4">
<path id="Vector_3" d="M14.5095 15.1517C14.5095 17.7614 12.3943 19.8767 9.78454 19.8767C7.17479 19.8767 5.05957 17.7614 5.05957 15.1517C5.05957 12.542 7.17479 10.4268 9.78454 10.4268C12.3943 10.4268 14.5095 12.5419 14.5095 15.1517Z" stroke="#1C3048" stroke-width="1.5"/>
</g>
<g id="Group_5">
<path id="Vector_4" d="M26.95 23.6994C22.9548 23.7257 19.7588 27.0395 19.7588 31.0348V34.9515C19.7588 35.5314 20.2289 36.0015 20.8088 36.0015H33.1905C33.7704 36.0015 34.2405 35.5314 34.2405 34.9515V30.9403C34.2405 26.925 30.972 23.6728 26.95 23.6994Z" fill="#1C3048"/>
</g>
<g id="Group_6">
<path id="Vector_5" d="M27 21.731C24.6862 21.731 22.8105 19.8555 22.8105 17.5416C22.8105 15.2271 24.6862 13.3516 27 13.3516C29.3145 13.3516 31.19 15.2271 31.19 17.5416C31.19 19.8554 29.3145 21.731 27 21.731Z" stroke="#1C3048" stroke-width="1.5"/>
</g>
</g>
</g>
<defs>
<clipPath id="clip0_2233_14121">
<rect width="36" height="36" fill="white" transform="translate(0 0.000976562)"/>
</clipPath>
</defs>
</svg>
