<svg width="24" height="24" viewBox="0 0 24 24" fill="none" xmlns="http://www.w3.org/2000/svg">
<g id="customization 1" clip-path="url(#clip0_1234_872)">
<path id="Vector" d="M23.2834 -0.00390625H21.1459C20.75 -0.00390625 20.4292 0.316895 20.4292 0.71277C20.4292 1.10864 20.75 1.42945 21.1459 1.42945H22.5668V2.85035C22.5668 3.24622 22.8878 3.56702 23.2834 3.56702C23.6793 3.56702 24.0001 3.24622 24.0001 2.85035V0.71277C24.0001 0.316895 23.6793 -0.00390625 23.2834 -0.00390625Z" fill="white"/>
<path id="Vector_2" d="M23.2834 12.918C22.8878 12.918 22.5668 13.239 22.5668 13.6346V15.0555H21.1459C20.75 15.0555 20.4292 15.3765 20.4292 15.7722C20.4292 16.1681 20.75 16.4889 21.1459 16.4889H23.2834C23.6793 16.4889 24.0001 16.1681 24.0001 15.7722V13.6346C24.0001 13.239 23.6793 12.918 23.2834 12.918Z" fill="white"/>
<path id="Vector_3" d="M8.22546 3.56702C8.62115 3.56702 8.94214 3.24622 8.94214 2.85035V1.42945H10.363C10.7587 1.42945 11.0797 1.10864 11.0797 0.71277C11.0797 0.316895 10.7587 -0.00390625 10.363 -0.00390625H8.22546C7.82959 -0.00390625 7.50879 0.316895 7.50879 0.71277V2.85035C7.50879 3.24622 7.82959 3.56702 8.22546 3.56702Z" fill="white"/>
<path id="Vector_4" d="M21.8949 11.2622L19.8123 8.03651L20.8002 4.3561C20.9327 3.86266 20.4795 3.4132 19.9889 3.54481L16.3087 4.5327L13.0825 2.45018C12.6535 2.17326 12.0848 2.4676 12.062 2.97711L11.8938 6.78202L8.89022 9.19948C8.4905 9.52207 8.59403 10.1566 9.07376 10.3361L10.8235 10.988L2.51731 19.2941C1.82883 19.9826 1.82629 21.0992 2.51731 21.7902L2.55436 21.8273C2.55486 21.8273 2.55486 21.8273 2.55486 21.8278C3.24284 22.5157 4.36199 22.5157 5.05098 21.8278L13.357 13.5217L14.009 15.2708C14.189 15.7524 14.824 15.8544 15.1451 15.455L17.563 12.4507L21.3679 12.2826C21.8773 12.2608 22.1716 11.6919 21.8949 11.2622ZM4.11435 20.8911C3.94265 21.0632 3.6632 21.0632 3.49099 20.8911L3.45395 20.8541C3.28107 20.681 3.28174 20.4026 3.45395 20.2304L12.1878 11.4965L12.6689 11.6756L12.8486 12.1572L4.11435 20.8911ZM17.2056 11.1413C17.0153 11.1496 16.8384 11.2395 16.7188 11.3876L14.8436 13.7181C14.4052 12.5412 13.8041 10.9298 13.8041 10.9298C13.7371 10.7497 13.5949 10.6079 13.4152 10.5409C13.4152 10.5409 11.8821 9.96899 10.627 9.50143L12.9577 7.62596C13.1055 7.5067 13.1955 7.32976 13.204 7.13945L13.334 4.1888L15.8376 5.80478C15.9948 5.90628 16.1878 5.93622 16.3683 5.88767L19.2237 5.12155L18.4574 7.9768C18.4088 8.15746 18.4388 8.3503 18.5403 8.50745L20.1562 11.011L17.2056 11.1413Z" fill="white"/>
</g>
<defs>
<clipPath id="clip0_1234_872">
<rect width="24" height="24.0001" fill="white"/>
</clipPath>
</defs>
</svg>
