<svg width="20" height="20" viewBox="0 0 20 20" fill="none" xmlns="http://www.w3.org/2000/svg">
<g clip-path="url(#clip0_27_9318)">
<g clip-path="url(#clip1_27_9318)">
<path fill-rule="evenodd" clip-rule="evenodd" d="M0 14.8536V2.96824C0 2.18105 0.312739 1.42606 0.869326 0.869326C1.42606 0.312611 2.18105 0 2.96839 0H8.8251V17.8218H2.96839C2.18105 17.8218 1.42606 17.5093 0.869326 16.9525C0.312758 16.3958 0 15.6408 0 14.8536ZM6.46127 2.51057C6.46658 2.1637 6.30431 1.83582 6.02565 1.62946L6.02563 1.62925C5.82366 1.48434 5.57676 1.41585 5.32896 1.43599C5.08117 1.45612 4.84867 1.5637 4.67275 1.73948L1.97229 4.43995C1.77578 4.63646 1.66541 4.90293 1.66541 5.18071C1.66541 5.4586 1.77578 5.72508 1.97229 5.92158C2.16876 6.11808 2.43523 6.22846 2.71316 6.22846C2.99095 6.22846 3.25742 6.11809 3.45392 5.92158L4.36603 5.00948V15.3413C4.36588 15.6192 4.47625 15.8857 4.67276 16.0822C4.86924 16.2787 5.13571 16.3891 5.41363 16.3891C5.69142 16.3891 5.95789 16.2787 6.15439 16.0822C6.35089 15.8857 6.46127 15.6192 6.46127 15.3413V2.51057ZM11.1758 0H17.0323C17.8197 0 18.5747 0.312589 19.1314 0.869326C19.688 1.42606 20.0007 2.18105 20.0007 2.96824V14.8536C20.0007 15.6408 19.688 16.3958 19.1314 16.9525C18.5747 17.5092 17.8197 17.8218 17.0323 17.8218H11.1758V0ZM15.3282 16.0822L18.0287 13.3817L18.0287 13.3819C18.2252 13.1854 18.3356 12.9189 18.3356 12.6412C18.3356 12.3633 18.2252 12.0968 18.0287 11.9003C17.8322 11.7038 17.5658 11.5934 17.2878 11.5934C17.01 11.5934 16.7436 11.7038 16.5471 11.9003V11.9004L15.6351 12.8124V2.48057C15.6351 2.20267 15.5247 1.9362 15.3282 1.73969C15.1318 1.54334 14.8653 1.43281 14.5874 1.43281C14.3096 1.43281 14.0431 1.54319 13.8466 1.73969C13.6501 1.93617 13.5397 2.20264 13.5397 2.48057V15.3113C13.5344 15.6582 13.6967 15.9861 13.9753 16.1924C14.1773 16.3373 14.4242 16.4058 14.672 16.3857C14.9198 16.3655 15.1523 16.258 15.3282 16.0822Z" fill="url(#paint0_linear_27_9318)"/>
</g>
</g>
<defs>
<linearGradient id="paint0_linear_27_9318" x1="20.1372" y1="2.7139e-06" x2="-0.657033" y2="0.80278" gradientUnits="userSpaceOnUse">
<stop stop-color="#21C2CE"/>
<stop offset="1" stop-color="#15D8C5"/>
<stop offset="1" stop-color="#15D7C5"/>
</linearGradient>
<clipPath id="clip0_27_9318">
<rect width="20" height="20" fill="white"/>
</clipPath>
<clipPath id="clip1_27_9318">
<rect width="20" height="20" fill="white"/>
</clipPath>
</defs>
</svg>
