<svg width="20" height="20" viewBox="0 0 20 20" fill="none" xmlns="http://www.w3.org/2000/svg">
<g clip-path="url(#clip0_27_9318)">
<path d="M0 2.96824V14.8536C0 15.6408 0.312758 16.3958 0.869326 16.9525C1.42606 17.5093 2.18105 17.8218 2.96839 17.8218H8.8251V0H2.96839C2.18105 0 1.42606 0.312611 0.869326 0.869326C0.312739 1.42606 0 2.18105 0 2.96824ZM6.02565 1.62946C6.30431 1.83582 6.46658 2.1637 6.46127 2.51057V15.3415V15.3413C6.46127 15.6192 6.35089 15.8857 6.15439 16.0822C5.95789 16.2787 5.69142 16.3891 5.41363 16.3891C5.13571 16.3891 4.86924 16.2787 4.67276 16.0822C4.47625 15.8857 4.36588 15.6192 4.36603 15.3413V5.00948L3.45392 5.92158C3.25742 6.11809 2.99095 6.22846 2.71316 6.22846C2.43523 6.22846 2.16876 6.11808 1.97229 5.92158C1.77578 5.72508 1.66541 5.4586 1.66541 5.18071C1.66541 4.90293 1.77578 4.63646 1.97229 4.43995L4.67275 1.73948C4.84867 1.5637 5.08117 1.45612 5.32896 1.43599C5.57676 1.41585 5.82366 1.48434 6.02563 1.62925L6.02565 1.62946Z" fill="#ABB2C7"/>
<path d="M17.0325 0H11.1758V17.8218H17.0325H17.0323C17.8197 17.8218 18.5747 17.5092 19.1314 16.9525C19.688 16.3958 20.0007 15.6408 20.0007 14.8536V2.96824C20.0007 2.18105 19.688 1.42606 19.1314 0.869326C18.5747 0.312589 17.8197 0 17.0323 0H17.0325ZM18.0287 13.3817L15.3282 16.0822C15.1523 16.258 14.9198 16.3655 14.672 16.3857C14.4242 16.4058 14.1773 16.3373 13.9753 16.1924C13.6967 15.9861 13.5344 15.6582 13.5397 15.3113V2.48042V2.48057C13.5397 2.20264 13.6501 1.93617 13.8466 1.73969C14.0431 1.54319 14.3096 1.43281 14.5874 1.43281C14.8653 1.43281 15.1318 1.54334 15.3282 1.73969C15.5247 1.9362 15.6351 2.20267 15.6351 2.48057V12.8124L16.5471 11.9004V11.9003C16.7436 11.7038 17.01 11.5934 17.2878 11.5934C17.5658 11.5934 17.8322 11.7038 18.0287 11.9003C18.2252 12.0968 18.3356 12.3633 18.3356 12.6412C18.3356 12.9189 18.2252 13.1854 18.0287 13.3819L18.0287 13.3817Z" fill="#D5D8E3"/>
</g>
<defs>
<clipPath id="clip0_27_9318">
<rect width="20" height="20" fill="white"/>
</clipPath>
</defs>
</svg>
