<svg width="36" height="36" viewBox="0 0 36 36" fill="none" xmlns="http://www.w3.org/2000/svg">
<g id="cv 1">
<g id="Group">
<path id="Vector" d="M31.813 5.0375C31.813 2.80625 30.0068 1 27.7756 1H8.22591C5.99469 1 4.18848 2.80625 4.18848 5.0375V30.9625C4.18848 33.1938 5.99469 35 8.22591 35H27.7756C30.0068 35 31.813 33.1938 31.813 30.9625V5.0375ZM29.688 30.9625C29.688 32.025 28.838 32.875 27.7756 32.875H8.22591C7.16342 32.875 6.31344 32.025 6.31344 30.9625V5.0375C6.31344 3.975 7.16342 3.125 8.22591 3.125H27.7756C28.838 3.125 29.688 3.975 29.688 5.0375V30.9625Z" fill="#1C3048"/>
<path id="Vector_2" d="M15.4685 12.7791C16.1787 13.2978 17.0555 13.6004 18.0003 13.6004C20.311 13.6004 22.3229 11.6002 22.3229 9.27773C22.3229 6.8941 20.3839 4.95508 18.0003 4.95508C15.6167 4.95508 13.6777 6.8941 13.6777 9.27773C13.6777 10.7166 14.3817 11.9948 15.4685 12.7791Z" fill="#1C3048"/>
<path id="Vector_3" d="M21.8042 13.3232C20.81 14.2619 19.47 14.8362 18.0003 14.8362C16.5306 14.8362 15.1906 14.2619 14.1964 13.3232C11.6832 14.6818 9.97266 17.3433 9.97266 20.3939C9.97266 20.7335 10.2505 21.0114 10.5902 21.0114H25.4104C25.75 21.0114 26.0279 20.7335 26.0279 20.3939C26.0279 17.3433 24.3174 14.6818 21.8042 13.3232Z" fill="#1C3048"/>
<path id="Vector_4" d="M26.5007 23.3125H9.50096C8.86347 23.3125 8.43848 23.7375 8.43848 24.375C8.43848 25.0125 8.86347 25.4375 9.50096 25.4375H26.5007C27.1381 25.4375 27.5631 25.0125 27.5631 24.375C27.5631 23.7375 27.1381 23.3125 26.5007 23.3125Z" fill="#1C3048"/>
<path id="Vector_5" d="M26.5007 27.5625H9.50096C8.86347 27.5625 8.43848 27.9875 8.43848 28.625C8.43848 29.2625 8.86347 29.6875 9.50096 29.6875H26.5007C27.1381 29.6875 27.5631 29.2625 27.5631 28.625C27.5631 27.9875 27.1381 27.5625 26.5007 27.5625Z" fill="#1C3048"/>
</g>
</g>
</svg>
