<svg width="20" height="20" viewBox="0 0 20 20" fill="none" xmlns="http://www.w3.org/2000/svg">
<path fill-rule="evenodd" clip-rule="evenodd" d="M19.1029 3.29097L16.7109 0.898463L17.1093 0.499976C17.7699 -0.160799 18.8412 -0.160799 19.5018 0.499976C20.1622 1.16055 20.1622 2.23139 19.5018 2.89196L19.1029 3.29097ZM15.6113 1.99463L18.0033 4.38714L11.5005 10.8904L8.33203 11.667L9.10847 8.49783L15.6113 1.99463ZM3 14V3H9C9.55228 3 10 2.55228 10 2C10 1.44772 9.55229 1 9 1H2.5C1.67157 1 1 1.67157 1 2.5V17.5C1 18.3284 1.67157 19 2.5 19H17.5C18.3284 19 19 18.3284 19 17.5V11C19 10.4477 18.5523 9.99999 18 9.99999C17.4477 9.99999 17 10.4477 17 11V14H13.5C12.7254 14 12.112 14.6627 11.5739 15.2441L11.5651 15.2536C11.5309 15.2906 11.497 15.3272 11.4634 15.3632C11.0983 15.755 10.5778 16 10 16C9.42223 16 8.90168 15.755 8.53657 15.3632C8.50865 15.3333 8.48023 15.3026 8.45177 15.2719L8.42584 15.2439C7.88768 14.6623 7.27479 14 6.5 14H3Z" fill="url(#paint0_linear_27_9284)"/>
<defs>
<linearGradient id="paint0_linear_27_9284" x1="20.1268" y1="0.00439742" x2="0.369882" y2="0.684089" gradientUnits="userSpaceOnUse">
<stop stop-color="#21C2CE"/>
<stop offset="1" stop-color="#15D8C5"/>
<stop offset="1" stop-color="#15D7C5"/>
</linearGradient>
</defs>
</svg>
