<svg width="20" height="20" viewBox="0 0 20 20" fill="none" xmlns="http://www.w3.org/2000/svg">
<path d="M19.1029 3.29097L16.7109 0.898463L17.1093 0.499976C17.7699 -0.160799 18.8412 -0.160799 19.5018 0.499976C20.1622 1.16055 20.1622 2.23139 19.5018 2.89196L19.1029 3.29097Z" fill="#D5D8E3"/>
<path d="M15.6113 1.99463L18.0033 4.38714L11.5005 10.8904L8.33203 11.667L9.10847 8.49783L15.6113 1.99463Z" fill="#D5D8E3"/>
<path d="M3 3V14H6.5C7.27479 14 7.88768 14.6623 8.42584 15.2439C8.43448 15.2532 8.44313 15.2625 8.45177 15.2719C8.48023 15.3026 8.50865 15.3333 8.53657 15.3632C8.90168 15.755 9.42223 16 10 16C10.5778 16 11.0983 15.755 11.4634 15.3632C11.497 15.3272 11.5309 15.2906 11.5651 15.2536L11.5739 15.2441C12.112 14.6627 12.7254 14 13.5 14H17V11C17 10.4477 17.4477 9.99999 18 9.99999C18.5523 9.99999 19 10.4477 19 11V17.5C19 18.3284 18.3284 19 17.5 19H2.5C1.67157 19 1 18.3284 1 17.5V2.5C1 1.67157 1.67157 1 2.5 1H9C9.55229 1 10 1.44772 10 2C10 2.55228 9.55228 3 9 3H3Z" fill="#ABB2C7"/>
</svg>
