<svg width="14" height="24" viewBox="0 0 14 24" fill="none" xmlns="http://www.w3.org/2000/svg">
<path d="M4.13059 13.5497C4.03639 13.5497 2.06029 13.5503 1.14889 13.5494C0.679687 13.5491 0.512287 13.3805 0.512287 12.9083C0.511687 11.6954 0.511387 10.4825 0.512287 9.26965C0.512587 8.80345 0.689587 8.62555 1.15279 8.62525C2.06419 8.62465 4.02949 8.62495 4.13059 8.62495C4.13059 8.54185 4.13029 6.79075 4.13059 5.98435C4.13119 4.79215 4.34389 3.65095 4.94959 2.60605C5.56969 1.53655 6.47209 0.803949 7.62859 0.380349C8.36929 0.108849 9.13819 0.000548603 9.92419 -5.13967e-05C10.9076 -0.000651397 11.891 0.000248594 12.8747 0.00204859C13.2974 0.00264859 13.4849 0.189548 13.4858 0.615249C13.4876 1.75615 13.4876 2.89705 13.4858 4.03765C13.4852 4.46785 13.3055 4.64065 12.8732 4.64545C12.0671 4.65415 11.2604 4.64875 10.4552 4.68115C9.64189 4.68115 9.21409 5.07835 9.21409 5.92015C9.19459 6.81055 9.20599 7.70185 9.20599 8.62465C9.28219 8.62465 11.5967 8.62435 12.6785 8.62465C13.1699 8.62465 13.3379 8.79355 13.3379 9.28765C13.3379 10.4939 13.3376 11.7005 13.3367 12.9068C13.3364 13.3937 13.1786 13.5491 12.6842 13.5494C11.6024 13.55 9.29689 13.5497 9.19609 13.5497V23.3132C9.19609 23.8337 9.03229 23.9996 8.51869 23.9996C7.26649 23.9996 6.01399 24 4.76179 23.9996C4.30789 23.9996 4.13089 23.8232 4.13089 23.3694C4.13059 20.1896 4.13059 13.6613 4.13059 13.5497Z" fill="white"/>
</svg>
