<svg width="50" height="50" viewBox="0 0 50 50" fill="none" xmlns="http://www.w3.org/2000/svg">
<circle opacity="0.3" cx="25" cy="25" r="25" fill="#1C3048"/>
<path d="M50 25C50 11.1929 38.8071 0 25 0C11.1929 0 0 11.1929 0 25C0 38.8071 11.1929 50 25 50C38.8071 50 50 38.8071 50 25Z" fill="url(#paint0_linear_634_82)"/>
<g clip-path="url(#clip0_634_82)">
<path d="M31.3753 16.5508H33.242C33.6487 16.5508 34.0514 16.631 34.4271 16.7869C34.8027 16.9428 35.1439 17.1713 35.4311 17.4593C35.7183 17.7472 35.9458 18.089 36.1007 18.4651C36.2556 18.8412 36.3348 19.2441 36.3337 19.6508V27.4424C36.3326 27.629 36.2945 27.8134 36.2215 27.9851C36.1485 28.1567 36.0422 28.3122 35.9087 28.4424L28.467 35.6091C28.2063 35.8579 27.8606 35.9979 27.5003 36.0008H16.7587C15.9387 36.0008 15.1523 35.6751 14.5725 35.0953C13.9927 34.5155 13.667 33.7291 13.667 32.9091V19.6508C13.6659 19.2441 13.7451 18.8412 13.8999 18.4651C14.0548 18.089 14.2824 17.7472 14.5696 17.4593C14.8568 17.1713 15.198 16.9428 15.5736 16.7869C15.9493 16.631 16.352 16.5508 16.7587 16.5508H17.9503" stroke="white" stroke-width="2" stroke-miterlimit="10"/>
<path d="M20.7168 16.5508H28.4668" stroke="white" stroke-width="2" stroke-miterlimit="10"/>
<path d="M19.3008 14.168V19.5346" stroke="white" stroke-width="2" stroke-miterlimit="10" stroke-linecap="round"/>
<path d="M29.9258 14.168V19.5346" stroke="white" stroke-width="2" stroke-miterlimit="10" stroke-linecap="round"/>
<path d="M16.1676 16.668H33.826C34.3984 16.668 34.9474 16.8954 35.3521 17.3001C35.7569 17.7049 35.9843 18.2539 35.9843 18.8263V20.918H14.001V18.7847C14.0119 18.218 14.2453 17.6784 14.6507 17.2824C15.056 16.8864 15.6009 16.6657 16.1676 16.668Z" fill="white"/>
<path d="M18.9003 23.8418H17.5669C17.2171 23.8418 16.9336 24.1254 16.9336 24.4751V25.8085C16.9336 26.1582 17.2171 26.4418 17.5669 26.4418H18.9003C19.25 26.4418 19.5336 26.1582 19.5336 25.8085V24.4751C19.5336 24.1254 19.25 23.8418 18.9003 23.8418Z" fill="white"/>
<path d="M18.9003 29.0332H17.5669C17.2171 29.0332 16.9336 29.3168 16.9336 29.6665V30.9999C16.9336 31.3497 17.2171 31.6332 17.5669 31.6332H18.9003C19.25 31.6332 19.5336 31.3497 19.5336 30.9999V29.6665C19.5336 29.3168 19.25 29.0332 18.9003 29.0332Z" fill="white"/>
<path d="M24.4081 23.8418H23.0747C22.725 23.8418 22.4414 24.1254 22.4414 24.4751V25.8085C22.4414 26.1582 22.725 26.4418 23.0747 26.4418H24.4081C24.7579 26.4418 25.0414 26.1582 25.0414 25.8085V24.4751C25.0414 24.1254 24.7579 23.8418 24.4081 23.8418Z" fill="white"/>
<path d="M24.409 29.0332H23.0757C22.7259 29.0332 22.4424 29.3168 22.4424 29.6665V30.9999C22.4424 31.3497 22.7259 31.6332 23.0757 31.6332H24.409C24.7588 31.6332 25.0424 31.3497 25.0424 30.9999V29.6665C25.0424 29.3168 24.7588 29.0332 24.409 29.0332Z" fill="white"/>
<path d="M30.1258 23.8418H28.7925C28.4427 23.8418 28.1592 24.1254 28.1592 24.4751V25.8085C28.1592 26.1582 28.4427 26.4418 28.7925 26.4418H30.1258C30.4756 26.4418 30.7592 26.1582 30.7592 25.8085V24.4751C30.7592 24.1254 30.4756 23.8418 30.1258 23.8418Z" fill="white"/>
<path d="M30.1249 29.0332H28.7915C28.4418 29.0332 28.1582 29.3168 28.1582 29.6665V30.9999C28.1582 31.3497 28.4418 31.6332 28.7915 31.6332H30.1249C30.4747 31.6332 30.7582 31.3497 30.7582 30.9999V29.6665C30.7582 29.3168 30.4747 29.0332 30.1249 29.0332Z" fill="white"/>
<path d="M36.8178 26.25C36.4829 26.6548 36.0462 26.9632 35.5526 27.1433C35.059 27.3235 34.5264 27.3689 34.0094 27.275C27.7178 26.525 28.5511 30.875 28.6678 32.7333C28.7385 33.214 28.6888 33.7048 28.523 34.1615C28.3571 34.6183 28.0805 35.0266 27.7178 35.35L35.6344 28.6833L36.8178 26.25Z" fill="white"/>
</g>
<defs>
<linearGradient id="paint0_linear_634_82" x1="25" y1="0" x2="25" y2="50" gradientUnits="userSpaceOnUse">
<stop stop-color="#FEC800"/>
<stop offset="1" stop-color="#FF9000"/>
</linearGradient>
<clipPath id="clip0_634_82">
<rect width="24.3333" height="23.5083" fill="white" transform="translate(12.834 13.334)"/>
</clipPath>
</defs>
</svg>
