<svg width="60" height="60" viewBox="0 0 60 60" fill="none" xmlns="http://www.w3.org/2000/svg">
<circle opacity="0.3" cx="30" cy="30" r="30" fill="#1C3048"/>
<g clip-path="url(#clip0_27_9446)">
<path d="M37.6485 19.8599H39.8885C40.3765 19.8599 40.8597 19.9562 41.3105 20.1432C41.7613 20.3303 42.1707 20.6045 42.5154 20.95C42.86 21.2956 43.1331 21.7058 43.3189 22.157C43.5048 22.6083 43.5998 23.0918 43.5984 23.5799V32.9299C43.5971 33.1537 43.5514 33.375 43.4638 33.581C43.3763 33.787 43.2487 33.9736 43.0885 34.1299L34.1585 42.7299C33.8456 43.0283 33.4308 43.1964 32.9985 43.1999H20.1085C19.1245 43.1999 18.1808 42.809 17.4851 42.1132C16.7893 41.4175 16.3985 40.4738 16.3985 39.4899V23.5799C16.3971 23.0918 16.4921 22.6083 16.678 22.157C16.8638 21.7058 17.1369 21.2956 17.4815 20.95C17.8262 20.6045 18.2356 20.3303 18.6864 20.1432C19.1372 19.9562 19.6204 19.8599 20.1085 19.8599H21.5385" stroke="white" stroke-width="2" stroke-miterlimit="10"/>
<path d="M24.8594 19.8599H34.1594" stroke="white" stroke-width="2" stroke-miterlimit="10"/>
<path d="M23.1602 17V23.44" stroke="white" stroke-width="2" stroke-miterlimit="10" stroke-linecap="round"/>
<path d="M35.9102 17V23.44" stroke="white" stroke-width="2" stroke-miterlimit="10" stroke-linecap="round"/>
<path d="M19.3969 20H40.5869C41.2738 20 41.9326 20.2729 42.4183 20.7586C42.904 21.2443 43.1769 21.9031 43.1769 22.59V25.1H16.7969V22.54C16.81 21.8601 17.09 21.2126 17.5765 20.7373C18.0629 20.2621 18.7168 19.9973 19.3969 20Z" fill="white"/>
<path d="M22.6803 28.6099H21.0803C20.6606 28.6099 20.3203 28.9501 20.3203 29.3699V30.9699C20.3203 31.3896 20.6606 31.7299 21.0803 31.7299H22.6803C23.1 31.7299 23.4403 31.3896 23.4403 30.9699V29.3699C23.4403 28.9501 23.1 28.6099 22.6803 28.6099Z" fill="white"/>
<path d="M22.6803 34.8398H21.0803C20.6606 34.8398 20.3203 35.1801 20.3203 35.5998V37.1998C20.3203 37.6196 20.6606 37.9598 21.0803 37.9598H22.6803C23.1 37.9598 23.4403 37.6196 23.4403 37.1998V35.5998C23.4403 35.1801 23.1 34.8398 22.6803 34.8398Z" fill="white"/>
<path d="M29.2897 28.6099H27.6897C27.27 28.6099 26.9297 28.9501 26.9297 29.3699V30.9699C26.9297 31.3896 27.27 31.7299 27.6897 31.7299H29.2897C29.7094 31.7299 30.0497 31.3896 30.0497 30.9699V29.3699C30.0497 28.9501 29.7094 28.6099 29.2897 28.6099Z" fill="white"/>
<path d="M29.2897 34.8398H27.6897C27.27 34.8398 26.9297 35.1801 26.9297 35.5998V37.1998C26.9297 37.6196 27.27 37.9598 27.6897 37.9598H29.2897C29.7094 37.9598 30.0497 37.6196 30.0497 37.1998V35.5998C30.0497 35.1801 29.7094 34.8398 29.2897 34.8398Z" fill="white"/>
<path d="M36.1491 28.6099H34.5491C34.1293 28.6099 33.7891 28.9501 33.7891 29.3699V30.9699C33.7891 31.3896 34.1293 31.7299 34.5491 31.7299H36.1491C36.5688 31.7299 36.9091 31.3896 36.9091 30.9699V29.3699C36.9091 28.9501 36.5688 28.6099 36.1491 28.6099Z" fill="white"/>
<path d="M36.1491 34.8398H34.5491C34.1293 34.8398 33.7891 35.1801 33.7891 35.5998V37.1998C33.7891 37.6196 34.1293 37.9598 34.5491 37.9598H36.1491C36.5688 37.9598 36.9091 37.6196 36.9091 37.1998V35.5998C36.9091 35.1801 36.5688 34.8398 36.1491 34.8398Z" fill="white"/>
<path d="M44.1778 31.5C43.7759 31.9858 43.2519 32.3558 42.6596 32.572C42.0673 32.7882 41.4282 32.8427 40.8078 32.73C33.2578 31.83 34.2578 37.05 34.3978 39.28C34.4827 39.8569 34.423 40.4458 34.224 40.9938C34.025 41.5419 33.693 42.032 33.2578 42.42L42.7578 34.42L44.1778 31.5Z" fill="white"/>
</g>
<defs>
<clipPath id="clip0_27_9446">
<rect width="29.2" height="28.21" fill="white" transform="translate(15.3984 16)"/>
</clipPath>
</defs>
</svg>
