<svg width="50" height="50" viewBox="0 0 50 50" fill="none" xmlns="http://www.w3.org/2000/svg">
<circle opacity="0.3" cx="25" cy="25" r="25" fill="#1C3048"/>
<path d="M25 50C38.8071 50 50 38.8071 50 25C50 11.1929 38.8071 0 25 0C11.1929 0 0 11.1929 0 25C0 38.8071 11.1929 50 25 50Z" fill="url(#paint0_linear_634_53)"/>
<path d="M30.7736 28.125H23.8096C23.3781 28.125 23.0283 28.4748 23.0283 28.9062C23.0283 29.3377 23.3781 29.6875 23.8096 29.6875H30.7736C31.2051 29.6875 31.5549 29.3377 31.5549 28.9062C31.5549 28.4748 31.2051 28.125 30.7736 28.125Z" fill="white"/>
<path d="M26.865 31.25H23.8096C23.3781 31.25 23.0283 31.5998 23.0283 32.0312C23.0283 32.4627 23.3781 32.8125 23.8096 32.8125H26.865C27.2965 32.8125 27.6463 32.4627 27.6463 32.0312C27.6463 31.5998 27.2965 31.25 26.865 31.25Z" fill="white"/>
<path d="M26.865 16.4062H23.8096C23.3781 16.4062 23.0283 16.756 23.0283 17.1875C23.0283 17.619 23.3781 17.9688 23.8096 17.9688H26.865C27.2965 17.9688 27.6463 17.619 27.6463 17.1875C27.6463 16.756 27.2965 16.4062 26.865 16.4062Z" fill="white"/>
<path d="M31.9785 36.7188H22.6035C20.4496 36.7188 18.6973 34.9664 18.6973 32.8125V17.1875C18.6973 15.0336 20.4496 13.2812 22.6035 13.2812H31.9785C34.1324 13.2812 35.8848 15.0336 35.8848 17.1875V32.8125C35.8848 34.9664 34.1324 36.7188 31.9785 36.7188ZM22.6035 14.8438C21.3113 14.8438 20.2598 15.8953 20.2598 17.1875V32.8125C20.2598 34.1047 21.3113 35.1562 22.6035 35.1562H31.9785C33.2707 35.1562 34.3223 34.1047 34.3223 32.8125V17.1875C34.3223 15.8953 33.2707 14.8438 31.9785 14.8438H22.6035Z" fill="white"/>
<path d="M18.3225 34.8191C17.5397 34.8191 16.7764 34.5832 16.1178 34.1301C15.2576 33.5387 14.6795 32.6488 14.4897 31.623L12.7842 22.4035C12.3928 20.2855 13.7975 18.2441 15.9154 17.852L18.9881 17.2832L19.2717 18.8199L16.199 19.3887C14.9287 19.6238 14.0858 20.8488 14.3209 22.1199L16.0264 31.3387C16.2623 32.609 17.4897 33.4512 18.7569 33.216L19.6248 33.0559L19.9084 34.5926L19.0412 34.7527C18.8014 34.7973 18.5608 34.8191 18.3225 34.8191Z" fill="white"/>
<path d="M22.4046 25.8535C22.0186 25.6605 21.8624 25.191 22.0553 24.8051L23.8382 21.241C24.1702 20.5777 24.8483 20.1582 25.5897 20.1582C26.3327 20.1582 27.0124 20.5777 27.3444 21.2426L29.1257 24.8051C29.3186 25.191 29.1624 25.6605 28.7764 25.8535C28.3905 26.0465 27.921 25.8902 27.728 25.5043L25.9468 21.941C25.8475 21.7426 25.6647 21.7207 25.5905 21.7207C25.5163 21.7207 25.3343 21.7426 25.235 21.9402L23.453 25.5043C23.26 25.8902 22.7905 26.0465 22.4046 25.8535Z" fill="white"/>
<path d="M32.1789 25.8523C31.793 26.0453 31.3234 25.8891 31.1305 25.5031L29.3492 21.9398C29.25 21.7414 29.0672 21.7195 28.993 21.7195C28.9187 21.7195 28.7367 21.7414 28.6375 21.9391L27.9914 23.232L26.5938 22.5328L27.2406 21.2391C27.5727 20.575 28.2508 20.1562 28.993 20.1562C29.7359 20.1562 30.4156 20.5758 30.7477 21.2406L32.5289 24.8031C32.7219 25.1891 32.5656 25.6586 32.1797 25.8516L32.1789 25.8523Z" fill="white"/>
<defs>
<linearGradient id="paint0_linear_634_53" x1="25" y1="0" x2="25" y2="50" gradientUnits="userSpaceOnUse">
<stop stop-color="#D823FE"/>
<stop offset="1" stop-color="#9830E9"/>
</linearGradient>
</defs>
</svg>
