<svg width="60" height="60" viewBox="0 0 60 60" fill="none" xmlns="http://www.w3.org/2000/svg">
<circle opacity="0.3" cx="30" cy="30" r="30" fill="#1C3048"/>
<path d="M36.9272 33.75H28.5703C28.0525 33.75 27.6328 34.1697 27.6328 34.6875C27.6328 35.2053 28.0525 35.625 28.5703 35.625H36.9272C37.445 35.625 37.8647 35.2053 37.8647 34.6875C37.8647 34.1697 37.445 33.75 36.9272 33.75Z" fill="white"/>
<path d="M32.2369 37.5H28.5703C28.0525 37.5 27.6328 37.9197 27.6328 38.4375C27.6328 38.9553 28.0525 39.375 28.5703 39.375H32.2369C32.7546 39.375 33.1744 38.9553 33.1744 38.4375C33.1744 37.9197 32.7546 37.5 32.2369 37.5Z" fill="white"/>
<path d="M32.2369 19.6875H28.5703C28.0525 19.6875 27.6328 20.1072 27.6328 20.625C27.6328 21.1428 28.0525 21.5625 28.5703 21.5625H32.2369C32.7546 21.5625 33.1744 21.1428 33.1744 20.625C33.1744 20.1072 32.7546 19.6875 32.2369 19.6875Z" fill="white"/>
<path d="M38.375 44.0625H27.125C24.5403 44.0625 22.4375 41.9597 22.4375 39.375V20.625C22.4375 18.0403 24.5403 15.9375 27.125 15.9375H38.375C40.9597 15.9375 43.0625 18.0403 43.0625 20.625V39.375C43.0625 41.9597 40.9597 44.0625 38.375 44.0625ZM27.125 17.8125C25.5744 17.8125 24.3125 19.0744 24.3125 20.625V39.375C24.3125 40.9256 25.5744 42.1875 27.125 42.1875H38.375C39.9256 42.1875 41.1875 40.9256 41.1875 39.375V20.625C41.1875 19.0744 39.9256 17.8125 38.375 17.8125H27.125Z" fill="white"/>
<path d="M21.9862 41.7834C21.0468 41.7834 20.1309 41.5002 19.3406 40.9565C18.3084 40.2468 17.6146 39.179 17.3868 37.948L15.3403 26.8846C14.8706 24.343 16.5562 21.8934 19.0978 21.4227L22.7849 20.7402L23.1253 22.5843L19.4381 23.2668C17.9137 23.549 16.9021 25.019 17.1843 26.5443L19.2309 37.6068C19.514 39.1312 20.9868 40.1418 22.5074 39.8596L23.549 39.6674L23.8893 41.5115L22.8487 41.7037C22.5609 41.7571 22.2721 41.7834 21.9862 41.7834Z" fill="white"/>
<path d="M26.8855 31.0238C26.4224 30.7923 26.2349 30.2288 26.4664 29.7657L28.6058 25.4888C29.0042 24.6929 29.818 24.1895 30.7077 24.1895C31.5992 24.1895 32.4149 24.6929 32.8133 25.4907L34.9508 29.7657C35.1824 30.2288 34.9949 30.7923 34.5317 31.0238C34.0686 31.2554 33.5052 31.0679 33.2736 30.6048L31.1361 26.3288C31.017 26.0907 30.7977 26.0645 30.7086 26.0645C30.6195 26.0645 30.4011 26.0907 30.282 26.3279L28.1436 30.6048C27.912 31.0679 27.3486 31.2554 26.8855 31.0238Z" fill="white"/>
<path d="M38.6123 31.0238C38.1492 31.2554 37.5858 31.0679 37.3542 30.6047L35.2167 26.3288C35.0977 26.0907 34.8783 26.0644 34.7892 26.0644C34.7002 26.0644 34.4817 26.0907 34.3627 26.3279L33.5873 27.8794L31.9102 27.0404L32.6864 25.4879C33.0848 24.691 33.8986 24.1885 34.7892 24.1885C35.6808 24.1885 36.4964 24.6919 36.8948 25.4897L39.0323 29.7647C39.2639 30.2279 39.0764 30.7913 38.6133 31.0229L38.6123 31.0238Z" fill="white"/>
</svg>
