<svg width="50" height="50" viewBox="0 0 50 50" fill="none" xmlns="http://www.w3.org/2000/svg">
<g id="Group 36112">
<circle id="Ellipse 87" cx="25" cy="25" r="25" fill="#ED4814"/>
<path id="Vector" d="M50 25C50 11.1929 38.8071 0 25 0C11.1929 0 0 11.1929 0 25C0 38.8071 11.1929 50 25 50C38.8071 50 50 38.8071 50 25Z" fill="url(#paint0_linear_634_4)"/>
<path id="Vector_2" d="M27.6396 35.8737C30.2362 31.2639 29.1491 25.4626 25.0544 22.0806C25.052 22.0787 25.0496 22.0763 25.0477 22.0749L25.0654 22.1189L25.0625 22.1519C25.8603 24.2592 25.7484 26.5727 24.7684 28.5577L24.0777 29.9572L23.8658 28.4108C23.7219 27.3619 23.3263 26.3613 22.717 25.5047H22.6208L22.5701 25.3612C22.5773 26.964 22.2396 28.5428 21.5772 30.0323C20.7081 31.9813 20.8358 34.2288 21.9192 36.0454L22.6668 37.2995L21.3218 36.7313C19.1039 35.7943 17.3309 33.9892 16.457 31.779C15.478 29.311 15.6593 26.4493 16.9425 24.1258C17.6117 22.9171 18.0804 21.6339 18.3363 20.3109L18.5864 19.0143L19.2245 20.1708C19.5291 20.7222 19.7535 21.3192 19.8926 21.9462L19.907 21.961L19.9218 22.0615L19.9357 22.0572C21.847 19.5179 22.992 16.3583 23.1589 13.159L23.202 12.3301L23.8974 12.7835C26.7356 14.6331 28.7067 17.6004 29.3155 20.9346L29.3294 21.003L29.3366 21.0135L29.3677 20.9695C29.9239 20.2349 30.2176 19.361 30.2176 18.4413V17.0169L31.0771 18.1524C33.0754 20.7916 34.0999 24.0655 33.9622 27.3715C33.7928 31.2629 31.6707 34.6784 28.2848 36.5289L26.8188 37.3301L27.6396 35.8737Z" fill="white"/>
</g>
<defs>
<linearGradient id="paint0_linear_634_4" x1="25" y1="0" x2="25" y2="50" gradientUnits="userSpaceOnUse">
<stop stop-color="#FEC800"/>
<stop offset="1" stop-color="#FF9000"/>
</linearGradient>
</defs>
</svg>
