<svg width="60" height="60" viewBox="0 0 60 60" fill="none" xmlns="http://www.w3.org/2000/svg">
<circle opacity="0.3" cx="30" cy="30" r="30" fill="#1C3048"/>
<path d="M33.1679 43.0482C36.2839 37.5164 34.9793 30.555 30.0657 26.4965C30.0628 26.4942 30.0599 26.4914 30.0576 26.4896L30.0789 26.5424L30.0754 26.582C31.0328 29.1109 30.8985 31.8871 29.7224 34.269L28.8937 35.9484L28.6394 34.0928C28.4666 32.8341 27.992 31.6334 27.2608 30.6055H27.1454L27.0846 30.4333C27.0932 32.3566 26.688 34.2512 25.893 36.0385C24.8502 38.3774 25.0034 41.0744 26.3034 43.2543L27.2005 44.7592L25.5865 44.0773C22.9251 42.9529 20.7975 40.7868 19.7488 38.1346C18.574 35.173 18.7915 31.739 20.3314 28.9508C21.1344 27.5004 21.6968 25.9605 22.0039 24.3729L22.3041 22.8169L23.0697 24.2047C23.4354 24.8665 23.7045 25.5828 23.8716 26.3352L23.8888 26.353L23.9066 26.4736L23.9232 26.4684C26.2167 23.4213 27.5908 19.6297 27.7911 15.7906L27.8427 14.7959L28.6773 15.34C32.0831 17.5595 34.4484 21.1203 35.179 25.1213L35.1957 25.2034L35.2043 25.216L35.2416 25.1632C35.9091 24.2816 36.2615 23.233 36.2615 22.1293V20.4201L37.2929 21.7826C39.6909 24.9497 40.9203 28.8784 40.755 32.8456C40.5518 37.5153 38.0052 41.6139 33.9422 43.8345L32.183 44.7959L33.1679 43.0482Z" fill="white"/>
</svg>
