<svg width="20" height="20" viewBox="0 0 20 20" fill="none" xmlns="http://www.w3.org/2000/svg">
<g clip-path="url(#clip0_27_9391)">
<g clip-path="url(#clip1_27_9391)">
<path fill-rule="evenodd" clip-rule="evenodd" d="M16.6332 6.07304L19.6643 9.10414C20.1119 9.55246 20.1119 10.2778 19.6643 10.7254C19.4403 10.9494 19.1468 11.0609 18.8532 11.0609C18.5603 11.0609 18.2673 10.9495 18.0425 10.7254L10.4631 3.14574C10.2175 2.90089 9.78238 2.90089 9.5355 3.14647L1.95736 10.7254C1.50992 11.1735 0.783148 11.1735 0.335548 10.7254C-0.111849 10.2778 -0.111849 9.55242 0.335548 9.10414L7.91442 1.52543C9.02771 0.410167 10.9678 0.408189 12.0836 1.52341L14.3405 3.78038V2.57162C14.3405 1.93851 14.8535 1.42543 15.4861 1.42543C16.1201 1.42543 16.6332 1.93851 16.6332 2.57162V6.07304ZM9.60181 5.32221C9.82135 5.10215 10.1779 5.10215 10.3981 5.32221L17.0637 11.9866C17.1695 12.0918 17.2287 12.2355 17.2287 12.3854V17.2462C17.2287 18.3868 16.3038 19.3116 15.1633 19.3116H11.8627V14.2001H8.13645V19.3116H4.83591C3.69533 19.3116 2.7705 18.3868 2.7705 17.2462V12.3854C2.7705 12.2355 2.83017 12.0918 2.93542 11.9866L9.60181 5.32221Z" fill="url(#paint0_linear_27_9391)"/>
</g>
</g>
<defs>
<linearGradient id="paint0_linear_27_9391" x1="20.1365" y1="0.687991" x2="-0.659618" y2="1.45625" gradientUnits="userSpaceOnUse">
<stop stop-color="#21C2CE"/>
<stop offset="1" stop-color="#15D8C5"/>
<stop offset="1" stop-color="#15D7C5"/>
</linearGradient>
<clipPath id="clip0_27_9391">
<rect width="20" height="20" fill="white"/>
</clipPath>
<clipPath id="clip1_27_9391">
<rect width="20" height="20" fill="white"/>
</clipPath>
</defs>
</svg>
