<svg width="20" height="20" viewBox="0 0 20 20" fill="none" xmlns="http://www.w3.org/2000/svg">
<g clip-path="url(#clip0_27_9391)">
<g clip-path="url(#clip1_27_9391)">
<path d="M19.6643 9.10414L16.6332 6.07304V2.57162C16.6332 1.93851 16.1201 1.42543 15.4861 1.42543C14.8535 1.42543 14.3405 1.93851 14.3405 2.57162V3.78038L12.0836 1.52341C10.9678 0.408189 9.02771 0.410167 7.91442 1.52543L0.335548 9.10414C-0.111849 9.55242 -0.111849 10.2778 0.335548 10.7254C0.783148 11.1735 1.50992 11.1735 1.95736 10.7254L9.5355 3.14647C9.78238 2.90089 10.2175 2.90089 10.4631 3.14574L18.0425 10.7254C18.2673 10.9495 18.5603 11.0609 18.8532 11.0609C19.1468 11.0609 19.4403 10.9494 19.6643 10.7254C20.1119 10.2778 20.1119 9.55246 19.6643 9.10414Z" fill="#D5D8E3"/>
<path d="M10.3971 5.32228C10.1769 5.10221 9.82039 5.10221 9.60085 5.32228L2.93445 11.9867C2.8292 12.0919 2.76953 12.2355 2.76953 12.3854V17.2462C2.76953 18.3868 3.69436 19.3116 4.83494 19.3116H8.13548V14.2002H11.8617V19.3116H15.1623C16.3029 19.3116 17.2277 18.3868 17.2277 17.2463V12.3854C17.2277 12.2355 17.1685 12.0919 17.0628 11.9867L10.3971 5.32228Z" fill="#ABB2C7"/>
</g>
</g>
<defs>
<clipPath id="clip0_27_9391">
<rect width="20" height="20" fill="white"/>
</clipPath>
<clipPath id="clip1_27_9391">
<rect width="20" height="20" fill="white"/>
</clipPath>
</defs>
</svg>
