<svg width="50" height="50" viewBox="0 0 50 50" fill="none" xmlns="http://www.w3.org/2000/svg">
<circle cx="25" cy="25" r="25" fill="#5DB2C5"/>
<path d="M50 25C50 11.1929 38.8071 0 25 0C11.1929 0 0 11.1929 0 25C0 38.8071 11.1929 50 25 50C38.8071 50 50 38.8071 50 25Z" fill="url(#paint0_linear_634_10)"/>
<g clip-path="url(#clip0_634_10)">
<path d="M18.584 33.2567L23.584 28.4984C23.956 28.1781 24.4306 28.002 24.9215 28.002C25.4124 28.002 25.887 28.1781 26.259 28.4984L31.784 33.09" stroke="white" stroke-width="2" stroke-miterlimit="10" stroke-linecap="round"/>
<path d="M22.4167 29.3738L15.1667 22.7071C15.1523 22.6942 15.1344 22.6858 15.1153 22.6828C15.0962 22.6799 15.0766 22.6825 15.059 22.6904C15.0413 22.6984 15.0264 22.7113 15.0159 22.7275C15.0054 22.7438 14.9999 22.7628 15 22.7821V33.6154C14.9989 33.9827 15.0703 34.3467 15.2101 34.6863C15.3499 35.026 15.5554 35.3347 15.8147 35.5948C16.0741 35.8549 16.3822 36.0613 16.7214 36.2021C17.0607 36.343 17.4244 36.4154 17.7917 36.4154H32.2917C32.659 36.4154 33.0227 36.343 33.3619 36.2021C33.7012 36.0613 34.0093 35.8549 34.2686 35.5948C34.528 35.3347 34.7334 35.026 34.8732 34.6863C35.013 34.3467 35.0844 33.9827 35.0833 33.6154V23.0654C35.0834 23.0461 35.0779 23.0271 35.0674 23.0109C35.057 22.9946 35.042 22.9817 35.0244 22.9738C35.0067 22.9658 34.9872 22.9632 34.9681 22.9661C34.9489 22.9691 34.9311 22.9775 34.9167 22.9904L27.8333 29.4654" stroke="white" stroke-width="2" stroke-miterlimit="10" stroke-linecap="round"/>
<path d="M17.7676 24.334V15.609C17.7698 15.0063 18.0102 14.4289 18.4363 14.0027C18.8625 13.5766 19.4399 13.3362 20.0426 13.334H28.3759L32.3342 17.459V25.184" stroke="white" stroke-width="2" stroke-miterlimit="10" stroke-linecap="round"/>
<path d="M31.7091 17.8504L29.4841 17.7254C29.2227 17.7116 28.9667 17.6462 28.7308 17.533C28.4949 17.4197 28.2836 17.261 28.1094 17.0658C27.9351 16.8705 27.8011 16.6428 27.7153 16.3956C27.6294 16.1484 27.5933 15.8866 27.6091 15.6254L27.7257 13.4004" stroke="white" stroke-width="2" stroke-miterlimit="10" stroke-linecap="round"/>
<path d="M25.0415 24.8091L22.6498 22.3091C22.4563 22.0596 22.34 21.7589 22.3155 21.4441C22.2909 21.1293 22.359 20.8142 22.5114 20.5377C22.6639 20.2612 22.8939 20.0354 23.1732 19.8881C23.4525 19.7408 23.7689 19.6786 24.0831 19.7091C24.4408 19.7586 24.7749 19.9155 25.0415 20.1591C25.3039 19.9143 25.6359 19.7571 25.9915 19.7091C26.3173 19.6605 26.6502 19.7127 26.9455 19.8585C27.2409 20.0044 27.4847 20.237 27.6442 20.5252C27.8037 20.8134 27.8714 21.1435 27.8381 21.4713C27.8049 21.799 27.6723 22.1087 27.4581 22.3591L25.0415 24.8091Z" fill="white"/>
</g>
<defs>
<linearGradient id="paint0_linear_634_10" x1="25" y1="0" x2="25" y2="50" gradientUnits="userSpaceOnUse">
<stop stop-color="#FB4F97"/>
<stop offset="1" stop-color="#B325ED"/>
</linearGradient>
<clipPath id="clip0_634_10">
<rect width="21.75" height="24.7083" fill="white" transform="translate(14.167 12.5)"/>
</clipPath>
</defs>
</svg>
