<svg width="60" height="60" viewBox="0 0 60 60" fill="none" xmlns="http://www.w3.org/2000/svg">
<circle opacity="0.3" cx="30" cy="30" r="30" fill="#1C3048"/>
<g clip-path="url(#clip0_27_9471)">
<path d="M22.3008 39.9102L28.3008 34.2002C28.7472 33.8159 29.3167 33.6045 29.9058 33.6045C30.4948 33.6045 31.0644 33.8159 31.5108 34.2002L38.1408 39.7102" stroke="white" stroke-width="2" stroke-miterlimit="10" stroke-linecap="round"/>
<path d="M26.9 35.2498L18.2 27.2498C18.1827 27.2343 18.1613 27.2242 18.1384 27.2206C18.1154 27.2171 18.0919 27.2203 18.0708 27.2298C18.0496 27.2393 18.0317 27.2548 18.0191 27.2743C18.0065 27.2938 17.9999 27.3166 18 27.3398V40.3398C17.9987 40.7806 18.0844 41.2173 18.2521 41.6249C18.4199 42.0325 18.6665 42.4029 18.9777 42.7151C19.2889 43.0272 19.6586 43.2749 20.0657 43.4438C20.4728 43.6128 20.9092 43.6998 21.35 43.6998H38.75C39.1908 43.6998 39.6272 43.6128 40.0343 43.4438C40.4414 43.2749 40.8112 43.0272 41.1224 42.7151C41.4336 42.4029 41.6801 42.0325 41.8479 41.6249C42.0156 41.2173 42.1013 40.7806 42.1 40.3398V27.6798C42.1001 27.6566 42.0935 27.6338 42.0809 27.6143C42.0684 27.5948 42.0504 27.5793 42.0293 27.5698C42.0081 27.5603 41.9846 27.5571 41.9617 27.5606C41.9387 27.5642 41.9173 27.5743 41.9 27.5898L33.4 35.3598" stroke="white" stroke-width="2" stroke-miterlimit="10" stroke-linecap="round"/>
<path d="M21.3203 29.2V18.73C21.3229 18.0068 21.6114 17.3139 22.1228 16.8025C22.6342 16.2911 23.3271 16.0026 24.0503 16H34.0503L38.8003 20.95V30.22" stroke="white" stroke-width="2" stroke-miterlimit="10" stroke-linecap="round"/>
<path d="M38.0493 21.4201L35.3793 21.2701C35.0657 21.2535 34.7585 21.175 34.4754 21.0392C34.1923 20.9033 33.9388 20.7128 33.7297 20.4785C33.5205 20.2443 33.3598 19.9709 33.2568 19.6743C33.1537 19.3776 33.1104 19.0635 33.1293 18.7501L33.2693 16.0801" stroke="white" stroke-width="2" stroke-miterlimit="10" stroke-linecap="round"/>
<path d="M30.0505 29.7701L27.1805 26.7701C26.9483 26.4707 26.8088 26.1099 26.7793 25.7321C26.7498 25.3544 26.8316 24.9763 27.0145 24.6444C27.1974 24.3126 27.4735 24.0417 27.8087 23.8649C28.1438 23.6882 28.5234 23.6135 28.9005 23.6501C29.3297 23.7095 29.7307 23.8978 30.0505 24.1901C30.3655 23.8964 30.7638 23.7077 31.1905 23.6501C31.5815 23.5918 31.981 23.6544 32.3354 23.8294C32.6899 24.0045 32.9824 24.2836 33.1738 24.6295C33.3652 24.9753 33.4464 25.3714 33.4065 25.7647C33.3666 26.158 33.2075 26.5297 32.9505 26.8301L30.0505 29.7701Z" fill="white"/>
</g>
<defs>
<clipPath id="clip0_27_9471">
<rect width="26.1" height="29.65" fill="white" transform="translate(17 15)"/>
</clipPath>
</defs>
</svg>
