<svg width="50" height="50" viewBox="0 0 50 50" fill="none" xmlns="http://www.w3.org/2000/svg">
<circle opacity="0.3" cx="25" cy="25" r="25" fill="#1C3048"/>
<path d="M25 50C38.8071 50 50 38.8071 50 25C50 11.1929 38.8071 0 25 0C11.1929 0 0 11.1929 0 25C0 38.8071 11.1929 50 25 50Z" fill="url(#paint0_linear_634_69)"/>
<path d="M25 50C38.8071 50 50 38.8071 50 25C50 11.1929 38.8071 0 25 0C11.1929 0 0 11.1929 0 25C0 38.8071 11.1929 50 25 50Z" fill="url(#paint1_linear_634_69)"/>
<g clip-path="url(#clip0_634_69)">
<path d="M39.0499 24.982C39.0499 28.7393 37.5573 32.3426 34.9006 34.9994C32.2438 37.6561 28.6404 39.1487 24.8832 39.1487C6.14154 38.382 6.14154 11.5737 24.9082 10.832C28.6654 10.832 32.2688 12.3246 34.9256 14.9814C37.5823 17.6381 39.0749 21.2415 39.0749 24.9987L39.0499 24.982Z" stroke="white" stroke-width="1.5" stroke-miterlimit="10" stroke-dasharray="1.97 1.97"/>
<path d="M24.9079 36.0405C31.0153 36.0405 35.9663 31.0895 35.9663 24.9822C35.9663 18.8748 31.0153 13.9238 24.9079 13.9238C18.8006 13.9238 13.8496 18.8748 13.8496 24.9822C13.8496 31.0895 18.8006 36.0405 24.9079 36.0405Z" stroke="white" stroke-width="1.5" stroke-miterlimit="10"/>
<path d="M16.385 27.416V22.698H17.449V26.52H19.325V27.416H16.385ZM21.7656 22.614C23.2146 22.614 24.0056 23.699 24.0056 25.008C24.0056 26.562 23.0746 27.493 21.6886 27.493C20.2956 27.493 19.4696 26.436 19.4696 25.085C19.4696 23.671 20.3796 22.614 21.7656 22.614ZM21.7446 23.461C21.0166 23.461 20.5966 24.147 20.5966 25.064C20.5966 25.995 21.0306 26.646 21.7446 26.646C22.4656 26.646 22.8786 25.96 22.8786 25.043C22.8786 24.189 22.4796 23.461 21.7446 23.461ZM28.6452 24.714V27.199C28.3162 27.311 27.6932 27.465 27.0702 27.465C26.2092 27.465 25.5862 27.248 25.1522 26.835C24.7252 26.422 24.4872 25.806 24.4872 25.113C24.4942 23.545 25.6352 22.649 27.1822 22.649C27.7912 22.649 28.2602 22.768 28.4912 22.873L28.2672 23.734C28.0082 23.615 27.6932 23.531 27.1752 23.531C26.2862 23.531 25.6072 24.028 25.6072 25.057C25.6072 26.037 26.2232 26.604 27.0982 26.604C27.3362 26.604 27.5322 26.576 27.6162 26.541V25.547H26.8882V24.714H28.6452ZM31.5547 22.614C33.0037 22.614 33.7947 23.699 33.7947 25.008C33.7947 26.562 32.8637 27.493 31.4777 27.493C30.0847 27.493 29.2587 26.436 29.2587 25.085C29.2587 23.671 30.1687 22.614 31.5547 22.614ZM31.5337 23.461C30.8057 23.461 30.3857 24.147 30.3857 25.064C30.3857 25.995 30.8197 26.646 31.5337 26.646C32.2547 26.646 32.6677 25.96 32.6677 25.043C32.6677 24.189 32.2687 23.461 31.5337 23.461Z" fill="white"/>
</g>
<defs>
<linearGradient id="paint0_linear_634_69" x1="25" y1="0" x2="25" y2="50" gradientUnits="userSpaceOnUse">
<stop stop-color="#3BABEB"/>
<stop offset="1" stop-color="#7F43F5"/>
</linearGradient>
<linearGradient id="paint1_linear_634_69" x1="25" y1="0" x2="25" y2="50" gradientUnits="userSpaceOnUse">
<stop stop-color="#3BABEB"/>
<stop offset="1" stop-color="#7F43F5"/>
</linearGradient>
<clipPath id="clip0_634_69">
<rect width="29.05" height="29.125" fill="white" transform="translate(10.417 10.416)"/>
</clipPath>
</defs>
</svg>
