<svg width="36" height="36" viewBox="0 0 36 36" fill="none" xmlns="http://www.w3.org/2000/svg">
<g id="love-letter 1">
<g id="Group">
<path id="Vector" d="M33.9999 14.3596C33.9985 14.1324 33.8906 13.9193 33.7087 13.7829L31.0908 11.8195V4.91009C31.0909 3.30564 29.7862 2.00098 28.1818 2.00098H7.81815C6.21377 2.00098 4.90911 3.30564 4.90911 4.91009V11.8196L2.2912 13.7829C2.10936 13.9193 2.00143 14.1324 2 14.3596L2.00116 14.3646H2V31.0919C2 32.6962 3.30466 34.001 4.90911 34.001H31.0909C32.6953 34.001 34 32.6963 34 31.0919V14.3646H33.9988L33.9999 14.3596ZM31.0909 13.6371L32.0731 14.3739C31.8069 14.5805 31.4685 14.8437 31.0909 15.1377V13.6371ZM6.36363 4.91009C6.36363 4.10827 7.01633 3.45557 7.81815 3.45557H28.1818C28.9836 3.45557 29.6363 4.10827 29.6363 4.91009V16.2727C26.2597 18.9129 21.1327 22.961 18.9907 24.8568C18.8153 25.0124 18.4495 25.2738 17.9772 25.2738C17.632 25.2738 17.299 25.1339 16.9865 24.8568C14.8302 22.9475 9.72799 18.9123 6.36363 16.2772V4.91009ZM4.90911 13.6372V15.1402C4.53111 14.8453 4.19252 14.5817 3.92613 14.3746L4.90911 13.6372Z" fill="#1C3048"/>
<path id="Vector_2" d="M18.0013 20.9112C18.1866 20.9112 18.3713 20.8409 18.5133 20.7003L23.9955 15.2692C24.8201 14.446 25.2739 13.3501 25.2739 12.184C25.2739 9.77768 23.3166 7.82031 20.9103 7.82031C19.8187 7.82031 18.7952 8.22156 18.0012 8.9432C17.2072 8.22163 16.1837 7.82031 15.0921 7.82031C12.6859 7.82031 10.7285 9.77768 10.7285 12.184C10.7285 13.3501 11.1823 14.446 12.009 15.2713L17.4891 20.7003C17.6312 20.8409 17.8159 20.9112 18.0013 20.9112Z" fill="#1C3048"/>
</g>
</g>
</svg>
