<svg width="22" height="22" viewBox="0 0 22 22" fill="none" xmlns="http://www.w3.org/2000/svg">
<mask id="path-1-inside-1_22_10543" fill="white">
<path d="M15.7285 0H6.27539C5.38688 0 4.66406 0.72282 4.66406 1.61133V20.3887C4.66406 21.2772 5.38688 22 6.27539 22H15.7285C16.617 22 17.3398 21.2772 17.3398 20.3887V1.61133C17.3398 0.72282 16.617 0 15.7285 0ZM16.6953 17.4883H7.56445C7.38648 17.4883 7.24219 17.6326 7.24219 17.8105C7.24219 17.9885 7.38648 18.1328 7.56445 18.1328H16.6953V20.3887C16.6953 20.9218 16.2616 21.3555 15.7285 21.3555H6.27539C5.74228 21.3555 5.30859 20.9218 5.30859 20.3887V18.1328H6.27539C6.45337 18.1328 6.59766 17.9885 6.59766 17.8105C6.59766 17.6326 6.45337 17.4883 6.27539 17.4883H5.30859V3.22266H16.6953V17.4883ZM16.6953 2.57812H5.30859V1.61133C5.30859 1.07821 5.74228 0.644531 6.27539 0.644531H15.7285C16.2616 0.644531 16.6953 1.07821 16.6953 1.61133V2.57812Z"/>
</mask>
<path d="M15.7285 0H6.27539C5.38688 0 4.66406 0.72282 4.66406 1.61133V20.3887C4.66406 21.2772 5.38688 22 6.27539 22H15.7285C16.617 22 17.3398 21.2772 17.3398 20.3887V1.61133C17.3398 0.72282 16.617 0 15.7285 0ZM16.6953 17.4883H7.56445C7.38648 17.4883 7.24219 17.6326 7.24219 17.8105C7.24219 17.9885 7.38648 18.1328 7.56445 18.1328H16.6953V20.3887C16.6953 20.9218 16.2616 21.3555 15.7285 21.3555H6.27539C5.74228 21.3555 5.30859 20.9218 5.30859 20.3887V18.1328H6.27539C6.45337 18.1328 6.59766 17.9885 6.59766 17.8105C6.59766 17.6326 6.45337 17.4883 6.27539 17.4883H5.30859V3.22266H16.6953V17.4883ZM16.6953 2.57812H5.30859V1.61133C5.30859 1.07821 5.74228 0.644531 6.27539 0.644531H15.7285C16.2616 0.644531 16.6953 1.07821 16.6953 1.61133V2.57812Z" fill="#1C3048"/>
<path d="M16.6953 17.4883V19.4883H18.6953V17.4883H16.6953ZM16.6953 18.1328H18.6953V16.1328H16.6953V18.1328ZM5.30859 18.1328V16.1328H3.30859V18.1328H5.30859ZM5.30859 17.4883H3.30859V19.4883H5.30859V17.4883ZM5.30859 3.22266V1.22266H3.30859V3.22266H5.30859ZM16.6953 3.22266H18.6953V1.22266H16.6953V3.22266ZM16.6953 2.57812V4.57812H18.6953V2.57812H16.6953ZM5.30859 2.57812H3.30859V4.57812H5.30859V2.57812ZM15.7285 -2H6.27539V2H15.7285V-2ZM6.27539 -2C4.28231 -2 2.66406 -0.381749 2.66406 1.61133H6.66406C6.66406 1.82739 6.49145 2 6.27539 2V-2ZM2.66406 1.61133V20.3887H6.66406V1.61133H2.66406ZM2.66406 20.3887C2.66406 22.3818 4.28231 24 6.27539 24V20C6.49145 20 6.66406 20.1726 6.66406 20.3887H2.66406ZM6.27539 24H15.7285V20H6.27539V24ZM15.7285 24C17.7216 24 19.3398 22.3818 19.3398 20.3887H15.3398C15.3398 20.1726 15.5125 20 15.7285 20V24ZM19.3398 20.3887V1.61133H15.3398V20.3887H19.3398ZM19.3398 1.61133C19.3398 -0.381749 17.7216 -2 15.7285 -2V2C15.5125 2 15.3398 1.82739 15.3398 1.61133H19.3398ZM16.6953 15.4883H7.56445V19.4883H16.6953V15.4883ZM7.56445 15.4883C6.28191 15.4883 5.24219 16.528 5.24219 17.8105H9.24219C9.24219 18.7371 8.49105 19.4883 7.56445 19.4883V15.4883ZM5.24219 17.8105C5.24219 19.0931 6.28191 20.1328 7.56445 20.1328V16.1328C8.49105 16.1328 9.24219 16.884 9.24219 17.8105H5.24219ZM7.56445 20.1328H16.6953V16.1328H7.56445V20.1328ZM14.6953 18.1328V20.3887H18.6953V18.1328H14.6953ZM14.6953 20.3887C14.6953 19.8172 15.1571 19.3555 15.7285 19.3555V23.3555C17.3662 23.3555 18.6953 22.0264 18.6953 20.3887H14.6953ZM15.7285 19.3555H6.27539V23.3555H15.7285V19.3555ZM6.27539 19.3555C6.84685 19.3555 7.30859 19.8172 7.30859 20.3887H3.30859C3.30859 22.0264 4.63771 23.3555 6.27539 23.3555V19.3555ZM7.30859 20.3887V18.1328H3.30859V20.3887H7.30859ZM5.30859 20.1328H6.27539V16.1328H5.30859V20.1328ZM6.27539 20.1328C7.55794 20.1328 8.59766 19.0931 8.59766 17.8105H4.59766C4.59766 16.884 5.3488 16.1328 6.27539 16.1328V20.1328ZM8.59766 17.8105C8.59766 16.528 7.55794 15.4883 6.27539 15.4883V19.4883C5.3488 19.4883 4.59766 18.7371 4.59766 17.8105H8.59766ZM6.27539 15.4883H5.30859V19.4883H6.27539V15.4883ZM7.30859 17.4883V3.22266H3.30859V17.4883H7.30859ZM5.30859 5.22266H16.6953V1.22266H5.30859V5.22266ZM14.6953 3.22266V17.4883H18.6953V3.22266H14.6953ZM16.6953 0.578125H5.30859V4.57812H16.6953V0.578125ZM7.30859 2.57812V1.61133H3.30859V2.57812H7.30859ZM7.30859 1.61133C7.30859 2.18278 6.84685 2.64453 6.27539 2.64453V-1.35547C4.63771 -1.35547 3.30859 -0.0263546 3.30859 1.61133H7.30859ZM6.27539 2.64453H15.7285V-1.35547H6.27539V2.64453ZM15.7285 2.64453C15.1571 2.64453 14.6953 2.18278 14.6953 1.61133H18.6953C18.6953 -0.0263546 17.3662 -1.35547 15.7285 -1.35547V2.64453ZM14.6953 1.61133V2.57812H18.6953V1.61133H14.6953Z" fill="#1C3048" mask="url(#path-1-inside-1_22_10543)"/>
<path d="M11.6797 1.61133C11.6797 1.68468 11.668 1.7553 11.6465 1.82145C11.6249 1.7553 11.6133 1.68468 11.6133 1.61133C11.6133 1.53798 11.6249 1.46736 11.6465 1.4012C11.668 1.46736 11.6797 1.53798 11.6797 1.61133Z" fill="#1C3048" stroke="#1C3048" stroke-width="2"/>
<mask id="path-4-inside-2_22_10543" fill="white">
<path d="M10.998 18.7773C10.4649 18.7773 10.0312 19.211 10.0312 19.7441C10.0312 20.2773 10.4649 20.7109 10.998 20.7109C11.5312 20.7109 11.9648 20.2773 11.9648 19.7441C11.9648 19.211 11.5312 18.7773 10.998 18.7773ZM10.998 20.0664C10.8203 20.0664 10.6758 19.9219 10.6758 19.7441C10.6758 19.5664 10.8203 19.4219 10.998 19.4219C11.1758 19.4219 11.3203 19.5664 11.3203 19.7441C11.3203 19.9219 11.1758 20.0664 10.998 20.0664Z"/>
</mask>
<path d="M10.998 18.7773C10.4649 18.7773 10.0312 19.211 10.0312 19.7441C10.0312 20.2773 10.4649 20.7109 10.998 20.7109C11.5312 20.7109 11.9648 20.2773 11.9648 19.7441C11.9648 19.211 11.5312 18.7773 10.998 18.7773ZM10.998 20.0664C10.8203 20.0664 10.6758 19.9219 10.6758 19.7441C10.6758 19.5664 10.8203 19.4219 10.998 19.4219C11.1758 19.4219 11.3203 19.5664 11.3203 19.7441C11.3203 19.9219 11.1758 20.0664 10.998 20.0664Z" fill="#1C3048"/>
<path d="M10.998 16.7773C9.36036 16.7773 8.03125 18.1065 8.03125 19.7441H12.0312C12.0312 20.3156 11.5695 20.7773 10.998 20.7773V16.7773ZM8.03125 19.7441C8.03125 21.3818 9.36036 22.7109 10.998 22.7109V18.7109C11.5695 18.7109 12.0312 19.1727 12.0312 19.7441H8.03125ZM10.998 22.7109C12.6357 22.7109 13.9648 21.3818 13.9648 19.7441H9.96484C9.96484 19.1727 10.4266 18.7109 10.998 18.7109V22.7109ZM13.9648 19.7441C13.9648 18.1065 12.6357 16.7773 10.998 16.7773V20.7773C10.4266 20.7773 9.96484 20.3156 9.96484 19.7441H13.9648ZM10.998 18.0664C11.9249 18.0664 12.6758 18.8173 12.6758 19.7441H8.67578C8.67578 21.0264 9.71576 22.0664 10.998 22.0664V18.0664ZM12.6758 19.7441C12.6758 20.671 11.9249 21.4219 10.998 21.4219V17.4219C9.71576 17.4219 8.67578 18.4619 8.67578 19.7441H12.6758ZM10.998 21.4219C10.0712 21.4219 9.32031 20.671 9.32031 19.7441H13.3203C13.3203 18.4619 12.2803 17.4219 10.998 17.4219V21.4219ZM9.32031 19.7441C9.32031 18.8173 10.0712 18.0664 10.998 18.0664V22.0664C12.2803 22.0664 13.3203 21.0264 13.3203 19.7441H9.32031Z" fill="#1C3048" mask="url(#path-4-inside-2_22_10543)"/>
<path d="M9.71289 1.93359C9.89087 1.93359 10.0352 1.78931 10.0352 1.61133C10.0352 1.43335 9.89087 1.28906 9.71289 1.28906C9.53491 1.28906 9.39062 1.43335 9.39062 1.61133C9.39062 1.78931 9.53491 1.93359 9.71289 1.93359Z" fill="#1C3048" stroke="#1C3048" stroke-width="2"/>
</svg>
