<svg width="28" height="28" viewBox="0 0 28 28" fill="none" xmlns="http://www.w3.org/2000/svg">
<circle cx="14" cy="14" r="14" fill="white"/>
<g clip-path="url(#clip0_1356_587)">
<path d="M15.0189 14.0001L19.9137 9.1052C20.1954 8.82345 20.1954 8.36806 19.9137 8.08631C19.632 7.80456 19.1766 7.80456 18.8948 8.08631L14 12.9812L9.10518 8.08631C8.82344 7.80456 8.36805 7.80456 8.08631 8.08631C7.80456 8.36806 7.80456 8.82345 8.08631 9.1052L12.9811 14.0001L8.08631 18.895C7.80456 19.1767 7.80456 19.6321 8.08631 19.9139C8.22682 20.0544 8.41128 20.125 8.59574 20.125C8.78021 20.125 8.96467 20.0544 9.10518 19.9139L14 15.019L18.8948 19.9139C19.0353 20.0544 19.2198 20.125 19.4042 20.125C19.5887 20.125 19.7732 20.0544 19.9137 19.9139C20.1954 19.6321 20.1954 19.1767 19.9137 18.895L15.0189 14.0001Z" fill="#1C3048" stroke="#1C3048" stroke-width="0.35"/>
</g>
<defs>
<clipPath id="clip0_1356_587">
<rect width="14" height="14" fill="white" transform="translate(7 7)"/>
</clipPath>
</defs>
</svg>
