<svg width="14" height="14" viewBox="0 0 14 14" fill="none" xmlns="http://www.w3.org/2000/svg">
<path d="M8.01889 7.0001L12.9137 2.1052C13.1954 1.82345 13.1954 1.36806 12.9137 1.08631C12.632 0.804563 12.1766 0.804563 11.8948 1.08631L7.00001 5.9812L2.10518 1.08631C1.82344 0.804563 1.36805 0.804563 1.08631 1.08631C0.804565 1.36806 0.804565 1.82345 1.08631 2.1052L5.98111 7.0001L1.08631 11.895C0.804565 12.1767 0.804565 12.6321 1.08631 12.9139C1.22682 13.0544 1.41128 13.125 1.59574 13.125C1.78021 13.125 1.96467 13.0544 2.10518 12.9139L6.99999 8.01899L11.8948 12.9139C12.0353 13.0544 12.2198 13.125 12.4042 13.125C12.5887 13.125 12.7732 13.0544 12.9137 12.9139C13.1954 12.6321 13.1954 12.1767 12.9137 11.895L8.01889 7.0001Z" fill="#1C3048" stroke="#1C3048" stroke-width="0.35"/>
</svg>
