<svg width="60" height="60" viewBox="0 0 60 60" fill="none" xmlns="http://www.w3.org/2000/svg">
<circle opacity="0.3" cx="30" cy="30" r="30" fill="#1C3048"/>
<path d="M43.9016 27.3483C45.3661 28.8128 45.3661 31.1872 43.9016 32.6516C42.4372 34.1161 40.0628 34.1161 38.5983 32.6516C37.1339 31.1872 37.1339 28.8128 38.5983 27.3483C40.0628 25.8839 42.4372 25.8839 43.9016 27.3483Z" fill="white"/>
<path d="M32.6516 27.3483C34.1161 28.8128 34.1161 31.1872 32.6516 32.6516C31.1872 34.1161 28.8128 34.1161 27.3483 32.6516C25.8839 31.1872 25.8839 28.8128 27.3483 27.3483C28.8128 25.8839 31.1872 25.8839 32.6516 27.3483Z" fill="white"/>
<path d="M21.4016 27.3483C22.8661 28.8128 22.8661 31.1872 21.4016 32.6516C19.9372 34.1161 17.5628 34.1161 16.0983 32.6516C14.6339 31.1872 14.6339 28.8128 16.0983 27.3483C17.5628 25.8839 19.9372 25.8839 21.4016 27.3483Z" fill="white"/>
</svg>
