<svg width="50" height="50" viewBox="0 0 50 50" fill="none" xmlns="http://www.w3.org/2000/svg">
<circle opacity="0.3" cx="25" cy="25" r="25" fill="#1C3048"/>
<path d="M25 50C38.8071 50 50 38.8071 50 25C50 11.1929 38.8071 0 25 0C11.1929 0 0 11.1929 0 25C0 38.8071 11.1929 50 25 50Z" fill="url(#paint0_linear_634_100)"/>
<g clip-path="url(#clip0_634_100)">
<path d="M36.5847 22.7903C37.8051 24.0107 37.8051 25.9893 36.5847 27.2097C35.3643 28.4301 33.3857 28.4301 32.1653 27.2097C30.9449 25.9893 30.9449 24.0107 32.1653 22.7903C33.3857 21.5699 35.3643 21.5699 36.5847 22.7903Z" fill="white"/>
<path d="M27.2097 22.7903C28.4301 24.0107 28.4301 25.9893 27.2097 27.2097C25.9893 28.4301 24.0107 28.4301 22.7903 27.2097C21.5699 25.9893 21.5699 24.0107 22.7903 22.7903C24.0107 21.5699 25.9893 21.5699 27.2097 22.7903Z" fill="white"/>
<path d="M17.8347 22.7903C19.0551 24.0107 19.0551 25.9893 17.8347 27.2097C16.6143 28.4301 14.6357 28.4301 13.4153 27.2097C12.1949 25.9893 12.1949 24.0107 13.4153 22.7903C14.6357 21.5699 16.6143 21.5699 17.8347 22.7903Z" fill="white"/>
</g>
<defs>
<linearGradient id="paint0_linear_634_100" x1="25" y1="0" x2="25" y2="50" gradientUnits="userSpaceOnUse">
<stop stop-color="#1AE4DA"/>
<stop offset="1" stop-color="#5C7DE9"/>
</linearGradient>
<clipPath id="clip0_634_100">
<rect width="25" height="25" fill="white" transform="translate(12.5 12.5)"/>
</clipPath>
</defs>
</svg>
