<svg width="24" height="24" viewBox="0 0 24 24" fill="none" xmlns="http://www.w3.org/2000/svg">
<g id="pen-tool 1">
<g id="Pentool">
<path id="Vector" d="M22.69 15.6894H22.072C22.0208 13.676 21.3639 11.7248 20.1871 10.0904C19.0102 8.45596 17.368 7.21417 15.4747 6.52705H20.5954C20.6697 6.81495 20.8465 7.06585 21.0926 7.23273C21.3387 7.39961 21.6372 7.47101 21.9322 7.43355C22.2272 7.39608 22.4984 7.25232 22.695 7.02922C22.8915 6.80611 23 6.51898 23 6.22164C23 5.9243 22.8915 5.63717 22.695 5.41407C22.4984 5.19096 22.2272 5.04721 21.9322 5.00974C21.6372 4.97227 21.3387 5.04367 21.0926 5.21055C20.8465 5.37743 20.6697 5.62834 20.5954 5.91623H13.2217V5.30541C13.2217 5.22441 13.1895 5.14673 13.1323 5.08946C13.075 5.03218 12.9973 5 12.9163 5H11.0837C11.0027 5 10.925 5.03218 10.8677 5.08946C10.8105 5.14673 10.7783 5.22441 10.7783 5.30541V5.91623H3.40463C3.33029 5.62834 3.1535 5.37743 2.90739 5.21055C2.66129 5.04367 2.36276 4.97227 2.06777 5.00974C1.77279 5.04721 1.50159 5.19096 1.30502 5.41407C1.10845 5.63717 1 5.9243 1 6.22164C1 6.51898 1.10845 6.80611 1.30502 7.02922C1.50159 7.25232 1.77279 7.39608 2.06777 7.43355C2.36276 7.47101 2.66129 7.39961 2.90739 7.23273C3.1535 7.06585 3.33029 6.81495 3.40463 6.52705H8.5252C6.63192 7.21417 4.98972 8.45596 3.81286 10.0904C2.636 11.7248 1.97912 13.676 1.92795 15.6894H1.31C1.229 15.6894 1.15131 15.7215 1.09403 15.7788C1.03676 15.8361 1.00458 15.9138 1.00458 15.9948V17.8272C1.00458 17.9082 1.03676 17.9859 1.09403 18.0432C1.15131 18.1005 1.229 18.1326 1.31 18.1326H3.14258C3.22358 18.1326 3.30127 18.1005 3.35855 18.0432C3.41582 17.9859 3.448 17.9082 3.448 17.8272V15.9948C3.448 15.9138 3.41582 15.8361 3.35855 15.7788C3.30127 15.7215 3.22358 15.6894 3.14258 15.6894H2.53887C2.60015 13.4407 3.46487 11.2884 4.97636 9.6224C6.48784 7.95636 8.54612 6.88677 10.7783 6.60741V7.13787C10.7783 7.21887 10.8105 7.29655 10.8677 7.35383C10.925 7.41111 11.0027 7.44328 11.0837 7.44328H12.9163C12.9973 7.44328 13.075 7.41111 13.1323 7.35383C13.1895 7.29655 13.2217 7.21887 13.2217 7.13787V6.60741C15.4539 6.88677 17.5122 7.95636 19.0236 9.6224C20.5351 11.2884 21.3998 13.4407 21.4611 15.6894H20.8574C20.7764 15.6894 20.6987 15.7215 20.6415 15.7788C20.5842 15.8361 20.552 15.9138 20.552 15.9948V17.8272C20.552 17.9082 20.5842 17.9859 20.6415 18.0432C20.6987 18.1005 20.7764 18.1326 20.8574 18.1326H22.69C22.771 18.1326 22.8487 18.1005 22.906 18.0432C22.9632 17.9859 22.9954 17.9082 22.9954 17.8272V15.9948C22.9954 15.9138 22.9632 15.8361 22.906 15.7788C22.8487 15.7215 22.771 15.6894 22.69 15.6894Z" fill="white" stroke="white"/>
</g>
</g>
</svg>
