<svg width="16" height="15" viewBox="0 0 16 15" fill="none" xmlns="http://www.w3.org/2000/svg">
<path d="M12.7291 5.87429L10.9087 6.32762L8.63493 3.49429C8.53537 3.3702 8.40921 3.27004 8.26577 3.20123C8.12233 3.13241 7.96527 3.09668 7.80618 3.09668C7.64708 3.09668 7.49002 3.13241 7.34658 3.20123C7.20314 3.27004 7.07698 3.3702 6.97743 3.49429L4.70368 6.32762L2.84784 5.87429C2.66999 5.83172 2.48419 5.83547 2.30819 5.88517C2.1322 5.93487 1.97189 6.02887 1.84257 6.15818C1.71326 6.2875 1.61926 6.44781 1.56956 6.62381C1.51985 6.7998 1.51611 6.9856 1.55868 7.16346L2.81243 11.5693C2.85527 11.7225 2.94845 11.8568 3.07695 11.9506C3.20544 12.0444 3.36178 12.0923 3.52076 12.0864H12.0208C12.1797 12.0923 12.3361 12.0444 12.4646 11.9506C12.5931 11.8568 12.6862 11.7225 12.7291 11.5693L13.9899 7.16346C14.0306 6.98843 14.0266 6.80596 13.9781 6.63292C13.9297 6.45987 13.8385 6.30181 13.7128 6.17334C13.5872 6.04487 13.4312 5.95013 13.2592 5.89786C13.0873 5.8456 12.905 5.83749 12.7291 5.87429Z" fill="#EFA83C"/>
<path d="M1.2194 5.1097C1.7084 5.1097 2.10482 4.71329 2.10482 4.22428C2.10482 3.73528 1.7084 3.33887 1.2194 3.33887C0.730399 3.33887 0.333984 3.73528 0.333984 4.22428C0.333984 4.71329 0.730399 5.1097 1.2194 5.1097Z" fill="#EFA83C"/>
<path d="M14.3229 5.1097C14.8119 5.1097 15.2083 4.71329 15.2083 4.22428C15.2083 3.73528 14.8119 3.33887 14.3229 3.33887C13.8339 3.33887 13.4375 3.73528 13.4375 4.22428C13.4375 4.71329 13.8339 5.1097 14.3229 5.1097Z" fill="#EFA83C"/>
<path d="M7.77214 2.09896C8.26114 2.09896 8.65755 1.70254 8.65755 1.21354C8.65755 0.724539 8.26114 0.328125 7.77214 0.328125C7.28313 0.328125 6.88672 0.724539 6.88672 1.21354C6.88672 1.70254 7.28313 2.09896 7.77214 2.09896Z" fill="#EFA83C"/>
<path d="M12.0208 14.6715H3.52083C3.33297 14.6715 3.1528 14.5969 3.01997 14.4641C2.88713 14.3312 2.8125 14.1511 2.8125 13.9632C2.8125 13.7754 2.88713 13.5952 3.01997 13.4623C3.1528 13.3295 3.33297 13.2549 3.52083 13.2549H12.0208C12.2087 13.2549 12.3889 13.3295 12.5217 13.4623C12.6545 13.5952 12.7292 13.7754 12.7292 13.9632C12.7292 14.1511 12.6545 14.3312 12.5217 14.4641C12.3889 14.5969 12.2087 14.6715 12.0208 14.6715Z" fill="#EFA83C"/>
</svg>
