<svg width="36" height="36" viewBox="0 0 36 36" fill="none" xmlns="http://www.w3.org/2000/svg">
<g id="processing (1) 1" clip-path="url(#clip0_2233_14143)">
<path id="Vector" d="M20.25 29.9531H13.5C13.2389 29.9531 12.9885 30.0568 12.8039 30.2414C12.6193 30.426 12.5156 30.6764 12.5156 30.9375C12.5156 31.1986 12.6193 31.449 12.8039 31.6336C12.9885 31.8182 13.2389 31.9219 13.5 31.9219H20.25C20.5111 31.9219 20.7615 31.8182 20.9461 31.6336C21.1307 31.449 21.2344 31.1986 21.2344 30.9375C21.2344 30.6764 21.1307 30.426 20.9461 30.2414C20.7615 30.0568 20.5111 29.9531 20.25 29.9531Z" fill="#1C3048"/>
<path id="Vector_2" d="M26.4375 0.140625H1.6875C1.42643 0.140625 1.17605 0.244336 0.991442 0.428942C0.806836 0.613548 0.703125 0.863928 0.703125 1.125V34.875C0.703125 35.1361 0.806836 35.3865 0.991442 35.5711C1.17605 35.7557 1.42643 35.8594 1.6875 35.8594H26.4375C26.5668 35.8594 26.6948 35.834 26.8143 35.7846C26.9338 35.7352 27.0423 35.6626 27.1337 35.5712C27.2251 35.4798 27.2977 35.3713 27.3471 35.2518C27.3965 35.1323 27.4219 35.0043 27.4219 34.875V1.125C27.4219 0.995709 27.3965 0.867672 27.3471 0.748209C27.2977 0.628745 27.2251 0.520199 27.1337 0.428777C27.0423 0.337355 26.9338 0.264849 26.8143 0.215406C26.6948 0.165962 26.5668 0.140551 26.4375 0.140625ZM25.4531 33.8906H2.67188V2.10938H25.4531V33.8906Z" fill="#1C3048"/>
<path id="Vector_3" d="M32.3438 5.76562C31.5608 5.76652 30.8102 6.07794 30.2566 6.63156C29.7029 7.18519 29.3915 7.93581 29.3906 8.71875V29.8125C29.3905 29.9345 29.4132 30.0555 29.4576 30.1691L31.4263 35.2316C31.4982 35.4165 31.6243 35.5753 31.788 35.6873C31.9517 35.7993 32.1454 35.8592 32.3438 35.8592C32.5421 35.8592 32.7358 35.7993 32.8995 35.6873C33.0632 35.5753 33.1893 35.4165 33.2612 35.2316L35.2299 30.1691C35.2743 30.0555 35.297 29.9345 35.2969 29.8125V8.71875C35.296 7.93581 34.9846 7.18519 34.4309 6.63156C33.8773 6.07794 33.1267 5.76652 32.3438 5.76562ZM33.3281 12.5156H31.3594V8.71875C31.3594 8.45768 31.4631 8.2073 31.6477 8.02269C31.8323 7.83809 32.0827 7.73438 32.3438 7.73438C32.6048 7.73438 32.8552 7.83809 33.0398 8.02269C33.2244 8.2073 33.3281 8.45768 33.3281 8.71875V12.5156Z" fill="#1C3048"/>
<path id="Vector_4" d="M5.625 24.0469H22.5C22.7611 24.0469 23.0115 23.9432 23.1961 23.7586C23.3807 23.574 23.4844 23.3236 23.4844 23.0625C23.4844 22.8014 23.3807 22.551 23.1961 22.3664C23.0115 22.1818 22.7611 22.0781 22.5 22.0781H5.625C5.36393 22.0781 5.11355 22.1818 4.92894 22.3664C4.74434 22.551 4.64063 22.8014 4.64063 23.0625C4.64062 23.3236 4.74434 23.574 4.92894 23.7586C5.11355 23.9432 5.36393 24.0469 5.625 24.0469Z" fill="#1C3048"/>
<path id="Vector_5" d="M22.5 26.0156H13.5C13.2389 26.0156 12.9885 26.1193 12.8039 26.3039C12.6193 26.4885 12.5156 26.7389 12.5156 27C12.5156 27.2611 12.6193 27.5115 12.8039 27.6961C12.9885 27.8807 13.2389 27.9844 13.5 27.9844H22.5C22.7611 27.9844 23.0115 27.8807 23.1961 27.6961C23.3807 27.5115 23.4844 27.2611 23.4844 27C23.4844 26.7389 23.3807 26.4885 23.1961 26.3039C23.0115 26.1193 22.7611 26.0156 22.5 26.0156Z" fill="#1C3048"/>
<path id="Vector_6" d="M6.32055 31.0571C6.50524 31.2416 6.7556 31.3452 7.01665 31.3452C7.27769 31.3452 7.52806 31.2416 7.71274 31.0571L10.4971 28.2733C10.5885 28.1819 10.661 28.0734 10.7105 27.9539C10.76 27.8345 10.7854 27.7065 10.7854 27.5772C10.7854 27.4479 10.76 27.3199 10.7105 27.2005C10.661 27.081 10.5885 26.9725 10.4971 26.8811C10.4057 26.7897 10.2972 26.7172 10.1777 26.6677C10.0583 26.6182 9.9303 26.5928 9.80102 26.5928C9.67175 26.5928 9.54374 26.6182 9.4243 26.6677C9.30486 26.7172 9.19634 26.7897 9.10493 26.8811L7.01693 28.9691L6.32055 28.2733C6.22919 28.1819 6.12072 28.1094 6.00133 28.0599C5.88194 28.0105 5.75397 27.985 5.62474 27.985C5.49551 27.985 5.36754 28.0105 5.24815 28.0599C5.12876 28.1094 5.02029 28.1819 4.92893 28.2733C4.83753 28.3647 4.76502 28.4731 4.71555 28.5925C4.66609 28.7119 4.64062 28.8399 4.64062 28.9691C4.64062 29.0983 4.66609 29.2263 4.71555 29.3457C4.76502 29.4651 4.83753 29.5736 4.92893 29.6649L6.32055 31.0571Z" fill="#1C3048"/>
<path id="Vector_7" d="M14.0625 15.0469C14.6466 15.0469 15.2175 14.8737 15.7032 14.5492C16.1888 14.2247 16.5673 13.7635 16.7908 13.2239C17.0143 12.6843 17.0728 12.0905 16.9589 11.5176C16.8449 10.9448 16.5637 10.4186 16.1507 10.0056C15.7377 9.59257 15.2115 9.31132 14.6386 9.19737C14.0658 9.08342 13.472 9.1419 12.9324 9.36542C12.3928 9.58893 11.9316 9.96744 11.6071 10.4531C11.2826 10.9387 11.1094 11.5097 11.1094 12.0938C11.1103 12.8767 11.4217 13.6273 11.9753 14.1809C12.5289 14.7346 13.2796 15.046 14.0625 15.0469ZM14.0625 11.1094C14.2572 11.1094 14.4475 11.1671 14.6094 11.2753C14.7713 11.3834 14.8974 11.5372 14.9719 11.717C15.0464 11.8969 15.0659 12.0948 15.028 12.2858C14.99 12.4767 14.8962 12.6521 14.7586 12.7898C14.6209 12.9275 14.4455 13.0212 14.2545 13.0592C14.0636 13.0972 13.8657 13.0777 13.6858 13.0032C13.5059 12.9287 13.3522 12.8025 13.244 12.6406C13.1359 12.4788 13.0781 12.2884 13.0781 12.0938C13.0784 11.8328 13.1822 11.5826 13.3668 11.398C13.5513 11.2135 13.8015 11.1097 14.0625 11.1094Z" fill="#1C3048"/>
<path id="Vector_8" d="M6.13612 14.3966L8.10487 17.8065C8.23519 18.0329 8.45009 18.1982 8.70231 18.2662C8.95454 18.3341 9.22341 18.2991 9.4498 18.1687L10.1535 17.7621C10.457 17.9715 10.7767 18.1562 11.1097 18.3144V19.125C11.1099 19.386 11.2136 19.6363 11.3982 19.8209C11.5828 20.0055 11.8331 20.1092 12.0941 20.1094H16.0316C16.2925 20.1091 16.5427 20.0053 16.7271 19.8207C16.9116 19.6361 17.0153 19.3859 17.0154 19.125V18.3127C17.3484 18.1545 17.6682 17.9698 17.9717 17.7604L18.6748 18.1687C18.901 18.2992 19.1697 18.3345 19.4219 18.2669C19.6741 18.1993 19.8891 18.0343 20.0197 17.8082L21.9885 14.3983C22.0536 14.2862 22.0959 14.1623 22.1131 14.0337C22.1302 13.9052 22.1217 13.7745 22.0882 13.6493C22.0547 13.524 21.9968 13.4066 21.9178 13.3037C21.8389 13.2009 21.7403 13.1147 21.6279 13.05L20.9287 12.6461C20.9445 12.4588 20.9529 12.2737 20.9529 12.0921C20.9529 11.9104 20.9445 11.7253 20.9287 11.538L21.6279 11.1375C21.854 11.0069 22.019 10.7919 22.0866 10.5397C22.1542 10.2875 22.1189 10.0187 21.9885 9.79256L20.0197 6.38269C19.9554 6.27045 19.8695 6.17201 19.767 6.09297C19.6646 6.01393 19.5476 5.95586 19.4227 5.92206C19.2978 5.88826 19.1674 5.87941 19.0391 5.896C18.9108 5.91259 18.787 5.9543 18.6748 6.01875L17.9711 6.42544C17.6677 6.21603 17.3479 6.03131 17.0149 5.87306V5.0625C17.0147 4.80157 16.911 4.55136 16.7266 4.3668C16.5421 4.18225 16.292 4.07842 16.0311 4.07812H12.0936C11.8325 4.07827 11.5822 4.18203 11.3977 4.36661C11.2131 4.55118 11.1093 4.80147 11.1092 5.0625V5.87475C10.7762 6.033 10.4564 6.21772 10.1529 6.42712L9.4498 6.01875C9.22362 5.88831 8.9549 5.85301 8.7027 5.92062C8.4505 5.98823 8.23547 6.15322 8.10487 6.37931L6.13612 9.78919C6.071 9.90133 6.02867 10.0252 6.01155 10.1538C5.99443 10.2823 6.00286 10.413 6.03636 10.5382C6.06986 10.6635 6.12777 10.7809 6.20677 10.8838C6.28576 10.9866 6.38428 11.0728 6.49668 11.1375L7.19587 11.5414C7.18012 11.7287 7.17168 11.9138 7.17168 12.0954C7.17168 12.2771 7.18012 12.4622 7.19587 12.6495L6.49668 13.05C6.3845 13.1147 6.28618 13.2008 6.20733 13.3035C6.12849 13.4062 6.07067 13.5235 6.03718 13.6486C6.00369 13.7736 5.99519 13.9041 6.01217 14.0324C6.02914 14.1608 6.07126 14.2846 6.13612 14.3966ZM9.2248 12.9938C9.10931 12.4004 9.10931 11.7904 9.2248 11.1971C9.26191 10.9972 9.23612 10.7907 9.151 10.6061C9.06588 10.4214 8.9256 10.2677 8.74949 10.1661L8.33099 9.92475L9.31537 8.21925L9.74737 8.469C9.92019 8.56894 10.1198 8.61276 10.3186 8.59442C10.5174 8.57609 10.7056 8.49649 10.8572 8.36662C11.3187 7.97183 11.8487 7.66506 12.4209 7.46156L12.4344 7.4565C12.6221 7.38972 12.7845 7.26649 12.8993 7.10374C13.0141 6.94098 13.0757 6.74668 13.0757 6.5475V6.04688H15.0444V6.53175C15.0445 6.7351 15.1074 6.93346 15.2246 7.09963C15.3419 7.26579 15.5076 7.39163 15.6992 7.45988C16.2714 7.66338 16.8014 7.97014 17.2629 8.36494C17.4146 8.4948 17.6028 8.5744 17.8015 8.59274C18.0003 8.61107 18.1999 8.56725 18.3727 8.46731L18.8047 8.21756L19.7891 9.92306L19.3706 10.1644C19.1956 10.2665 19.0565 10.4203 18.9722 10.6045C18.888 10.7888 18.8627 10.9946 18.8998 11.1937C19.0153 11.7871 19.0153 12.3971 18.8998 12.9904C18.8627 13.1903 18.8885 13.3968 18.9736 13.5814C19.0587 13.7661 19.199 13.9198 19.3751 14.0214L19.7936 14.2628L18.8092 15.9683L18.3891 15.7252C18.2128 15.6234 18.0093 15.5787 17.8065 15.5975C17.6038 15.6162 17.4119 15.6974 17.2573 15.8299C16.8024 16.2188 16.28 16.521 15.7161 16.7214L15.7031 16.7265C15.5118 16.7945 15.3462 16.9201 15.2291 17.086C15.112 17.2518 15.049 17.4499 15.0489 17.6529V18.1389H13.0802V17.64C13.0802 17.4408 13.0186 17.2465 12.9038 17.0838C12.789 16.921 12.6266 16.7978 12.4389 16.731L12.4254 16.7259C11.8532 16.5224 11.3232 16.2157 10.8617 15.8209C10.7101 15.691 10.5219 15.6114 10.3231 15.5931C10.1243 15.5747 9.92469 15.6186 9.75187 15.7185L9.31987 15.9683L8.33549 14.2628L8.75399 14.0214C8.92866 13.9194 9.06759 13.7659 9.15184 13.582C9.2361 13.3981 9.26158 13.1927 9.2248 12.9938Z" fill="#1C3048"/>
</g>
<defs>
<clipPath id="clip0_2233_14143">
<rect width="36" height="36" fill="white"/>
</clipPath>
</defs>
</svg>
