<svg width="24" height="24" viewBox="0 0 24 24" fill="none" xmlns="http://www.w3.org/2000/svg">
<g id="Pro">
<rect id="Rectangle 1183" opacity="0.8" width="24" height="24" rx="5" fill="#1C3048" fill-opacity="0.8"/>
<g id="Layer 2">
<path id="Vector" d="M16.8735 9.90267L15.1004 10.3442L12.8857 7.58454C12.7888 7.46367 12.6659 7.36612 12.5262 7.29909C12.3865 7.23206 12.2335 7.19727 12.0785 7.19727C11.9236 7.19727 11.7706 7.23206 11.6309 7.29909C11.4912 7.36612 11.3683 7.46367 11.2713 7.58454L9.05669 10.3442L7.24911 9.90267C7.07588 9.86121 6.89491 9.86486 6.72349 9.91327C6.55207 9.96168 6.39593 10.0532 6.26997 10.1792C6.14402 10.3051 6.05247 10.4613 6.00406 10.6327C5.95565 10.8041 5.952 10.9851 5.99346 11.1583L7.21461 15.4496C7.25635 15.5989 7.3471 15.7297 7.47226 15.8211C7.59741 15.9124 7.74968 15.959 7.90453 15.9533H16.1835C16.3384 15.959 16.4907 15.9124 16.6158 15.8211C16.741 15.7297 16.8317 15.5989 16.8735 15.4496L18.1015 11.1583C18.1412 10.9879 18.1372 10.8101 18.09 10.6416C18.0429 10.473 17.954 10.3191 17.8316 10.194C17.7092 10.0688 17.5573 9.97654 17.3898 9.92563C17.2224 9.87473 17.0448 9.86683 16.8735 9.90267Z" fill="#EFA83C"/>
<path id="Vector_2" d="M5.6622 9.1584C6.13849 9.1584 6.5246 8.77229 6.5246 8.296C6.5246 7.8197 6.13849 7.43359 5.6622 7.43359C5.18591 7.43359 4.7998 7.8197 4.7998 8.296C4.7998 8.77229 5.18591 9.1584 5.6622 9.1584Z" fill="#EFA83C"/>
<path id="Vector_3" d="M18.4249 9.1584C18.9012 9.1584 19.2873 8.77229 19.2873 8.296C19.2873 7.8197 18.9012 7.43359 18.4249 7.43359C17.9486 7.43359 17.5625 7.8197 17.5625 8.296C17.5625 8.77229 17.9486 9.1584 18.4249 9.1584Z" fill="#EFA83C"/>
<path id="Vector_4" d="M12.045 6.2248C12.5213 6.2248 12.9074 5.83869 12.9074 5.3624C12.9074 4.88611 12.5213 4.5 12.045 4.5C11.5687 4.5 11.1826 4.88611 11.1826 5.3624C11.1826 5.83869 11.5687 6.2248 12.045 6.2248Z" fill="#EFA83C"/>
<path id="Vector_5" d="M16.1828 18.4697H7.90379C7.72081 18.4697 7.54532 18.397 7.41594 18.2676C7.28655 18.1382 7.21387 17.9627 7.21387 17.7798C7.21387 17.5968 7.28655 17.4213 7.41594 17.2919C7.54532 17.1625 7.72081 17.0898 7.90379 17.0898H16.1828C16.3658 17.0898 16.5413 17.1625 16.6706 17.2919C16.8 17.4213 16.8727 17.5968 16.8727 17.7798C16.8727 17.9627 16.8 18.1382 16.6706 18.2676C16.5413 18.397 16.3658 18.4697 16.1828 18.4697Z" fill="#EFA83C"/>
</g>
</g>
</svg>
