<svg width="50" height="50" viewBox="0 0 50 50" fill="none" xmlns="http://www.w3.org/2000/svg">
<circle cx="25" cy="25" r="25" fill="#EB9C26"/>
<path d="M25 50C38.8071 50 50 38.8071 50 25C50 11.1929 38.8071 0 25 0C11.1929 0 0 11.1929 0 25C0 38.8071 11.1929 50 25 50Z" fill="url(#paint0_linear_634_22)"/>
<g clip-path="url(#clip0_634_22)">
<path d="M35.4157 18.5918V28.4168C35.4157 29.4003 35.025 30.3435 34.3295 31.039C33.6341 31.7344 32.6909 32.1251 31.7074 32.1251H26.2074L21.4824 36.6751L20.9824 32.1251H18.7074C17.7238 32.1251 16.7806 31.7344 16.0852 31.039C15.3897 30.3435 14.999 29.4003 14.999 28.4168V17.0501C14.999 16.0666 15.3897 15.1234 16.0852 14.4279C16.7806 13.7325 17.7238 13.3418 18.7074 13.3418H26.9324" stroke="white" stroke-width="2" stroke-miterlimit="10"/>
<path d="M21.2988 24.375C21.9201 24.375 22.4238 23.8713 22.4238 23.25C22.4238 22.6287 21.9201 22.125 21.2988 22.125C20.6775 22.125 20.1738 22.6287 20.1738 23.25C20.1738 23.8713 20.6775 24.375 21.2988 24.375Z" fill="white"/>
<path d="M28.7412 24.375C29.3625 24.375 29.8662 23.8713 29.8662 23.25C29.8662 22.6287 29.3625 22.125 28.7412 22.125C28.1199 22.125 27.6162 22.6287 27.6162 23.25C27.6162 23.8713 28.1199 24.375 28.7412 24.375Z" fill="white"/>
<path d="M25.0156 24.375C25.6369 24.375 26.1406 23.8713 26.1406 23.25C26.1406 22.6287 25.6369 22.125 25.0156 22.125C24.3943 22.125 23.8906 22.6287 23.8906 23.25C23.8906 23.8713 24.3943 24.375 25.0156 24.375Z" fill="white"/>
<path d="M31.533 14.8417C31.5333 14.9424 31.5136 15.0421 31.475 15.1351C31.4363 15.2281 31.3796 15.3125 31.308 15.3833L29.4913 17.1083L29.6997 16.0583C29.7221 15.9499 29.7199 15.8378 29.6933 15.7304C29.6668 15.6229 29.6165 15.5227 29.5461 15.4372C29.4758 15.3517 29.3872 15.283 29.2869 15.2362C29.1866 15.1894 29.077 15.1656 28.9663 15.1667C28.8682 15.1667 28.7711 15.1472 28.6806 15.1094C28.59 15.0716 28.5079 15.0163 28.4389 14.9465C28.3699 14.8767 28.3155 14.794 28.2787 14.703C28.2419 14.6121 28.2236 14.5148 28.2247 14.4167V13.25C28.2236 13.1519 28.2419 13.0546 28.2787 12.9636C28.3155 12.8727 28.3699 12.7899 28.4389 12.7202C28.5079 12.6504 28.59 12.595 28.6806 12.5572C28.7711 12.5195 28.8682 12.5 28.9663 12.5H30.833C30.9311 12.5 31.0282 12.5195 31.1188 12.5572C31.2093 12.595 31.2914 12.6504 31.3604 12.7202C31.4294 12.7899 31.4838 12.8727 31.5206 12.9636C31.5574 13.0546 31.5758 13.1519 31.5747 13.25L31.533 14.8417Z" fill="white"/>
<path d="M36.2494 14.8417C36.2501 14.9432 36.2298 15.0438 36.1896 15.137C36.1494 15.2302 36.0904 15.3141 36.0161 15.3833L34.1661 17.1083L34.3827 16.0583C34.4036 15.9501 34.4003 15.8386 34.3731 15.7318C34.3459 15.6249 34.2955 15.5254 34.2255 15.4403C34.1555 15.3551 34.0676 15.2865 33.968 15.2392C33.8684 15.1919 33.7596 15.1671 33.6494 15.1667C33.4505 15.1667 33.2597 15.0876 33.1191 14.947C32.9784 14.8063 32.8994 14.6156 32.8994 14.4167V13.25C32.8994 13.0511 32.9784 12.8603 33.1191 12.7197C33.2597 12.579 33.4505 12.5 33.6494 12.5H35.4994C35.6983 12.5 35.8891 12.579 36.0297 12.7197C36.1704 12.8603 36.2494 13.0511 36.2494 13.25V14.8417Z" fill="white"/>
</g>
<defs>
<linearGradient id="paint0_linear_634_22" x1="25" y1="0" x2="25" y2="50" gradientUnits="userSpaceOnUse">
<stop stop-color="#1AE4DA"/>
<stop offset="1" stop-color="#5C7DE9"/>
</linearGradient>
<clipPath id="clip0_634_22">
<rect width="22.0833" height="25.975" fill="white" transform="translate(14.166 12.5)"/>
</clipPath>
</defs>
</svg>
