<svg width="60" height="60" viewBox="0 0 60 60" fill="none" xmlns="http://www.w3.org/2000/svg">
<circle opacity="0.3" cx="30" cy="30" r="30" fill="#1C3048"/>
<g clip-path="url(#clip0_27_9482)">
<path d="M42.5 22.3098V34.0998C42.5 35.28 42.0312 36.4119 41.1966 37.2464C40.3621 38.0809 39.2302 38.5498 38.05 38.5498H31.45L25.78 44.0098L25.18 38.5498H22.45C21.2698 38.5498 20.1379 38.0809 19.3034 37.2464C18.4688 36.4119 18 35.28 18 34.0998V20.4598C18 19.2796 18.4688 18.1477 19.3034 17.3131C20.1379 16.4786 21.2698 16.0098 22.45 16.0098H32.32" stroke="white" stroke-width="2" stroke-miterlimit="10"/>
<path d="M25.5609 29.2498C26.3065 29.2498 26.9109 28.6454 26.9109 27.8998C26.9109 27.1542 26.3065 26.5498 25.5609 26.5498C24.8154 26.5498 24.2109 27.1542 24.2109 27.8998C24.2109 28.6454 24.8154 29.2498 25.5609 29.2498Z" fill="white"/>
<path d="M34.4906 29.2498C35.2362 29.2498 35.8406 28.6454 35.8406 27.8998C35.8406 27.1542 35.2362 26.5498 34.4906 26.5498C33.745 26.5498 33.1406 27.1542 33.1406 27.8998C33.1406 28.6454 33.745 29.2498 34.4906 29.2498Z" fill="white"/>
<path d="M30.0219 29.2498C30.7675 29.2498 31.3719 28.6454 31.3719 27.8998C31.3719 27.1542 30.7675 26.5498 30.0219 26.5498C29.2763 26.5498 28.6719 27.1542 28.6719 27.8998C28.6719 28.6454 29.2763 29.2498 30.0219 29.2498Z" fill="white"/>
<path d="M37.8412 17.81C37.8416 17.9308 37.8179 18.0506 37.7715 18.1622C37.7252 18.2738 37.6571 18.375 37.5712 18.46L35.3912 20.53L35.6412 19.27C35.668 19.1399 35.6654 19.0054 35.6336 18.8764C35.6017 18.7475 35.5413 18.6272 35.4569 18.5246C35.3725 18.422 35.2663 18.3396 35.1459 18.2834C35.0255 18.2273 34.894 18.1987 34.7611 18.2C34.6434 18.2 34.5269 18.1767 34.4182 18.1313C34.3096 18.086 34.211 18.0195 34.1283 17.9358C34.0455 17.8521 33.9801 17.7528 33.936 17.6437C33.8919 17.5345 33.8698 17.4177 33.8711 17.3V15.9C33.8698 15.7823 33.8919 15.6655 33.936 15.5563C33.9801 15.4472 34.0455 15.3479 34.1283 15.2642C34.211 15.1805 34.3096 15.114 34.4182 15.0687C34.5269 15.0233 34.6434 15 34.7611 15H37.0012C37.1189 15 37.2354 15.0233 37.3441 15.0687C37.4527 15.114 37.5513 15.1805 37.634 15.2642C37.7168 15.3479 37.7822 15.4472 37.8263 15.5563C37.8704 15.6655 37.8925 15.7823 37.8912 15.9L37.8412 17.81Z" fill="white"/>
<path d="M43.5005 17.81C43.5013 17.9318 43.4769 18.0525 43.4287 18.1644C43.3805 18.2763 43.3096 18.3769 43.2205 18.46L41.0005 20.53L41.2605 19.27C41.2855 19.1401 41.2815 19.0063 41.2489 18.8781C41.2163 18.7499 41.1558 18.6305 41.0718 18.5283C40.9878 18.4261 40.8823 18.3438 40.7628 18.287C40.6433 18.2303 40.5127 18.2006 40.3805 18.2C40.1418 18.2 39.9129 18.1052 39.7441 17.9364C39.5753 17.7676 39.4805 17.5387 39.4805 17.3V15.9C39.4805 15.6613 39.5753 15.4324 39.7441 15.2636C39.9129 15.0948 40.1418 15 40.3805 15H42.6005C42.8392 15 43.0681 15.0948 43.2369 15.2636C43.4056 15.4324 43.5005 15.6613 43.5005 15.9V17.81Z" fill="white"/>
</g>
<defs>
<clipPath id="clip0_27_9482">
<rect width="26.5" height="31.17" fill="white" transform="translate(17 15)"/>
</clipPath>
</defs>
</svg>
