<svg width="20" height="20" viewBox="0 0 20 20" fill="none" xmlns="http://www.w3.org/2000/svg">
<g clip-path="url(#clip0_27_9326)">
<g clip-path="url(#clip1_27_9326)">
<path d="M3.27344 9.73808L9.99816 12.9694L11.7885 12.0961L16.7229 9.73808V2.62061H3.27344V9.73808ZM12.6182 10.1311H7.37814C7.11614 10.1311 6.8978 9.91275 6.8978 9.65075C6.8978 9.38875 7.11614 9.17041 7.37814 9.17041H12.6182C12.8802 9.17041 13.0985 9.38875 13.0985 9.65075C13.0985 9.91275 12.8802 10.1311 12.6182 10.1311ZM13.4479 8.42807H6.54847C6.28646 8.42807 6.06813 8.20974 6.06813 7.94773C6.06813 7.68573 6.28646 7.4674 6.54847 7.4674H13.4479C13.7099 7.4674 13.9282 7.68573 13.9282 7.94773C13.9282 8.20974 13.7099 8.42807 13.4479 8.42807ZM13.5789 4.4107L14.0155 3.84303L14.4522 4.4107L15.1509 4.62904L14.7142 5.24038V5.98272L14.0155 5.76438L13.3169 5.98272V5.24038L12.8802 4.62904L13.5789 4.4107ZM9.56149 4.4107L9.99816 3.84303L10.4348 4.4107L11.1335 4.62904L10.6968 5.24038V5.98272L9.99816 5.72072L9.29949 5.93905V5.19671L8.86282 4.58537L9.56149 4.4107ZM5.58779 4.4107L6.02446 3.84303L6.46113 4.4107L7.1598 4.62904L6.72313 5.24038V5.98272L6.02446 5.76438L5.32579 5.98272V5.24038L4.88912 4.62904L5.58779 4.4107Z" fill="#D5D8E3"/>
<path d="M8.07812 1.65935H11.9208L9.99947 0L8.07812 1.65935Z" fill="#ABB2C7"/>
<path d="M11.92 13.0566L10.217 13.8863C10.1733 13.93 10.086 13.93 9.99865 13.93C9.91132 13.93 9.86765 13.93 9.78032 13.8863L8.0773 13.0566L0.785156 19.5194H19.2561L11.92 13.0566Z" fill="#ABB2C7"/>
<path d="M20.0012 9.16992L12.8398 12.6196L20.0012 18.9516V9.16992Z" fill="#ABB2C7"/>
<path d="M0 18.9516L7.16139 12.6196L0 9.16992V18.9516Z" fill="#ABB2C7"/>
<path d="M17.6836 9.25723L19.6486 8.34022L17.6836 6.63721V9.25723Z" fill="#ABB2C7"/>
<path d="M0.347656 8.34071L2.31267 9.25772V6.6377L0.347656 8.34071Z" fill="#ABB2C7"/>
</g>
</g>
<defs>
<clipPath id="clip0_27_9326">
<rect width="20" height="20" fill="white"/>
</clipPath>
<clipPath id="clip1_27_9326">
<rect width="20" height="20" fill="white"/>
</clipPath>
</defs>
</svg>
