<svg width="60" height="60" viewBox="0 0 60 60" fill="none" xmlns="http://www.w3.org/2000/svg">
<circle opacity="0.3" cx="30" cy="30" r="30" fill="#1C3048"/>
<g clip-path="url(#clip0_27_9404)">
<path d="M26.1795 44.87H36.7095C37.8181 44.87 38.8813 44.4296 39.6652 43.6457C40.4491 42.8618 40.8895 41.7986 40.8895 40.69V20.18C40.8895 19.0714 40.4491 18.0082 39.6652 17.2243C38.8813 16.4404 37.8181 16 36.7095 16H24.1795C23.0744 16.0053 22.0163 16.448 21.2367 17.2313C20.4572 18.0147 20.0195 19.0749 20.0195 20.18V38.69L26.1795 44.87Z" stroke="white" stroke-width="2" stroke-miterlimit="10" stroke-linecap="round"/>
<path d="M20.6211 38.4702H24.6211C24.8404 38.4702 25.0576 38.5134 25.2602 38.5973C25.4628 38.6813 25.6469 38.8043 25.802 38.9593C25.957 39.1144 26.08 39.2985 26.164 39.5011C26.2479 39.7037 26.2911 39.9209 26.2911 40.1402V43.5002" stroke="white" stroke-width="2" stroke-miterlimit="10" stroke-linecap="round"/>
<path d="M24.1719 35.1802H36.3519" stroke="white" stroke-width="2" stroke-miterlimit="10" stroke-linecap="round"/>
<path d="M36.3519 39.0098H29.4219" stroke="white" stroke-width="2" stroke-miterlimit="10" stroke-linecap="round"/>
<path d="M26.2893 30.5499V29.3199C26.2842 28.9493 26.3533 28.5815 26.4924 28.2381C26.6315 27.8946 26.8378 27.5824 27.0993 27.3199L27.2593 27.1599C27.5219 26.8984 27.8341 26.692 28.1775 26.5529C28.521 26.4138 28.8888 26.3448 29.2593 26.3499H31.6393C32.0098 26.3448 32.3777 26.4138 32.7211 26.5529C33.0646 26.692 33.3768 26.8984 33.6393 27.1599C33.9022 27.4219 34.1101 27.7338 34.2509 28.0772C34.3917 28.4207 34.4625 28.7887 34.4593 29.1599V30.5399" stroke="white" stroke-width="2" stroke-miterlimit="10" stroke-linecap="round"/>
<path d="M30.6603 24.47C32.0907 24.47 33.2503 23.3105 33.2503 21.88C33.2503 20.4496 32.0907 19.29 30.6603 19.29C29.2299 19.29 28.0703 20.4496 28.0703 21.88C28.0703 23.3105 29.2299 24.47 30.6603 24.47Z" stroke="white" stroke-width="2" stroke-miterlimit="10" stroke-linecap="round"/>
</g>
<defs>
<clipPath id="clip0_27_9404">
<rect width="22.89" height="30.87" fill="white" transform="translate(19 15)"/>
</clipPath>
</defs>
</svg>
