<svg width="50" height="50" viewBox="0 0 50 50" fill="none" xmlns="http://www.w3.org/2000/svg">
<circle cx="25" cy="25" r="25" fill="#1C3048"/>
<path d="M25 50C38.8071 50 50 38.8071 50 25C50 11.1929 38.8071 0 25 0C11.1929 0 0 11.1929 0 25C0 38.8071 11.1929 50 25 50Z" fill="url(#paint0_linear_634_35)"/>
<g clip-path="url(#clip0_634_35)">
<path d="M21.8159 37.3923H30.5909C31.5148 37.3923 32.4008 37.0253 33.054 36.3721C33.7073 35.7188 34.0743 34.8328 34.0743 33.909V16.8173C34.0743 15.8935 33.7073 15.0075 33.054 14.3542C32.4008 13.701 31.5148 13.334 30.5909 13.334H20.1493C19.2283 13.3384 18.3466 13.7073 17.697 14.3601C17.0473 15.0129 16.6826 15.8964 16.6826 16.8173V32.2423L21.8159 37.3923Z" stroke="white" stroke-width="2" stroke-miterlimit="10" stroke-linecap="round"/>
<path d="M17.1836 32.0586H20.5169C20.6997 32.0586 20.8806 32.0946 21.0495 32.1645C21.2183 32.2345 21.3718 32.337 21.501 32.4662C21.6302 32.5954 21.7327 32.7488 21.8027 32.9177C21.8726 33.0865 21.9086 33.2675 21.9086 33.4503V36.2503" stroke="white" stroke-width="2" stroke-miterlimit="10" stroke-linecap="round"/>
<path d="M20.1416 29.3164H30.2916" stroke="white" stroke-width="2" stroke-miterlimit="10" stroke-linecap="round"/>
<path d="M30.2916 32.5078H24.5166" stroke="white" stroke-width="2" stroke-miterlimit="10" stroke-linecap="round"/>
<path d="M21.9084 25.4572V24.4322C21.9042 24.1235 21.9617 23.817 22.0776 23.5308C22.1935 23.2445 22.3655 22.9844 22.5834 22.7656L22.7168 22.6322C22.9356 22.4143 23.1957 22.2424 23.4819 22.1264C23.7681 22.0105 24.0746 21.953 24.3834 21.9573H26.3668C26.6755 21.953 26.982 22.0105 27.2682 22.1264C27.5545 22.2424 27.8146 22.4143 28.0334 22.6322C28.2525 22.8506 28.4257 23.1105 28.5431 23.3967C28.6604 23.6829 28.7194 23.9896 28.7168 24.2989V25.4489" stroke="white" stroke-width="2" stroke-miterlimit="10" stroke-linecap="round"/>
<path d="M25.5499 20.3909C26.7419 20.3909 27.7083 19.4246 27.7083 18.2326C27.7083 17.0405 26.7419 16.0742 25.5499 16.0742C24.3579 16.0742 23.3916 17.0405 23.3916 18.2326C23.3916 19.4246 24.3579 20.3909 25.5499 20.3909Z" stroke="white" stroke-width="2" stroke-miterlimit="10" stroke-linecap="round"/>
</g>
<defs>
<linearGradient id="paint0_linear_634_35" x1="25" y1="0" x2="25" y2="50" gradientUnits="userSpaceOnUse">
<stop stop-color="#01DE7E"/>
<stop offset="1" stop-color="#04BCA0"/>
</linearGradient>
<clipPath id="clip0_634_35">
<rect width="19.075" height="25.725" fill="white" transform="translate(15.833 12.5)"/>
</clipPath>
</defs>
</svg>
