<svg width="20" height="20" viewBox="0 0 20 20" fill="none" xmlns="http://www.w3.org/2000/svg">
<g clip-path="url(#clip0_27_9346)">
<path fill-rule="evenodd" clip-rule="evenodd" d="M1.96875 2.29492V0.655738C1.96875 0.293763 2.26251 0 2.62449 0C2.98646 0 3.28023 0.293763 3.28023 0.655738V2.29492H7.21484V0.655738C7.21484 0.293763 7.50861 0 7.87058 0C8.23256 0 8.52632 0.293763 8.52632 0.655738V2.29492H12.4609V0.655738C12.4609 0.293763 12.7547 0 13.1167 0C13.4787 0 13.7724 0.293763 13.7724 0.655738V2.29492C14.8574 2.29596 15.7377 3.17687 15.7377 4.26214V4.91787H0V4.26214C0 3.17623 0.881311 2.29492 1.96721 2.29492H1.96875ZM15.7377 6.22935H0V14.7539C0 15.8398 0.881311 16.7212 1.96721 16.7212H8.67072C8.575 16.2995 8.5245 15.8602 8.5245 15.4097C8.5245 12.1526 11.1691 9.50804 14.4261 9.50804C14.8767 9.50804 15.3159 9.55854 15.7376 9.65426L15.7377 6.22935ZM14.4261 10.8198C11.893 10.8198 9.83594 12.8769 9.83594 15.41C9.83594 17.9431 11.893 20.0002 14.4261 20.0002C16.9592 20.0002 19.0163 17.9431 19.0163 15.41C19.0163 12.8769 16.9592 10.8198 14.4261 10.8198ZM13.7704 14.0985V16.0657C13.7704 16.4277 14.0641 16.7215 14.4261 16.7215H16.3933C16.7553 16.7215 17.0491 16.4277 17.0491 16.0657C17.0491 15.7038 16.7553 15.41 16.3933 15.41H15.0818V14.0985C15.0818 13.7365 14.7881 13.4428 14.4261 13.4428C14.0641 13.4428 13.7704 13.7365 13.7704 14.0985Z" fill="url(#paint0_linear_27_9346)"/>
</g>
<defs>
<linearGradient id="paint0_linear_27_9346" x1="19.146" y1="3.04561e-06" x2="-0.632999" y2="0.64693" gradientUnits="userSpaceOnUse">
<stop stop-color="#21C2CE"/>
<stop offset="1" stop-color="#15D8C5"/>
<stop offset="1" stop-color="#15D7C5"/>
</linearGradient>
<clipPath id="clip0_27_9346">
<rect width="20" height="20" fill="white"/>
</clipPath>
</defs>
</svg>
