<svg width="20" height="20" viewBox="0 0 20 20" fill="none" xmlns="http://www.w3.org/2000/svg">
<g clip-path="url(#clip0_27_9346)">
<path fill-rule="evenodd" clip-rule="evenodd" d="M14.4261 10.8198C11.893 10.8198 9.83594 12.8769 9.83594 15.41C9.83594 17.9431 11.893 20.0002 14.4261 20.0002C16.9592 20.0002 19.0163 17.9431 19.0163 15.41C19.0163 12.8769 16.9592 10.8198 14.4261 10.8198ZM13.7704 14.0985V16.0657C13.7704 16.4277 14.0641 16.7215 14.4261 16.7215H16.3933C16.7553 16.7215 17.0491 16.4277 17.0491 16.0657C17.0491 15.7038 16.7553 15.41 16.3933 15.41H15.0818V14.0985C15.0818 13.7365 14.7881 13.4428 14.4261 13.4428C14.0641 13.4428 13.7704 13.7365 13.7704 14.0985Z" fill="#D5D8E3"/>
<path fill-rule="evenodd" clip-rule="evenodd" d="M15.7377 6.22935H0V14.7539C0 15.8398 0.881311 16.7212 1.96721 16.7212H8.67072C8.575 16.2995 8.5245 15.8602 8.5245 15.4097C8.5245 12.1526 11.1691 9.50804 14.4261 9.50804C14.8767 9.50804 15.3159 9.55854 15.7376 9.65426L15.7377 6.22935ZM0 4.91787H15.7377V4.26213C15.7377 3.17623 14.8564 2.29492 13.7705 2.29492H1.96721C0.881311 2.29492 0 3.17623 0 4.26213V4.91787Z" fill="#ABB2C7"/>
<path fill-rule="evenodd" clip-rule="evenodd" d="M1.96875 0.655738V2.62295C1.96875 2.98493 2.26251 3.27869 2.62449 3.27869C2.98646 3.27869 3.28023 2.98493 3.28023 2.62295V0.655738C3.28023 0.293763 2.98646 0 2.62449 0C2.26251 0 1.96875 0.293763 1.96875 0.655738Z" fill="#ABB2C7"/>
<path fill-rule="evenodd" clip-rule="evenodd" d="M7.21484 0.655738V2.62295C7.21484 2.98493 7.50861 3.27869 7.87058 3.27869C8.23256 3.27869 8.52632 2.98493 8.52632 2.62295V0.655738C8.52632 0.293763 8.23256 0 7.87058 0C7.50861 0 7.21484 0.293763 7.21484 0.655738Z" fill="#ABB2C7"/>
<path fill-rule="evenodd" clip-rule="evenodd" d="M12.4609 0.655738V2.62295C12.4609 2.98493 12.7547 3.27869 13.1167 3.27869C13.4786 3.27869 13.7724 2.98493 13.7724 2.62295V0.655738C13.7724 0.293763 13.4786 0 13.1167 0C12.7547 0 12.4609 0.293763 12.4609 0.655738Z" fill="#ABB2C7"/>
</g>
<defs>
<clipPath id="clip0_27_9346">
<rect width="20" height="20" fill="white"/>
</clipPath>
</defs>
</svg>
