<svg width="24" height="24" viewBox="0 0 24 24" fill="none" xmlns="http://www.w3.org/2000/svg">
<g id="setting 1">
<path id="Vector" d="M2 9.24924H5.011C5.17524 9.90095 5.55231 10.4792 6.08244 10.8923C6.61257 11.3054 7.26542 11.5297 7.9375 11.5297C8.60958 11.5297 9.26243 11.3054 9.79256 10.8923C10.3227 10.4792 10.6998 9.90095 10.864 9.24924H22C22.1989 9.24924 22.3897 9.17022 22.5303 9.02957C22.671 8.88892 22.75 8.69815 22.75 8.49924C22.75 8.30033 22.671 8.10956 22.5303 7.96891C22.3897 7.82826 22.1989 7.74924 22 7.74924H10.864C10.6998 7.09753 10.3227 6.5193 9.79256 6.10619C9.26243 5.69308 8.60958 5.46875 7.9375 5.46875C7.26542 5.46875 6.61257 5.69308 6.08244 6.10619C5.55231 6.5193 5.17524 7.09753 5.011 7.74924H2C1.80109 7.74924 1.61032 7.82826 1.46967 7.96891C1.32902 8.10956 1.25 8.30033 1.25 8.49924C1.25 8.69815 1.32902 8.88892 1.46967 9.02957C1.61032 9.17022 1.80109 9.24924 2 9.24924ZM6.408 8.48624C6.41144 8.08133 6.57514 7.69428 6.86328 7.40979C7.15142 7.12529 7.54053 6.96653 7.94545 6.96825C8.35036 6.96997 8.73811 7.13203 9.02382 7.41896C9.30953 7.70589 9.46994 8.09432 9.46994 8.49924C9.46994 8.90416 9.30953 9.29259 9.02382 9.57952C8.73811 9.86645 8.35036 10.0285 7.94545 10.0302C7.54053 10.0319 7.15142 9.87319 6.86328 9.58869C6.57514 9.3042 6.41144 8.91715 6.408 8.51224V8.49924V8.48624Z" fill="white"/>
<path id="Vector_2" d="M13.136 16.2492H2C1.80109 16.2492 1.61032 16.1702 1.46967 16.0296C1.32902 15.8889 1.25 15.6982 1.25 15.4992C1.25 15.3003 1.32902 15.1096 1.46967 14.9689C1.61032 14.8283 1.80109 14.7492 2 14.7492H13.136C13.3002 14.0975 13.6773 13.5193 14.2074 13.1062C14.7376 12.6931 15.3904 12.4688 16.0625 12.4688C16.7346 12.4688 17.3874 12.6931 17.9176 13.1062C18.4477 13.5193 18.8248 14.0975 18.989 14.7492H22C22.1989 14.7492 22.3897 14.8283 22.5303 14.9689C22.671 15.1096 22.75 15.3003 22.75 15.4992C22.75 15.6982 22.671 15.8889 22.5303 16.0296C22.3897 16.1702 22.1989 16.2492 22 16.2492H18.989C18.8248 16.9009 18.4477 17.4792 17.9176 17.8923C17.3874 18.3054 16.7346 18.5297 16.0625 18.5297C15.3904 18.5297 14.7376 18.3054 14.2074 17.8923C13.6773 17.4792 13.3002 16.9009 13.136 16.2492Z" fill="white"/>
</g>
</svg>
