<svg width="16" height="16" viewBox="0 0 16 16" fill="none" xmlns="http://www.w3.org/2000/svg">
<path fill-rule="evenodd" clip-rule="evenodd" d="M0.065625 0.40625C0.15 0.21875 0.20625 0.159375 0.390625 0.0749997L0.546875 0H3.67188C6.63125 0 6.80312 0.00312468 6.92188 0.0593747C7.08125 0.13125 7.2375 0.290625 7.2875 0.434375C7.31875 0.521875 7.32812 1.35312 7.32812 4.35937V8.17188L7.25 8.3125C7.20625 8.3875 7.10938 8.49375 7.0375 8.54688L6.9 8.64062L3.725 8.65L3.19326 8.65147C0.665404 8.65867 0.397766 8.65943 0.25514 8.52628C0.238251 8.51052 0.223115 8.49287 0.206187 8.47314C0.196584 8.46194 0.186404 8.45008 0.175 8.4375C0.115625 8.37187 0.053125 8.2625 0.034375 8.19687C0.0125 8.11562 0 6.87187 0 4.3125C0 0.59375 0.003125 0.54375 0.065625 0.40625ZM8.7125 0.434573C8.7625 0.290823 8.91875 0.131448 9.07812 0.0595728C9.19687 0.0033228 9.36875 0.000197798 12.3281 0.000197798C15.4031 0.000197798 15.4563 0.0033228 15.5938 0.0658228C15.7812 0.150198 15.8406 0.206448 15.925 0.390823L16 0.547073V3.0002V5.45332L15.925 5.60957C15.8406 5.79395 15.7812 5.8502 15.5938 5.93457C15.4563 5.99707 15.4031 6.0002 12.3281 6.0002C9.36875 6.0002 9.19687 5.99707 9.07812 5.94082C8.91875 5.86895 8.7625 5.70957 8.7125 5.56582C8.65312 5.40332 8.65312 0.597073 8.7125 0.434573ZM9.09375 7.37832C8.95625 7.43457 8.8125 7.5627 8.74063 7.69707L8.67188 7.82832V11.6408C8.67188 14.6471 8.68125 15.4783 8.7125 15.5658C8.7625 15.7096 8.91875 15.8689 9.07812 15.9408C9.19687 15.9971 9.36875 16.0002 12.3281 16.0002C15.4031 16.0002 15.4563 15.9971 15.5938 15.9346C15.7812 15.8502 15.8406 15.7939 15.925 15.6096L16 15.4533V11.6877C16 9.15645 15.9875 7.88457 15.9656 7.80332C15.925 7.6502 15.7688 7.4752 15.6094 7.40332C15.4906 7.34707 15.3156 7.34395 12.3281 7.34707C10.3313 7.34707 9.14375 7.35957 9.09375 7.37832ZM0.065625 10.4064C0.15 10.2189 0.20625 10.1596 0.390625 10.0752L0.546875 10.0002H3.67188C6.63125 10.0002 6.80312 10.0033 6.92188 10.0596C7.08125 10.1314 7.2375 10.2908 7.2875 10.4346C7.34688 10.5971 7.34688 15.4033 7.2875 15.5658C7.2375 15.7096 7.08125 15.8689 6.92188 15.9408C6.80312 15.9971 6.63125 16.0002 3.67188 16.0002H0.546875L0.390625 15.9252C0.20625 15.8408 0.15 15.7814 0.065625 15.5939C0.003125 15.4564 0 15.4002 0 13.0002C0 10.6002 0.003125 10.5439 0.065625 10.4064Z" fill="url(#paint0_linear_503_135)"/>
<defs>
<linearGradient id="paint0_linear_503_135" x1="16.1092" y1="2.4365e-06" x2="-0.530709" y2="0.572408" gradientUnits="userSpaceOnUse">
<stop stop-color="#21C2CE"/>
<stop offset="1" stop-color="#15D8C5"/>
<stop offset="1" stop-color="#15D7C5"/>
</linearGradient>
</defs>
</svg>
