<svg width="20" height="20" viewBox="0 0 20 20" fill="none" xmlns="http://www.w3.org/2000/svg">
<g id="edit-image 1">
<g id="Group">
<path id="Vector" d="M18.0625 8.1875C17.125 7.25 15.625 7.25 14.6875 8.1875L8.3125 14.5625C8.25 14.625 8.1875 14.75 8.125 14.875L7.5 18C7.4375 18.1875 7.5 18.4375 7.6875 18.5625C7.8125 18.6875 8.0625 18.75 8.25 18.75L11.375 18.125C11.5 18.125 11.625 18.0625 11.6875 17.9375L18.0625 11.5625C19 10.625 19 9.125 18.0625 8.1875ZM10.9375 16.9375L8.9375 17.3125L9.3125 15.3125L14.375 10.25L16 11.875L10.9375 16.9375ZM17.1875 10.6875L16.875 11L15.25 9.375L15.5625 9.0625C16 8.625 16.75 8.625 17.1875 9.0625C17.625 9.5 17.625 10.25 17.1875 10.6875Z" fill="#1C3048"/>
<path id="Vector_2" d="M11.4375 9.1875C11.6875 9.4375 12.0625 9.4375 12.3125 9.1875C12.5625 8.9375 12.5625 8.5625 12.3125 8.3125L11.0625 7.0625C10.8125 6.8125 10.4375 6.8125 10.1875 7.0625L6.875 10.375L5.4375 8.9375C5.1875 8.6875 4.8125 8.6875 4.5625 8.9375L2.5 11V3.125C2.5 2.75 2.75 2.5 3.125 2.5H14.375C14.75 2.5 15 2.75 15 3.125V5.625C15 6 15.25 6.25 15.625 6.25C16 6.25 16.25 6 16.25 5.625V3.125C16.25 2.0625 15.4375 1.25 14.375 1.25H3.125C2.0625 1.25 1.25 2.0625 1.25 3.125V14.375C1.25 15.4375 2.0625 16.25 3.125 16.25H6.25C6.625 16.25 6.875 16 6.875 15.625C6.875 15.25 6.625 15 6.25 15H3.125C2.75 15 2.5 14.75 2.5 14.375V12.75L5 10.25L6.4375 11.6875C6.6875 11.9375 7.0625 11.9375 7.3125 11.6875L10.625 8.375L11.4375 9.1875Z" fill="#1C3048"/>
<path id="Vector_3" d="M5 5.625C5 6.6875 5.8125 7.5 6.875 7.5C7.9375 7.5 8.75 6.6875 8.75 5.625C8.75 4.5625 7.9375 3.75 6.875 3.75C5.8125 3.75 5 4.5625 5 5.625ZM7.5 5.625C7.5 6 7.25 6.25 6.875 6.25C6.5 6.25 6.25 6 6.25 5.625C6.25 5.25 6.5 5 6.875 5C7.25 5 7.5 5.25 7.5 5.625Z" fill="#1C3048"/>
</g>
</g>
</svg>
