<svg width="20" height="20" viewBox="0 0 20 20" fill="none" xmlns="http://www.w3.org/2000/svg">
<g id="Group">
<path id="Vector" d="M9.14979 14.9774C9.14979 15.3613 9.46104 15.6726 9.84502 15.6726C10.229 15.6726 10.5402 15.3613 10.5402 14.9774V2.36476L13.9336 5.75811C14.2051 6.02962 14.6453 6.02962 14.9168 5.75811C15.1883 5.48662 15.1883 5.04643 14.9168 4.77492L10.3457 0.203772C10.2116 0.0696945 10.0364 0.00182847 9.86066 0.000173822C9.85545 5.79508e-05 9.85023 0 9.84502 0C9.83477 0 9.82458 0.000222486 9.81445 0.000660481C9.62778 -0.00644013 9.43877 0.0612682 9.29625 0.203783L4.72512 4.77492C4.45361 5.04643 4.45361 5.48662 4.72512 5.75813C4.99663 6.02964 5.43682 6.02964 5.70831 5.75813L9.14979 2.31665V14.9774Z" fill="#1C3048"/>
<path id="Vector_2" d="M1.39047 11.6601C1.39047 11.2761 1.07919 10.9648 0.695239 10.9648C0.311266 10.9648 0 11.2761 0 11.6601V16.9866C0 18.6505 1.34882 19.9993 3.01267 19.9993H16.5148C18.1786 19.9993 19.5274 18.6505 19.5274 16.9866V11.6601C19.5274 11.2761 19.2162 10.9648 18.8322 10.9648C18.4482 10.9648 18.137 11.2761 18.137 11.6601V16.9866C18.137 17.8825 17.4107 18.6088 16.5148 18.6088H3.01267C2.11675 18.6088 1.39047 17.8825 1.39047 16.9866V11.6601Z" fill="#1C3048"/>
</g>
</svg>
