<svg width="20" height="20" viewBox="0 0 20 20" fill="none" xmlns="http://www.w3.org/2000/svg">
<g id="smartphone (1) 1">
<g id="Group">
<path id="Vector" d="M14.2072 0H5.79186C4.98706 0 4.33691 0.652675 4.33691 1.45747V18.5444C4.33691 19.3467 4.98706 20 5.79186 20H14.2072C15.0107 20 15.6634 19.3473 15.6634 18.5444V1.45747C15.6628 0.652675 15.0107 0 14.2072 0ZM14.572 16.2045H5.42828V2.45858H14.572V16.2045ZM11.9506 1.47893H8.04908V1.0535H11.9512L11.9506 1.47893ZM13.6202 1.28452C13.6202 1.4903 13.4523 1.65694 13.2471 1.65694C13.0413 1.65694 12.8741 1.48966 12.8741 1.28452C12.8741 1.07938 13.0413 0.912104 13.2471 0.912104C13.4529 0.911472 13.6202 1.07874 13.6202 1.28452ZM11.7758 18.4472H8.22266V17.354H11.7758V18.4472Z" fill="#1C3048"/>
</g>
</g>
</svg>
