<svg width="20" height="20" viewBox="0 0 20 20" fill="none" xmlns="http://www.w3.org/2000/svg">
<g id="Group 35811">
<mask id="mask0_1202_6362" style="mask-type:luminance" maskUnits="userSpaceOnUse" x="0" y="0" width="20" height="20">
<g id="clipPath3155">
<path id="path3153" d="M0 0H20V20H0V0Z" fill="white"/>
</g>
</mask>
<g mask="url(#mask0_1202_6362)">
<g id="g3151">
<g id="g3173">
<path id="path3175" d="M8.09527 17.1824C8.36195 16.8881 8.60904 16.5852 8.82176 16.2795C9.01488 16.0014 9.33444 15.8387 9.67355 15.841C12.1886 15.8536 14.7037 15.7726 17.2188 15.5956C17.92 15.5467 18.5155 15.1065 18.781 14.4863C18.8511 14.3236 18.8983 14.1478 18.9184 13.9638C19.2914 10.5613 19.2914 7.15822 18.9184 3.75515C18.8218 2.87233 18.1057 2.18492 17.22 2.12285C13.4731 1.86024 9.72642 1.80737 5.98017 1.96479C5.03872 2.00393 4.09675 2.05675 3.15473 2.12285C2.26903 2.18492 1.55231 2.87233 1.45523 3.75515C1.08274 7.15656 1.08274 10.5579 1.4546 13.9598C1.55174 14.8432 2.26736 15.5335 3.15473 15.5956C3.22772 15.6007 3.30072 15.6059 3.37371 15.6111C3.91455 15.6473 4.33528 16.0967 4.33528 16.6388V18.6883C4.33528 19.378 5.12442 19.7694 5.67273 19.3515C6.03822 19.0734 6.44802 18.7452 6.86075 18.3837" stroke="#1C3048" stroke-miterlimit="10" stroke-linecap="round" stroke-linejoin="round"/>
</g>
<g id="g3177">
<path id="path3179" d="M12.2559 7.0049C12.2559 7.88134 12.6822 8.5918 13.2079 8.5918C13.7338 8.5918 14.1601 7.88134 14.1601 7.0049C14.1601 6.12845 13.7338 5.418 13.2079 5.418C12.6822 5.418 12.2559 6.12845 12.2559 7.0049Z" fill="#1C3048"/>
</g>
<g id="g3181">
<path id="path3183" d="M12.2559 7.0049C12.2559 7.88134 12.6822 8.5918 13.2079 8.5918C13.7338 8.5918 14.1601 7.88134 14.1601 7.0049C14.1601 6.12845 13.7338 5.418 13.2079 5.418C12.6822 5.418 12.2559 6.12845 12.2559 7.0049Z" stroke="#1C3048" stroke-width="0.0131836" stroke-miterlimit="10"/>
</g>
<g id="g3185">
<path id="path3187" d="M6.21387 7.0049C6.21387 7.88134 6.64011 8.5918 7.16595 8.5918C7.69185 8.5918 8.11815 7.88134 8.11815 7.0049C8.11815 6.12845 7.69185 5.418 7.16595 5.418C6.64011 5.418 6.21387 6.12845 6.21387 7.0049Z" fill="#1C3048"/>
</g>
<g id="g3189">
<path id="path3191" d="M6.21387 7.0049C6.21387 7.88134 6.64011 8.5918 7.16595 8.5918C7.69185 8.5918 8.11815 7.88134 8.11815 7.0049C8.11815 6.12845 7.69185 5.418 7.16595 5.418C6.64011 5.418 6.21387 6.12845 6.21387 7.0049Z" stroke="#1C3048" stroke-width="0.0131836" stroke-miterlimit="10"/>
</g>
<g id="g3193">
<path id="path3195" d="M13.3242 10.1676C12.8083 11.3911 11.598 12.25 10.1875 12.25C8.777 12.25 7.56657 11.3911 7.05078 10.1676" stroke="#1C3048" stroke-width="0.791016" stroke-miterlimit="10" stroke-linecap="round" stroke-linejoin="round"/>
</g>
</g>
</g>
</g>
</svg>
