<svg width="20" height="20" viewBox="0 0 20 20" fill="none" xmlns="http://www.w3.org/2000/svg">
<path fill-rule="evenodd" clip-rule="evenodd" d="M13.5475 2.34375H17.0312C18.0005 2.34375 18.7891 3.13227 18.7891 4.10156V5.27344C18.7891 5.5973 18.527 5.85938 18.2031 5.85938H2.42902C2.37485 5.85938 2.32099 5.85987 2.26779 5.86035C1.70185 5.86553 1.21094 5.87002 1.21094 5.27344V4.10156C1.21094 3.13227 1.99945 2.34375 2.96875 2.34375H6.45242L6.83285 1.20164C7.07316 0.48293 7.7432 0 8.50082 0H11.4992C12.2568 0 12.9268 0.48293 13.1666 1.20164L13.5475 2.34375ZM7.94465 1.57242L7.68801 2.34375H12.3117L12.0548 1.57242C11.9753 1.33266 11.7515 1.17188 11.4992 1.17188H8.50082C8.24848 1.17188 8.02477 1.33266 7.94465 1.57242ZM3.4616 18.4012L2.52734 7.10938H17.4754L16.5416 18.3961C16.4581 19.3128 15.7057 20 14.7907 20H5.21199C4.29703 20 3.54457 19.3128 3.4616 18.4012ZM5.89977 17.0703C5.89977 17.8459 7.07164 17.8427 7.07164 17.0703V8.86719C7.07164 8.09164 5.89977 8.0948 5.89977 8.86719V17.0703ZM9.41539 17.0703C9.41539 17.8459 10.5873 17.8427 10.5873 17.0703V8.86719C10.5873 8.09164 9.41539 8.0948 9.41539 8.86719V17.0703ZM12.931 8.86719V17.0703C12.931 17.8459 14.1029 17.8427 14.1029 17.0703V8.86719C14.1029 8.54332 13.8408 8.28125 13.517 8.28125C13.1931 8.28125 12.931 8.54332 12.931 8.86719Z" fill="url(#paint0_linear_27_9291)"/>
<defs>
<linearGradient id="paint0_linear_27_9291" x1="18.909" y1="3.04558e-06" x2="0.622966" y2="0.55287" gradientUnits="userSpaceOnUse">
<stop stop-color="#21C2CE"/>
<stop offset="1" stop-color="#15D8C5"/>
<stop offset="1" stop-color="#15D7C5"/>
</linearGradient>
</defs>
</svg>
