<svg width="20" height="18" viewBox="0 0 20 18" fill="none" xmlns="http://www.w3.org/2000/svg">
<path d="M18.7496 2.08319H7.84147C7.7331 2.08319 7.62489 2.04148 7.54978 1.96244L5.95399 0.366646C5.71656 0.133301 5.40401 0 5.07078 0H1.25002C0.558292 0 0 0.562509 0 1.24987V4.58306H19.9995V3.33304C19.9995 2.64568 19.4369 2.08317 18.7494 2.08317L18.7496 2.08319Z" fill="#D5D8E3"/>
<path d="M18.7494 5.4167H0V16.2498C0 16.9402 0.559646 17.4998 1.25002 17.4998H18.7497C19.4401 17.4998 19.9998 16.9402 19.9998 16.2498L19.9996 6.66637C19.9996 5.9748 19.4371 5.4165 18.7496 5.4165L18.7494 5.4167ZM12.0619 11.9123C11.8991 12.0751 11.6354 12.0751 11.4728 11.9123L10.4162 10.8556V15.5034C10.4162 15.7337 10.2297 15.9201 9.99949 15.9201C9.7693 15.9201 9.58281 15.7337 9.58281 15.5034V10.8552L8.52623 11.9116C8.36346 12.0744 8.09975 12.0744 7.9371 11.9116C7.77434 11.7489 7.77434 11.4852 7.9371 11.3225L9.7046 9.55517C9.74314 9.51664 9.78923 9.48611 9.84032 9.46495C9.89125 9.44394 9.9452 9.43276 9.99946 9.43276C10.0537 9.43276 10.1077 9.44379 10.1586 9.46495C10.2097 9.48611 10.2558 9.51664 10.2943 9.55517L12.0618 11.3228C12.2246 11.4856 12.2246 11.7493 12.0618 11.9121L12.0619 11.9123ZM12.2912 8.24615H7.70798C7.4778 8.24615 7.29129 8.0598 7.29129 7.82946C7.29129 7.59914 7.47778 7.41277 7.70798 7.41277H12.2912C12.5213 7.41277 12.7078 7.59912 12.7078 7.82946C12.7078 8.05978 12.5213 8.24615 12.2912 8.24615Z" fill="#ABB2C7"/>
</svg>
