<svg width="20" height="18" viewBox="0 0 20 18" fill="none" xmlns="http://www.w3.org/2000/svg">
<path fill-rule="evenodd" clip-rule="evenodd" d="M7.84147 2.08319H18.7496L18.7494 2.08317C19.4369 2.08317 19.9995 2.64568 19.9995 3.33304V4.58306H0V1.24987C0 0.562509 0.558292 0 1.25002 0H5.07078C5.40401 0 5.71656 0.133301 5.95399 0.366646L7.54978 1.96244C7.62489 2.04148 7.7331 2.08319 7.84147 2.08319ZM0 5.4167H18.7494L18.7496 5.4165C19.4371 5.4165 19.9996 5.9748 19.9996 6.66637L19.9998 16.2498C19.9998 16.9402 19.4401 17.4998 18.7497 17.4998H1.25002C0.559646 17.4998 0 16.9402 0 16.2498V5.4167ZM11.4728 11.9123C11.6354 12.0751 11.8991 12.0751 12.0619 11.9123L12.0618 11.9121C12.2246 11.7493 12.2246 11.4856 12.0618 11.3228L10.2943 9.55517C10.2558 9.51664 10.2097 9.48611 10.1586 9.46495C10.1077 9.44379 10.0537 9.43276 9.99946 9.43276C9.9452 9.43276 9.89125 9.44394 9.84032 9.46495C9.78923 9.48611 9.74314 9.51664 9.7046 9.55517L7.9371 11.3225C7.77434 11.4852 7.77434 11.7489 7.9371 11.9116C8.09975 12.0744 8.36346 12.0744 8.52623 11.9116L9.58281 10.8552V15.5034C9.58281 15.7337 9.7693 15.9201 9.99949 15.9201C10.2297 15.9201 10.4162 15.7337 10.4162 15.5034V10.8556L11.4728 11.9123ZM7.70798 8.24615H12.2912C12.5213 8.24615 12.7078 8.05978 12.7078 7.82946C12.7078 7.59912 12.5213 7.41277 12.2912 7.41277H7.70798C7.47778 7.41277 7.29129 7.59914 7.29129 7.82946C7.29129 8.0598 7.4778 8.24615 7.70798 8.24615Z" fill="url(#paint0_linear_503_139)"/>
<defs>
<linearGradient id="paint0_linear_503_139" x1="20.1362" y1="2.66486e-06" x2="-0.655855" y2="0.817428" gradientUnits="userSpaceOnUse">
<stop stop-color="#21C2CE"/>
<stop offset="1" stop-color="#15D8C5"/>
<stop offset="1" stop-color="#15D7C5"/>
</linearGradient>
</defs>
</svg>
