<svg width="60" height="60" viewBox="0 0 60 60" fill="none" xmlns="http://www.w3.org/2000/svg">
<circle opacity="0.3" cx="30" cy="30" r="30" fill="#1C3048"/>
<path d="M45.17 21.31C44.6702 21.0433 44.107 20.9182 43.5413 20.9481C42.9756 20.9781 42.4288 21.162 41.96 21.48L35.96 25.48V22.3C35.96 21.4248 35.6123 20.5854 34.9935 19.9665C34.3746 19.3477 33.5352 19 32.66 19H17.3C16.4256 19.0026 15.5878 19.3512 14.9695 19.9695C14.3512 20.5878 14.0026 21.4256 14 22.3V37.7C14.0026 38.5744 14.3512 39.4122 14.9695 40.0305C15.5878 40.6488 16.4256 40.9974 17.3 41H32.7C33.5752 41 34.4146 40.6523 35.0335 40.0335C35.6523 39.4146 36 38.5752 36 37.7V34.52L42 38.52C42.468 38.8401 43.015 39.0253 43.5812 39.0553C44.1473 39.0853 44.7108 38.9589 45.21 38.69C45.775 38.3735 46.2437 37.9097 46.5659 37.3479C46.8882 36.7862 47.052 36.1475 47.04 35.5V24.5C47.052 23.8525 46.8882 23.2138 46.5659 22.6521C46.2437 22.0903 45.775 21.6265 45.21 21.31H45.17ZM33.8 37.7C33.8 37.9917 33.6841 38.2715 33.4778 38.4778C33.2715 38.6841 32.9917 38.8 32.7 38.8H17.3C17.0083 38.8 16.7285 38.6841 16.5222 38.4778C16.3159 38.2715 16.2 37.9917 16.2 37.7V22.3C16.2 22.0083 16.3159 21.7285 16.5222 21.5222C16.7285 21.3159 17.0083 21.2 17.3 21.2H32.7C32.9917 21.2 33.2715 21.3159 33.4778 21.5222C33.6841 21.7285 33.8 22.0083 33.8 22.3V37.7ZM44.8 35.5C44.813 35.7497 44.7574 35.9981 44.6393 36.2184C44.5212 36.4388 44.3451 36.6226 44.13 36.75C43.9757 36.8389 43.7988 36.8807 43.621 36.87C43.4433 36.8593 43.2725 36.7967 43.13 36.69L35.95 31.87V28.13L43.13 23.31C43.2725 23.2033 43.4433 23.1407 43.621 23.13C43.7988 23.1193 43.9757 23.1611 44.13 23.25C44.3443 23.3782 44.5199 23.5622 44.6379 23.7823C44.7559 24.0025 44.8119 24.2505 44.8 24.5V35.5Z" fill="white"/>
</svg>
