<svg width="18" height="19" viewBox="0 0 18 19" fill="none" xmlns="http://www.w3.org/2000/svg">
<g id="tick 1" clip-path="url(#clip0_2476_86)">
<g id="Group">
<path id="Vector" d="M2.63545 3.63604C2.17295 4.09853 2.17295 4.84827 2.63545 5.31077L7.32468 10L2.63545 14.6892C2.17295 15.1517 2.17295 15.9015 2.63544 16.364C3.09794 16.8265 3.84768 16.8265 4.31017 16.364L8.99941 11.6747L13.6886 16.364C14.1511 16.8265 14.9009 16.8265 15.3634 16.364C15.8259 15.9015 15.8259 15.1517 15.3634 14.6892L10.6741 10L15.3634 5.31076C15.8259 4.84827 15.8259 4.09853 15.3634 3.63604C14.9009 3.17355 14.1511 3.17355 13.6886 3.63604L8.99941 8.32527L4.31017 3.63604C3.84768 3.17354 3.09794 3.17355 2.63545 3.63604Z" fill="#FF0000"/>
</g>
</g>
<defs>
<clipPath id="clip0_2476_86">
<rect width="18" height="18" fill="white" transform="translate(0 0.823486)"/>
</clipPath>
</defs>
</svg>
