<svg width="30" height="31" viewBox="0 0 30 31" fill="none" xmlns="http://www.w3.org/2000/svg">
<path d="M28.4673 8.00997C28.1432 6.80524 27.1933 5.85556 25.9886 5.53116C23.7877 4.92905 14.984 4.92905 14.984 4.92905C14.984 4.92905 6.18072 4.92905 3.97985 5.50833C2.79831 5.83239 1.82516 6.80541 1.50106 8.00997C0.921875 10.2104 0.921875 14.7737 0.921875 14.7737C0.921875 14.7737 0.921875 19.3601 1.50106 21.5375C1.8255 22.7421 2.77513 23.6917 3.98002 24.0161C6.2039 24.6184 14.9844 24.6184 14.9844 24.6184C14.9844 24.6184 23.7877 24.6184 25.9886 24.0391C27.1934 23.7149 28.1432 22.7652 28.4677 21.5607C29.0467 19.3601 29.0467 14.7969 29.0467 14.7969C29.0467 14.7969 29.0699 10.2104 28.4673 8.00997ZM12.1811 18.9895V10.5579L19.5018 14.7737L12.1811 18.9895Z" fill="white"/>
</svg>
